<svg id="Ñëîé_1" data-name="Ñëîé 1" xmlns="http://www.w3.org/2000/svg" xmlns:xlink="http://www.w3.org/1999/xlink" viewBox="0 0 1200 1200"><defs><radialGradient id="radial-gradient" cx="737.83" cy="859.1" r="1018.87" gradientTransform="matrix(1, 0, 0, -1, 0, 1197.89)" gradientUnits="userSpaceOnUse"><stop offset="0" stop-color="#33343b"/><stop offset="0.32" stop-color="#2c2d34"/><stop offset="0.78" stop-color="#1a1b21"/><stop offset="1" stop-color="#0f1016"/></radialGradient><linearGradient id="linear-gradient" x1="-128.69" y1="1086.68" x2="1271.45" y2="1030.67" gradientTransform="matrix(1, 0, 0, -1, 0, 1197.89)" gradientUnits="userSpaceOnUse"><stop offset="0" stop-color="#be965d"/><stop offset="0.28" stop-color="#976f40"/><stop offset="0.43" stop-color="#c99b61"/><stop offset="0.56" stop-color="#f0be7b"/><stop offset="0.63" stop-color="#ffcb85"/><stop offset="0.71" stop-color="#eebc79"/><stop offset="0.87" stop-color="#c0935b"/><stop offset="1" stop-color="#976f40"/></linearGradient><linearGradient id="linear-gradient-2" x1="-133.73" y1="960.7" x2="1266.41" y2="904.69" xlink:href="#linear-gradient"/><linearGradient id="linear-gradient-3" x1="-123.57" y1="1214.73" x2="1276.59" y2="1158.73" xlink:href="#linear-gradient"/><linearGradient id="linear-gradient-4" x1="-24.69" y1="1086.68" x2="1375.45" y2="1030.67" gradientTransform="translate(1304 1197.89) rotate(180)" xlink:href="#linear-gradient"/><linearGradient id="linear-gradient-5" x1="-29.72" y1="960.75" x2="1370.41" y2="904.75" gradientTransform="translate(1304 1197.89) rotate(180)" xlink:href="#linear-gradient"/><linearGradient id="linear-gradient-6" x1="-19.57" y1="1214.73" x2="1380.59" y2="1158.73" gradientTransform="translate(1304 1197.89) rotate(180)" xlink:href="#linear-gradient"/><linearGradient id="linear-gradient-7" x1="475.31" y1="730.68" x2="1875.45" y2="674.67" gradientTransform="matrix(-1, 0, 0, 1, 1804, 358.11)" xlink:href="#linear-gradient"/><linearGradient id="linear-gradient-8" x1="470.27" y1="604.65" x2="1870.41" y2="548.64" gradientTransform="matrix(-1, 0, 0, 1, 1804, 358.11)" xlink:href="#linear-gradient"/><linearGradient id="linear-gradient-9" x1="480.43" y1="858.73" x2="1880.59" y2="802.73" gradientTransform="matrix(-1, 0, 0, 1, 1804, 358.11)" xlink:href="#linear-gradient"/><linearGradient id="linear-gradient-10" x1="-628.69" y1="730.68" x2="771.45" y2="674.67" gradientTransform="translate(500 358.11)" xlink:href="#linear-gradient"/><linearGradient id="linear-gradient-11" x1="-633.73" y1="604.66" x2="766.41" y2="548.65" gradientTransform="translate(500 358.11)" xlink:href="#linear-gradient"/><linearGradient id="linear-gradient-12" x1="-623.57" y1="858.73" x2="776.59" y2="802.73" gradientTransform="translate(500 358.11)" xlink:href="#linear-gradient"/></defs><title>6806555 [Converted]</title><rect width="1200" height="1200" style="fill:url(#radial-gradient)"/><path d="M58.8,316.1c12.8.8,24.7,1.6,36.7,2.3a333,333,0,0,0,55.6-1.2c14-1.5,26.8-6.4,39-13,8.3-4.5,14.6-11.2,21.1-18.4-4.2-6-8.2-11.8-12.3-17.6-24.2,16.7-35,30.5-105.5,25.9-5-.3-5.9-1.4-4.8-6.4,13.7-67.6,28.9-77.8,52.8-94.9-4.9-5.6-9.4-10.8-14.4-16.5-42.6,20.6-52,56.6-66.1,123.8C59.9,304.9,59.6,309.9,58.8,316.1Z" style="fill:none"/><path d="M300,18.7V.2a8.75,8.75,0,0,1-1.6-.2H265C274.4,11.4,286.5,18.9,300,18.7Z" style="fill:none"/><path d="M139.3,32.2c16.2,4.5,36.7-5.3,52.5-11.6a12.15,12.15,0,0,0,3.7-2.7c4.2-4.3,8.3-8.8,12.3-13-8.7-2.6-13.5-4.1-16.3-5H181.3c-11.5,1.7-23,3-33.9,7.4C125.7,16.3,130.6,29.8,139.3,32.2Z" style="fill:none"/><path d="M198.6,66.3c6.9,16.8,22.3,30.1,42.2,30.9,14.7.6,28.8-9.1,47.1-19.4-1.1-5.8-2.2-11.5-3.4-17.9a36.3,36.3,0,0,1-4.1,2.3c-22.4,9.6-38.8,21.9-59.9.4a13.66,13.66,0,0,1-2.6-4.3,14,14,0,0,1-1.2-4.9c-.3-30.1,20-33.1,42.6-42.1a36.12,36.12,0,0,1,4.5-1.2c-2.4-3.5-4.7-6.8-6.9-10H235.1c-12,3.4-21.9,7.3-28.6,14.6C193.1,29.2,191.7,49.5,198.6,66.3Z" style="fill:none"/><path d="M108.1,39.6c22,31.9,59.7,9.4,77.8,3.5,1.4-5.8,2.6-10.9,4-16.7-23.2,8.2-36.1,13.9-49.1,10.7-6.8-1.7-11.3-5.1-12.7-12.3C125.5,11.3,143.5,2.9,157.2,0H115.7C104.1,11,100.4,28.5,108.1,39.6Z" style="fill:none"/><path d="M70.1,39.2c-.5-7.6-1-14.5-1.5-21.9C46.7,20.9,31.1,23.9,0,8.7V35.5C23.9,45.7,45,47.9,70.1,39.2Z" style="fill:none"/><path d="M62.2,14.2c5.6-1.1,8.3-3.1,8.9-8.8A26.86,26.86,0,0,1,72.5,0H0V4.1C24,16.2,41.5,18.3,62.2,14.2Z" style="fill:none"/><path d="M39.7,50C25.8,49.4,12.8,46,0,41.2V80.9c1.8.8,3.6,1.5,5.3,2.3A133.84,133.84,0,0,1,39.7,50Z" style="fill:none"/><path d="M77.6,28.8c2.8,19.3,9.9,36.5,26.2,48.8,14,10.5,29.1,13,45.4,6.3,12.5-5.2,24.9-10.8,37.3-16.3a12.05,12.05,0,0,0,2.6-2c-1-6-1.9-11.7-2.9-18-27.9,9.9-56.8,24.8-80-3.3-4.8-5.8-7.1-12.5-6.4-19.4C100.9,14,104.5,6,109.7,0H78.9a33.23,33.23,0,0,0-1.6,10C77.3,16.3,76.8,22.7,77.6,28.8Z" style="fill:none"/><path d="M255.3,232.6c-.9,4.1,0,7.6,2.3,9.9s5.8,3.2,9.9,2.3a28.38,28.38,0,0,0,15.1-8.6c8.1-8.8,13.6-14.6,17.4-19V190.3c-10,2.5-12.6,5.4-36.1,27.2A28.38,28.38,0,0,0,255.3,232.6Z" style="fill:none"/><path d="M266.9,14.3c-9.5,1.2-18.3,4.6-27,8.5-11.7,5.3-17.6,14.2-19,26.8a13.39,13.39,0,0,0,5.3,12.7c9.8,7.9,20.3,10,32.3,5.5,9-3.3,17.6-7.2,25.1-13.1a8.32,8.32,0,0,0,2.8-4.3A64.59,64.59,0,0,1,299.9,26V23.1c-10.2-.7-19.4-3-28-7.8A8.53,8.53,0,0,0,266.9,14.3Z" style="fill:none"/><path d="M280.4,153.1c6.5,3.2,13.1,4.6,19.6,3.4V100.8c-7,4.9-14.1,9.7-20.4,15.3C270.9,123.9,267.6,146.9,280.4,153.1Z" style="fill:none"/><path d="M254.5,274.4c-9-1.3-15.6-4-20.3-8.7s-7.4-11.3-8.7-20.3c-4-28.1,16.5-40.7,39.8-60.9-4.5-3.7-9.2-7.4-14.2-11.5a15,15,0,0,0-3.4,1.6c-12.2,8.9-24.6,17.6-36.3,27.1-14.7,12-20.8,40.5-1.8,68a75.73,75.73,0,0,0,9.3,11.3,80,80,0,0,0,11.3,9.3c27.5,18.9,56,12.9,68-1.8.6-.7,1.2-1.5,1.8-2.2V252.7C287.1,267.3,274.9,277.3,254.5,274.4Z" style="fill:none"/><path d="M292.5,66.5A21.73,21.73,0,0,0,300,81.2V32.7C293.3,41.9,291.1,53.9,292.5,66.5Z" style="fill:none"/><path d="M256.2,104.2c-10.4,10.8-13.7,24.1-10.5,38.9,3.6,17.1,13.5,29.6,29,37.1,9.7,4.7,18,5.9,25.4,4.6V160.9c-9.2,1.3-18.6-1.6-26.1-6.7a11.72,11.72,0,0,1-4-6.1c-4-12.2-2.2-28.4,10-37.3,6.8-4.9,13.3-10.2,20.2-15.6V90.1c-3.1-2.7-6.4-5.5-9.8-8.5C278.7,88.6,265.8,94.1,256.2,104.2Z" style="fill:none"/><path d="M283.8,240.5a53.72,53.72,0,0,1-14,7.9,14.1,14.1,0,0,1-18.2-18.2,52.15,52.15,0,0,1,7.9-14,86.09,86.09,0,0,1,19.3-17.8c2.4-1.6,4.1-4,6.6-6.4-5.6-1.6-10.7-3.1-16.9-4.9-25.1,22.9-46.6,35.6-36.8,65.2a27.05,27.05,0,0,0,6,10.2,24.07,24.07,0,0,0,10.2,6c23.6,7.8,36.4-4.3,52.2-22.2V223.6A93.2,93.2,0,0,1,283.8,240.5Z" style="fill:none"/><path d="M153.5,149.2c3.2,17.5,28.4,29,48.8,18.8,10.9-5.4,25.1-15.3,35-22.5-.2-5.7-.3-11.1-.5-17.1-7.3,5-13.8,9.7-20.6,14.1-11.7,7.6-30.4,14.4-38.1,3.1-4.1-6-3.3-11.7.3-17.7,7-11.5,20.1-16.5,42.3-27.2-5.1-3.1-9.6-5.9-14.7-9C189,100.3,146.5,111.1,153.5,149.2Z" style="fill:none"/><path d="M127.8,98.6c-15.9,6.2-28.4,11.6-45.8,18.3-9.5,3.7-18.5,8-25.6,15.8-5,5.5-11.6,8.7-19.6,6.1q-3.75-1.2-4.8-3.6c-.7-1.6-.4-3.6.8-5.9,3.8-7.4,10.8-9.8,18.2-9.5,10.6.4,20-2.8,29.3-6.9,17-7.5,29.7-12.5,45.3-19.4-.3-.7-.4-1-.6-1-8.3-2.6-20.2-1.8-38.3-22.2a5,5,0,0,0-6-1.7c-35.3,11.6-46,29-65.4,63-2.3,4.1-4.2,8.4-6.6,13.3h0c5.2,1.8,9.6,3.5,14.1,4.8,37.8,10.4,57.6,15.1,90.8-1.7,2.3-1.2,3.2-2.8,3.1-5.5-1.7-27.2,7.4-35.1,11.4-42.8C128.2,99.6,128,99.3,127.8,98.6Z" style="fill:none"/><path d="M124.8,255.3c14.7-3.1,25.2-12.5,36.3-21.5,10.1-8.3,20.7-16,32-24.7-3.7-.1-6.4-.3-9-.1-8.4.7-16.2-1.3-23.6-4.9-3-1.5-6.4-2.6-9-4.7-4.4-3.6-7.8-3.1-12.5.1-24.9,16.7-36.3,37.5-46.6,89.8a36.73,36.73,0,0,0,5.3.9c59.2-.9,64.5,2,99.3-26.9-5.2-16.4-8.5-32.5-1.5-49.2-10,6.9-22.5,17.3-39.2,29.4-8.9,6.4-17,13.3-21.9,23.4-6.1,12.5-28,14.3-22.2-1A17.55,17.55,0,0,1,124.8,255.3Z" style="fill:none"/><path d="M152.6,191.8c7,7.1,16.2,9.6,25.6,11.5a38,38,0,0,0,31-6.7c12.1-9,23.6-18.9,35.4-28.4a14.55,14.55,0,0,0,1.5-2c-2.4-5.5-4.6-10.6-7.2-16.6-24.4,17.3-50.6,40.2-80.7,15.8-5.4-4.4-8.5-10.8-9.2-18.3-3.4-36.2,27.5-46.1,54.2-58.9-3.7-5.2-7.1-9.9-10.7-14.8a12,12,0,0,0-3.3.5c-12.7,4.9-25.4,9.6-37.9,14.8-16.3,6.7-25.2,19.2-27.7,36.5-2.8,20.1,4.3,37.3,16,53C143.3,183.2,148.1,187.4,152.6,191.8Z" style="fill:none"/><path d="M97.7,190.1A133.88,133.88,0,0,1,50,191c-4.5,11.3-8.9,22.3-13.9,34.7,13.1,1.9,24.7,3.6,36.9,5.4C79.2,216.1,86.7,202.2,97.7,190.1Z" style="fill:none"/><path d="M282.8,495.2c-10.8,3-21.8,7.4-32.4,10.4-5.2-22.5-10.3-45-15.3-66.7-19.8,4.5-38.6,8.8-58.5,13.3a520.53,520.53,0,0,1-2.5-59.5c-5.8-1,5.1-1.3-62.5,1.4-.5,0-5.2.7-6.6.8.1-1.4.8-6.1.8-6.6,2.8-67.6,2.4-56.7,1.4-62.5a500.39,500.39,0,0,1-59.5-2.5L61,264.8c-19.9-4.6-40.5-9.3-61.1-14.1V1200h300V490.2C294.3,491.9,288.5,493.6,282.8,495.2Z" style="fill:none"/><path d="M139.6,360.4c13.4-1.7,25.2-3.1,37.1-4.6,1.3-16.5,5.9-31.4,14.3-46.8a114.6,114.6,0,0,1-46.8,14.3C142.7,335.2,141.3,347,139.6,360.4Z" style="fill:none"/><path d="M180.8,132.2c-4.5,7.9,1.6,21,23.2,11.9,12.6-5.3,22.9-14.3,33.9-22.1,1.1-.7.8-.7,10.5-18.9-5.8-.2-11.8-.4-17.8-.5a11.2,11.2,0,0,0-4.5.7C210.5,110,189.1,117.6,180.8,132.2Z" style="fill:none"/><path d="M14.5,184c-6.1-1.7-10.8-3-14.5-4.1v52.3c1.7-5,3.4-10,4.8-15C7.9,206.1,11.2,195.2,14.5,184Z" style="fill:none"/><path d="M124.4,172.2c-2.4-6.9-4.8-13.6-7.3-20.7a25.33,25.33,0,0,0-3.6,1.2C76.8,172,48.7,161,9.1,149.6c-2.9-.8-4.4-1.5-4.9-2.7s.1-2.7,1.6-5.4c19.9-36.1,32-63.8,71.6-76.1a35.92,35.92,0,0,0,3.4-1.7c-3.2-6.8-6.3-13.2-9.5-19.8-8.6,2.4-35.1,6.3-57.8,37.7C8,89.3,5,93.2.1,101.6V172c37.8,11.8,40.4,11.9,56.9,14.5C95.2,192.5,116.6,176.6,124.4,172.2Z" style="fill:none"/><path d="M71.2,235.1c-13-2-25.7-3.9-39.2-5.9a30.75,30.75,0,0,1,.9-5.8c8.1-21.1,10.4-25.5,12.7-32.7-7.8-1.8-15.4-3.5-23.6-5.4C12.9,205,7.2,225.4,0,246.1v.5c21.7,4.4,42.4,9.4,64,11.7C66.5,250.3,68.8,242.8,71.2,235.1Z" style="fill:none"/><path d="M136.4,363.6c-.8-.8-.7-2.3-.4-5.2,1.7-16.8,3.2-25,3.7-34.1-8.4.3-16,.6-24.2,1-3.7,21.3-3.9,42.7-5.4,64.6,21.9-1.5,43.3-1.8,64.6-5.4.3-8.2.6-15.8,1-24.2-9,.5-17.2,2-34.1,3.7C138.7,364.3,137.2,364.3,136.4,363.6Z" style="fill:none"/><path d="M0,85.3v5.1c.8-1.3,1.6-2.5,2.4-3.8C1.6,86.1.8,85.7,0,85.3Z" style="fill:none"/><path d="M296.7,321.9a102.76,102.76,0,0,0,3.3,12.4v-38A37.37,37.37,0,0,0,296.7,321.9Z" style="fill:none"/><path d="M270.8,468c-2-13.5-3.9-26.2-5.9-39.2-7.8,2.4-15.2,4.7-23.2,7.2,2.2,21.7,7.3,42.4,11.7,64.1,15.7-5.5,31.3-10.1,46.6-15.9V457.8c-4.8,1.9-11.4,4.6-23.4,9.3A30.75,30.75,0,0,1,270.8,468Z" style="fill:none"/><path d="M212.3,411.5c-5.1,1-6.1.1-6.4-4.8-4.6-70.5,9.1-81.3,25.9-105.5-5.8-4.1-11.6-8.1-17.6-12.3-7.1,6.5-13.9,12.8-18.4,21.1-6.6,12.2-11.5,25-13,39a333,333,0,0,0-1.2,55.6c.7,11.9,1.5,23.9,2.3,36.7,6.2-.8,11.2-1.2,16-2.2,46.6-9.8,78.2-17.3,100.1-35.2V368.6C285.9,387,270.1,399.9,212.3,411.5Z" style="fill:none"/><path d="M291,315.9c.2-2.6-.1-5.3-.1-9-8.7,11.3-16.4,21.9-24.7,32-9,11-18.3,21.6-21.5,36.3a16.92,16.92,0,0,1-10.5,12.5c-15.3,5.9-13.5-16-1-22.2,10.1-5,17-13.1,23.4-21.9,12.1-16.6,22.5-29.2,29.4-39.2-16.8,7-32.8,3.8-49.2-1.5-29,34.8-26,40.1-26.9,99.3,0,1.7.6,3.3.9,5.3,51.8-10.1,72.8-21.4,89.3-45.9V347.7c-1.8-2.5-2.8-5.5-4.1-8.3A42.42,42.42,0,0,1,291,315.9Z" style="fill:none"/><path d="M274.3,463.9c9.1-3.6,17.5-7,25.7-10.3V410.3c-9.6,6.9-20.1,12.1-31.1,16.7C270.7,439.2,272.4,450.8,274.3,463.9Z" style="fill:none"/><path d="M269.9,148.1a12.35,12.35,0,0,0,4,6.1c7.5,5.1,16.9,8,26.1,6.7v-4.3c-6.5,1.2-13.1-.2-19.6-3.4-12.8-6.2-9.5-29.2-.8-36.9,6.3-5.6,13.4-10.5,20.4-15.3V95.3c-6.9,5.4-13.4,10.7-20.2,15.6C267.6,119.7,265.9,135.9,269.9,148.1Z" style="fill:url(#linear-gradient)"/><path d="M47.8,323.4a520.53,520.53,0,0,0,59.5,2.5c1,5.8,1.3-5.1-1.4,62.5,0,.5-.7,5.2-.8,6.6,1.4-.1,6.1-.8,6.6-.8,67.6-2.8,56.7-2.4,62.5-1.4a500.39,500.39,0,0,0,2.5,59.5L235.2,439c5,21.7,10.2,44.2,15.3,66.7,10.5-2.9,21.6-7.4,32.4-10.4,5.7-1.6,11.5-3.3,17.2-5v-6c-15.2,5.9-30.8,10.5-46.6,15.9-4.4-21.7-9.4-42.5-11.7-64.1,8-2.5,15.4-4.8,23.2-7.2,2,13,3.9,25.7,5.9,39.2a30.75,30.75,0,0,0,5.8-.9c12-4.6,18.6-7.4,23.4-9.3v-4.2c-8.2,3.3-16.6,6.6-25.7,10.3-1.9-13.1-3.6-24.7-5.4-36.9,11-4.6,21.5-9.8,31.1-16.7V404c-21.9,17.9-53.5,25.4-100.1,35.2-4.8,1-9.8,1.4-16,2.2-.8-12.8-1.6-24.7-2.3-36.7a333,333,0,0,1,1.2-55.6c1.5-14,6.4-26.8,13-39,4.5-8.3,11.2-14.6,18.4-21.1,6,4.2,11.8,8.2,17.6,12.3-16.7,24.2-30.5,35-25.9,105.5.3,5,1.4,5.9,6.4,4.8,57.8-11.7,73.6-24.5,87.7-42.9v-6.9c-16.6,24.4-37.5,35.8-89.3,45.9a36.73,36.73,0,0,1-.9-5.3c.9-59.2-2-64.5,26.9-99.3,16.4,5.2,32.5,8.5,49.2,1.5-6.9,10-17.3,22.5-29.4,39.2-6.4,8.9-13.3,17-23.4,21.9-12.5,6.1-14.3,28,1,22.2a16.72,16.72,0,0,0,10.5-12.5c3.1-14.7,12.5-25.2,21.5-36.3,8.3-10.1,16-20.7,24.7-32,.1,3.7.3,6.4.1,9-.7,8.4,1.3,16.2,4.9,23.6,1.4,2.8,2.4,5.8,4.1,8.3V334.4a75.54,75.54,0,0,1-3.3-12.4,38.39,38.39,0,0,1,3.3-25.7v-9.8c-.6.7-1.2,1.5-1.8,2.2-12,14.7-40.5,20.8-68,1.8a75.73,75.73,0,0,1-11.3-9.3,80,80,0,0,1-9.3-11.3c-18.9-27.5-12.9-56,1.8-68,11.7-9.6,24.1-18.2,36.3-27.1a17.38,17.38,0,0,1,3.4-1.6c5,4,9.6,7.8,14.2,11.5-23.2,20.3-43.7,32.9-39.8,60.9,1.3,9,4,15.6,8.7,20.3s11.3,7.4,20.3,8.7c20.3,2.9,32.6-7.1,45.5-21.7v-6.5c-15.8,17.9-28.7,30-52.2,22.2a27.05,27.05,0,0,1-10.2-6,24.07,24.07,0,0,1-6-10.2c-9.8-29.6,11.8-42.3,36.8-65.2l16.9,4.9c-2.4,2.4-4.2,4.9-6.6,6.4a88.48,88.48,0,0,0-19.3,17.8,53.72,53.72,0,0,0-7.9,14,14.1,14.1,0,0,0,18.2,18.2,52.15,52.15,0,0,0,14-7.9,87.07,87.07,0,0,0,16.2-17v-6.4c-3.8,4.4-9.3,10.3-17.4,19a29.14,29.14,0,0,1-15.1,8.6c-4.1.9-7.6,0-9.9-2.3s-3.2-5.8-2.3-9.9a28.38,28.38,0,0,1,8.6-15.1c23.5-21.8,26.1-24.7,36.1-27.2v-5.5c-7.4,1.3-15.6.1-25.4-4.6-15.5-7.5-25.3-20-29-37.1-3.1-14.8.1-28.1,10.5-38.9,9.6-10,22.6-15.5,34-22.5,3.5,3,6.7,5.8,9.8,8.5V81.3a21.73,21.73,0,0,1-7.5-14.7c-1.3-12.6.8-24.7,7.5-33.8V26a64.59,64.59,0,0,0-13.5,24.4,9,9,0,0,1-2.8,4.3c-7.6,5.9-16.2,9.7-25.1,13.1-12,4.5-22.5,2.4-32.3-5.5a14.61,14.61,0,0,1-4.4-5.6,13.84,13.84,0,0,1-.9-7.1c1.3-12.5,7.3-21.4,19-26.8,8.7-4,17.5-7.3,27-8.5a8.48,8.48,0,0,1,5.1,1.1c8.6,4.8,17.8,7.1,28,7.8V18.7c-13.5.3-25.6-7.2-35-18.7h-8c2.2,3.2,4.4,6.5,6.9,10-1.7.5-3.2.7-4.5,1.2-22.6,9-42.9,11.9-42.6,42.1a14,14,0,0,0,1.2,4.9,13.66,13.66,0,0,0,2.6,4.3c21.1,21.5,37.5,9.3,59.9-.4,1.3-.6,2.5-1.4,4.1-2.3,1.2,6.4,2.3,12.1,3.4,17.9-18.2,10.4-32.4,20-47.1,19.4-20-.8-35.3-14.1-42.2-30.9s-5.5-37,8-51.7c6.7-7.3,16.6-11.1,28.6-14.6H191.4c2.8.8,7.6,2.3,16.3,5-4,4.2-8.1,8.6-12.3,13a10.69,10.69,0,0,1-3.7,2.7c-15.7,6.3-36.2,16.1-52.5,11.6-8.8-2.4-13.7-16,8-24.8,11-4.4,22.6-5.7,34-7.4h-24c-13.7,2.9-31.7,11.3-29.1,24.8,1.4,7.2,5.9,10.6,12.7,12.3,13.1,3.2,25.9-2.5,49.1-10.7-1.4,5.8-2.6,10.9-4,16.7-18.1,5.9-55.8,28.4-77.8-3.5-7.6-11.1-4-28.6,7.6-39.6h-6c-5.2,6-8.8,14-9.9,24.8-.7,6.9,1.7,13.6,6.4,19.4,23.2,28.1,52,13.2,80,3.3,1,6.3,2,12,2.9,18a15.1,15.1,0,0,1-2.6,2c-12.4,5.5-24.8,11.1-37.3,16.3-16.3,6.7-31.4,4.3-45.4-6.3C87.6,65.4,80.5,48.2,77.6,28.8c-.9-6.2-.4-12.5-.4-18.8A32.73,32.73,0,0,1,78.8,0H72.5a18,18,0,0,0-1.4,5.4c-.6,5.7-3.3,7.7-8.9,8.8C41.5,18.3,24,16.2,0,4.1V8.6c31.1,15.2,46.7,12.3,68.6,8.7.5,7.4,1,14.3,1.5,21.9C45,47.9,23.9,45.7,0,35.5v5.7C12.8,46,25.8,49.4,39.7,50A133.84,133.84,0,0,0,5.3,83.2c-1.8-.8-3.6-1.5-5.3-2.3v4.4l2.4,1.2C1.6,87.8.8,89.1,0,90.3v11.1c4.9-8.4,7.9-12.3,13.4-20C36.2,50,62.6,46.1,71.2,43.7c3.1,6.6,6.2,13.1,9.5,19.8a21.58,21.58,0,0,1-3.4,1.7C37.7,77.5,25.6,105.1,5.7,141.3c-1.4,2.6-2,4.2-1.6,5.4s2,1.9,4.9,2.7c39.7,11.5,67.7,22.5,104.4,3.1a25.33,25.33,0,0,1,3.6-1.2c2.5,7.1,4.9,13.8,7.3,20.7-7.8,4.4-29.2,20.4-67.5,14.3-16.4-2.6-19.1-2.7-56.9-14.5v8c3.7,1,8.4,2.3,14.5,4.1-3.3,11.2-6.7,22.1-9.8,33.2-1.4,5-3.1,10-4.8,15V246c7.2-20.7,12.9-41.1,22-60.8,8.1,1.9,15.7,3.6,23.6,5.4-2.2,7.1-4.5,11.6-12.7,32.7a30.75,30.75,0,0,0-.9,5.8C45.3,231.1,58,233,71,235c-2.4,7.8-4.7,15.2-7.2,23.2C42.4,256,21.7,251,0,246.6v4.3c20.7,4.8,41.2,9.5,61.1,14.1C56.6,284.7,52.3,303.6,47.8,323.4Zm126.9,61.1c-21.3,3.7-42.7,3.9-64.6,5.4,1.5-21.9,1.8-43.3,5.4-64.6,8.2-.3,15.8-.6,24.2-1-.5,9-2,17.2-3.7,34.1-.3,2.9-.4,4.5.4,5.2s2.3.7,5.2.4c16.8-1.7,25-3.2,34.1-3.7C175.4,368.6,175.1,376.3,174.7,384.5Zm2-28.7c-11.9,1.5-23.7,2.9-37.1,4.6,1.7-13.4,3.1-25.2,4.6-37.1,16.5-1.3,31.4-5.9,46.8-14.3A114.6,114.6,0,0,0,176.7,355.8Zm53.9-253.2c6,.1,12.1.3,17.8.5-9.7,18.2-9.5,18.1-10.5,18.9-11,7.8-21.3,16.8-33.9,22.1-21.6,9.1-27.7-3.9-23.2-11.9,8.3-14.7,29.7-22.2,45.3-28.9A11.2,11.2,0,0,1,230.6,102.6Zm-9.9-2c-22.2,10.6-35.4,15.7-42.3,27.2-3.6,6-4.4,11.6-.3,17.7,7.7,11.4,26.3,4.5,38.1-3.1,6.8-4.4,13.3-9.1,20.6-14.1.2,6.1.3,11.4.5,17.1-9.9,7.1-24.1,17-35,22.5-20.4,10.2-45.6-1.3-48.8-18.8-7-38.1,35.6-48.9,52.5-57.5C211.1,94.8,215.6,97.5,220.7,100.6Zm-104,41.9a5.17,5.17,0,0,1-3.1,5.5c-33.2,16.8-53,12-90.8,1.7-4.5-1.2-8.9-3-14.1-4.8h0c2.4-4.9,4.3-9.2,6.6-13.3,19.4-34,30.1-51.4,65.4-63a5,5,0,0,1,6,1.7c18.1,20.4,30,19.6,38.3,22.2.2,0,.2.4.6,1-15.7,6.9-28.3,11.9-45.3,19.4-9.4,4.1-18.7,7.4-29.3,6.9-7.4-.3-14.4,2.1-18.2,9.5-1.2,2.4-1.5,4.3-.8,5.9s2.2,2.8,4.8,3.6c7.9,2.6,14.5-.7,19.6-6.1,7.2-7.8,16.1-12.1,25.6-15.8,17.3-6.8,29.8-12.1,45.8-18.3.2.7.4,1,.3,1.1C124.1,107.4,115.1,115.3,116.7,142.5Zm6.9-17.2c2.5-17.3,11.4-29.8,27.7-36.5,12.5-5.2,25.2-9.9,37.9-14.8a16.33,16.33,0,0,1,3.3-.5c3.5,4.9,6.9,9.6,10.7,14.8-26.8,12.7-57.7,22.6-54.2,58.9.7,7.5,3.8,13.9,9.2,18.3,30.1,24.4,56.3,1.5,80.7-15.8,2.6,6.1,4.8,11.2,7.2,16.6a14.55,14.55,0,0,1-1.5,2c-11.7,9.5-23.2,19.4-35.4,28.4a38.39,38.39,0,0,1-31,6.7c-9.3-1.9-18.5-4.5-25.6-11.5-4.4-4.4-9.3-8.6-13-13.6C127.9,162.6,120.7,145.4,123.6,125.3Zm10.9,141.5c5-10.1,13.1-17,21.9-23.4,16.6-12.1,29.2-22.5,39.2-29.4-7,16.8-3.8,32.8,1.5,49.2-34.8,29-40.1,26-99.3,26.9-1.7,0-3.3-.6-5.3-.9,10.2-52.3,21.6-73.1,46.6-89.8,4.7-3.2,8-3.7,12.5-.1,2.6,2.1,6,3.2,9,4.7,7.5,3.6,15.2,5.6,23.6,4.9,2.6-.2,5.3.1,9,.1-11.3,8.7-21.9,16.4-32,24.7-11,9-21.6,18.3-36.3,21.5a16.92,16.92,0,0,0-12.5,10.5C106.5,281.1,128.4,279.3,134.5,266.8ZM36.1,225.7c5-12.5,9.4-23.5,13.9-34.7a136.25,136.25,0,0,0,47.7-.8c-11.1,12-18.5,26-24.7,40.9C60.8,229.3,49.2,227.6,36.1,225.7Zm90.8-49.4c5,5.7,9.5,10.9,14.4,16.5-23.9,17.2-39.2,27.3-52.8,94.9-1,5.1-.1,6.1,4.8,6.4,70.5,4.6,81.3-9.1,105.5-25.9,4.1,5.8,8.1,11.6,12.3,17.6-6.5,7.1-12.8,13.9-21.1,18.4-12.2,6.6-25,11.5-39,13a333,333,0,0,1-55.6,1.2c-11.9-.7-23.9-1.5-36.7-2.3.8-6.2,1.2-11.2,2.2-16C75,232.9,84.4,196.9,126.9,176.3Z" style="fill:url(#linear-gradient-2)"/><path d="M300,0h-1.6c.5.1,1.1.1,1.6.2Z" style="fill:url(#linear-gradient-3)"/><path d="M1141.2,316.1c-12.8.8-24.7,1.6-36.7,2.3a333,333,0,0,1-55.6-1.2c-14-1.5-26.8-6.4-39-13-8.3-4.5-14.6-11.2-21.1-18.4,4.2-6,8.2-11.8,12.3-17.6,24.2,16.7,35,30.5,105.5,25.9,5-.3,5.9-1.4,4.8-6.4-13.7-67.6-28.9-77.8-52.8-94.9,4.9-5.6,9.4-10.8,14.4-16.5,42.4,20.6,51.9,56.6,65.9,123.8C1140.1,304.9,1140.4,309.9,1141.2,316.1Z" style="fill:none"/><path d="M900,18.7V.2a8.75,8.75,0,0,0,1.6-.2H935C925.6,11.4,913.5,18.9,900,18.7Z" style="fill:none"/><path d="M1060.7,32.2c-16.2,4.5-36.7-5.3-52.5-11.6a12.15,12.15,0,0,1-3.7-2.7c-4.2-4.3-8.3-8.8-12.3-13,8.7-2.6,13.5-4.1,16.3-5h10.2c11.5,1.7,23,3,33.9,7.4C1074.3,16.3,1069.4,29.8,1060.7,32.2Z" style="fill:none"/><path d="M1001.4,66.3c-6.9,16.8-22.3,30.1-42.2,30.9-14.7.6-28.8-9.1-47.1-19.4,1.1-5.8,2.2-11.5,3.4-17.9a36.3,36.3,0,0,0,4.1,2.3c22.4,9.6,38.8,21.9,59.9.4a13.66,13.66,0,0,0,2.6-4.3,14,14,0,0,0,1.2-4.9c.3-30.1-20-33.1-42.6-42.1a36.12,36.12,0,0,0-4.5-1.2c2.4-3.5,4.7-6.8,6.9-10h21.8c12,3.4,21.9,7.3,28.6,14.6C1006.9,29.2,1008.3,49.5,1001.4,66.3Z" style="fill:none"/><path d="M1091.9,39.6c-22,31.9-59.7,9.4-77.8,3.5-1.4-5.8-2.6-10.9-4-16.7,23.2,8.2,36.1,13.9,49.1,10.7,6.8-1.7,11.3-5.1,12.7-12.3,2.6-13.5-15.4-21.8-29.1-24.8h41.5C1095.9,11,1099.6,28.5,1091.9,39.6Z" style="fill:none"/><path d="M1129.9,39.2c.5-7.6,1-14.5,1.5-21.9,21.9,3.6,37.5,6.5,68.6-8.7V35.4C1176.1,45.7,1155,47.9,1129.9,39.2Z" style="fill:none"/><path d="M1137.8,14.2c-5.6-1.1-8.3-3.1-8.9-8.8a26.86,26.86,0,0,0-1.4-5.4H1200V4.1C1176,16.2,1158.5,18.3,1137.8,14.2Z" style="fill:none"/><path d="M1160.3,50c13.9-.6,26.9-4,39.7-8.8V80.9c-1.8.8-3.6,1.5-5.3,2.3A133.84,133.84,0,0,0,1160.3,50Z" style="fill:none"/><path d="M1122.4,28.8c-2.8,19.3-9.9,36.5-26.2,48.8-14,10.5-29.1,13-45.4,6.3-12.5-5.2-24.9-10.8-37.3-16.3a12.05,12.05,0,0,1-2.6-2c1-6,1.9-11.7,2.9-18,27.9,9.9,56.8,24.8,80-3.3,4.8-5.8,7.1-12.5,6.4-19.4-1.1-10.9-4.7-18.8-9.9-24.8h30.9a33.23,33.23,0,0,1,1.6,10C1122.7,16.3,1123.2,22.7,1122.4,28.8Z" style="fill:none"/><path d="M944.7,232.6c.9,4.1,0,7.6-2.3,9.9s-5.8,3.2-9.9,2.3a28.38,28.38,0,0,1-15.1-8.6c-8.1-8.8-13.6-14.6-17.4-19V190.3c10,2.5,12.6,5.4,36.1,27.2A28.38,28.38,0,0,1,944.7,232.6Z" style="fill:none"/><path d="M933.1,14.3c9.5,1.2,18.3,4.6,27,8.5,11.7,5.3,17.6,14.2,19,26.8a13.39,13.39,0,0,1-5.3,12.7c-9.8,7.9-20.3,10-32.3,5.5-9-3.3-17.6-7.2-25.1-13.1a8.32,8.32,0,0,1-2.8-4.3A64.59,64.59,0,0,0,900.1,26V23.1c10.2-.7,19.4-3,28-7.8A8.53,8.53,0,0,1,933.1,14.3Z" style="fill:none"/><path d="M919.6,153.1c-6.5,3.2-13.1,4.6-19.6,3.4V100.8c7,4.9,14.1,9.7,20.4,15.3C929.1,123.9,932.4,146.9,919.6,153.1Z" style="fill:none"/><path d="M945.5,274.4c9-1.3,15.6-4,20.3-8.7s7.4-11.3,8.7-20.3c4-28.1-16.5-40.7-39.8-60.9,4.5-3.7,9.2-7.4,14.2-11.5a15,15,0,0,1,3.4,1.6c12.2,8.9,24.6,17.6,36.3,27.1,14.7,12,20.8,40.5,1.8,68a75.73,75.73,0,0,1-9.3,11.3,80,80,0,0,1-11.3,9.3c-27.5,18.9-56,12.9-68-1.8-.6-.7-1.2-1.5-1.8-2.2V252.7C912.9,267.3,925.1,277.3,945.5,274.4Z" style="fill:none"/><path d="M907.5,66.5A21.73,21.73,0,0,1,900,81.2V32.7C906.7,41.9,908.9,53.9,907.5,66.5Z" style="fill:none"/><path d="M943.8,104.2c10.4,10.8,13.7,24.1,10.5,38.9-3.6,17.1-13.5,29.6-29,37.1-9.7,4.7-18,5.9-25.4,4.6V160.9c9.2,1.3,18.6-1.6,26.1-6.7a11.72,11.72,0,0,0,4-6.1c4-12.2,2.2-28.4-10-37.3-6.8-4.9-13.3-10.2-20.2-15.6V90.1c3.1-2.7,6.4-5.5,9.8-8.5C921.3,88.6,934.2,94.1,943.8,104.2Z" style="fill:none"/><path d="M916.2,240.5a53.72,53.72,0,0,0,14,7.9,14.1,14.1,0,0,0,18.2-18.2,52.15,52.15,0,0,0-7.9-14,86.09,86.09,0,0,0-19.3-17.8c-2.4-1.6-4.1-4-6.6-6.4,5.6-1.6,10.7-3.1,16.9-4.9,25.1,22.9,46.6,35.6,36.8,65.2a27.05,27.05,0,0,1-6,10.2,24.07,24.07,0,0,1-10.2,6c-23.6,7.8-36.4-4.3-52.2-22.2V223.6A93.2,93.2,0,0,0,916.2,240.5Z" style="fill:none"/><path d="M1046.5,149.2c-3.2,17.5-28.4,29-48.8,18.8-10.9-5.4-25.1-15.3-35-22.5.2-5.7.3-11.1.5-17.1,7.3,5,13.8,9.7,20.6,14.1,11.7,7.6,30.4,14.4,38.1,3.1,4.1-6,3.3-11.7-.3-17.7-7-11.5-20.1-16.5-42.3-27.2,5.1-3.1,9.6-5.9,14.7-9C1011,100.3,1053.5,111.1,1046.5,149.2Z" style="fill:none"/><path d="M1072.2,98.6c15.9,6.2,28.4,11.6,45.8,18.3,9.5,3.7,18.5,8,25.6,15.8,5,5.5,11.6,8.7,19.6,6.1q3.75-1.2,4.8-3.6c.7-1.6.4-3.6-.8-5.9-3.8-7.4-10.8-9.8-18.2-9.5-10.6.4-20-2.8-29.3-6.9-17-7.5-29.7-12.5-45.3-19.4.3-.7.4-1,.6-1,8.3-2.6,20.2-1.8,38.3-22.2a5,5,0,0,1,6-1.7c35.3,11.6,46,29,65.4,63,2.3,4.1,4.2,8.4,6.6,13.3h0c-5.2,1.8-9.6,3.5-14.1,4.8-37.8,10.4-57.6,15.1-90.8-1.7-2.3-1.2-3.2-2.8-3.1-5.5,1.7-27.2-7.4-35.1-11.4-42.8C1071.8,99.6,1072,99.3,1072.2,98.6Z" style="fill:none"/><path d="M1075.2,255.3c-14.7-3.1-25.2-12.5-36.3-21.5-10.1-8.3-20.7-16-32-24.7,3.7-.1,6.4-.3,9-.1,8.4.7,16.2-1.3,23.6-4.9,3-1.5,6.4-2.6,9-4.7,4.4-3.6,7.8-3.1,12.5.1,24.9,16.7,36.3,37.5,46.6,89.8a36.73,36.73,0,0,1-5.3.9c-59.2-.9-64.5,2-99.3-26.9,5.2-16.4,8.5-32.5,1.5-49.2,10,6.9,22.5,17.3,39.2,29.4,8.9,6.4,17,13.3,21.9,23.4,6.1,12.5,28,14.3,22.2-1A17.55,17.55,0,0,0,1075.2,255.3Z" style="fill:none"/><path d="M1047.4,191.8c-7,7.1-16.2,9.6-25.6,11.5a38,38,0,0,1-31-6.7c-12.1-9-23.6-18.9-35.4-28.4a14.55,14.55,0,0,1-1.5-2c2.4-5.5,4.6-10.6,7.2-16.6,24.4,17.3,50.6,40.2,80.7,15.8,5.4-4.4,8.5-10.8,9.2-18.3,3.4-36.2-27.5-46.1-54.2-58.9,3.7-5.2,7.1-9.9,10.7-14.8a12,12,0,0,1,3.3.5c12.7,4.9,25.4,9.6,37.9,14.8,16.3,6.7,25.2,19.2,27.7,36.5,2.8,20.1-4.3,37.3-16,53C1056.7,183.2,1051.9,187.4,1047.4,191.8Z" style="fill:none"/><path d="M1102.3,190.1a131.71,131.71,0,0,0,47.7.8c4.5,11.3,8.9,22.3,13.9,34.7-13.1,1.9-24.7,3.6-36.9,5.4C1120.8,216.1,1113.3,202.2,1102.3,190.1Z" style="fill:none"/><path d="M917.2,495.2c10.8,3,21.8,7.4,32.4,10.4,5.2-22.5,10.3-45,15.3-66.7,19.8,4.5,38.6,8.8,58.5,13.3a520.53,520.53,0,0,0,2.5-59.5c5.8-1-5.1-1.3,62.5,1.4.5,0,5.2.7,6.6.8-.1-1.4-.8-6.1-.8-6.6-2.8-67.6-2.4-56.7-1.4-62.5a500.39,500.39,0,0,0,59.5-2.5L1139,264.8c19.9-4.6,40.5-9.3,61.1-14.1V1200H900V490.2C905.7,491.9,911.5,493.6,917.2,495.2Z" style="fill:none"/><path d="M1060.4,360.4c-13.4-1.7-25.2-3.1-37.1-4.6-1.3-16.5-5.9-31.4-14.3-46.8a114.6,114.6,0,0,0,46.8,14.3C1057.3,335.2,1058.7,347,1060.4,360.4Z" style="fill:none"/><path d="M1019.2,132.2c4.5,7.9-1.6,21-23.2,11.9-12.6-5.3-22.9-14.3-33.9-22.1-1-.7-.8-.7-10.5-18.9,5.8-.2,11.8-.4,17.8-.5a11.2,11.2,0,0,1,4.5.7C989.5,110,1010.9,117.6,1019.2,132.2Z" style="fill:none"/><path d="M1185.5,184c6.1-1.7,10.8-3,14.5-4.1v52.3c-1.7-5-3.4-10-4.8-15C1192.1,206.1,1188.8,195.2,1185.5,184Z" style="fill:none"/><path d="M1075.6,172.2c2.4-6.9,4.8-13.6,7.3-20.7a25.33,25.33,0,0,1,3.6,1.2c36.7,19.3,64.8,8.3,104.4-3.1,2.9-.8,4.4-1.5,4.9-2.7s-.1-2.7-1.6-5.4c-19.9-36.1-32-63.8-71.6-76.1a35.92,35.92,0,0,1-3.4-1.7c3.2-6.8,6.3-13.2,9.5-19.8,8.6,2.4,35.1,6.3,57.8,37.7,5.5,7.7,8.5,11.6,13.4,20V172c-37.8,11.8-40.4,11.9-56.9,14.5C1104.8,192.5,1083.4,176.6,1075.6,172.2Z" style="fill:none"/><path d="M1128.8,235.1c13-2,25.7-3.9,39.2-5.9a30.75,30.75,0,0,0-.9-5.8c-8.1-21.1-10.4-25.5-12.7-32.7,7.8-1.8,15.4-3.5,23.6-5.4,9.1,19.7,14.8,40.2,22,60.8v.5c-21.7,4.4-42.4,9.4-64,11.7C1133.5,250.3,1131.2,242.8,1128.8,235.1Z" style="fill:none"/><path d="M1063.6,363.6c.8-.8.7-2.3.4-5.2-1.7-16.8-3.2-25-3.7-34.1,8.4.3,16,.6,24.2,1,3.7,21.3,3.9,42.7,5.4,64.6-21.9-1.5-43.3-1.8-64.6-5.4-.3-8.2-.6-15.8-1-24.2,9,.5,17.2,2,34.1,3.7C1061.3,364.3,1062.8,364.3,1063.6,363.6Z" style="fill:none"/><path d="M1200,85.3v5.1c-.8-1.3-1.6-2.5-2.4-3.8C1198.4,86.1,1199.2,85.7,1200,85.3Z" style="fill:none"/><path d="M903.3,321.9a102.76,102.76,0,0,1-3.3,12.4v-38A37.37,37.37,0,0,1,903.3,321.9Z" style="fill:none"/><path d="M929.2,468c2-13.5,3.9-26.2,5.9-39.2,7.8,2.4,15.2,4.7,23.2,7.2-2.2,21.7-7.3,42.4-11.7,64.1-15.7-5.5-31.3-10.1-46.6-15.9V457.8c4.8,1.9,11.4,4.6,23.4,9.3A30.75,30.75,0,0,0,929.2,468Z" style="fill:none"/><path d="M987.7,411.5c5.1,1,6.1.1,6.4-4.8,4.6-70.5-9.1-81.3-25.9-105.5,5.8-4.1,11.6-8.1,17.6-12.3,7.1,6.5,13.9,12.8,18.4,21.1,6.6,12.2,11.5,25,13,39a333,333,0,0,1,1.2,55.6c-.7,11.9-1.5,23.9-2.3,36.7-6.2-.8-11.2-1.2-16-2.2-46.6-9.8-78.2-17.3-100.1-35.2V368.6C914.1,387,929.9,399.9,987.7,411.5Z" style="fill:none"/><path d="M909,315.9c-.2-2.6.1-5.3.1-9,8.7,11.3,16.4,21.9,24.7,32,9,11,18.3,21.6,21.5,36.3a16.92,16.92,0,0,0,10.5,12.5c15.3,5.9,13.5-16,1-22.2-10.1-5-17-13.1-23.4-21.9-12.1-16.6-22.5-29.2-29.4-39.2,16.8,7,32.8,3.8,49.2-1.5,29,34.8,26,40.1,26.9,99.3,0,1.7-.6,3.3-.9,5.3-51.8-10.1-72.8-21.4-89.3-45.9V347.7c1.8-2.5,2.8-5.5,4.1-8.3A42.42,42.42,0,0,0,909,315.9Z" style="fill:none"/><path d="M925.7,463.9c-9.1-3.6-17.5-7-25.7-10.3V410.3c9.6,6.9,20.1,12.1,31.1,16.7C929.3,439.2,927.6,450.8,925.7,463.9Z" style="fill:none"/><path d="M930.1,148.1a12.35,12.35,0,0,1-4,6.1c-7.5,5.1-16.9,8-26.1,6.7v-4.3c6.5,1.2,13.1-.2,19.6-3.4,12.8-6.2,9.5-29.2.8-36.9-6.3-5.6-13.4-10.5-20.4-15.3V95.3c6.9,5.4,13.4,10.7,20.2,15.6C932.4,119.7,934.1,135.9,930.1,148.1Z" style="fill:url(#linear-gradient-4)"/><path d="M1138.9,264.9c19.9-4.6,40.5-9.3,61.1-14.1v-4.3c-21.7,4.4-42.4,9.4-64,11.7-2.5-8-4.8-15.4-7.2-23.2,13-2,25.7-3.9,39.2-5.9a30.75,30.75,0,0,0-.9-5.8c-8.1-21.1-10.4-25.5-12.7-32.7,7.8-1.8,15.4-3.5,23.6-5.4,9.1,19.7,14.8,40.2,22,60.8V232.1c-1.7-5-3.4-10-4.8-15-3.1-11.1-6.5-22.1-9.8-33.2,6.1-1.7,10.8-3,14.5-4.1v-8c-37.8,11.8-40.4,11.9-56.9,14.5-38.3,6.1-59.8-9.8-67.5-14.3,2.4-6.9,4.8-13.6,7.3-20.7a25.33,25.33,0,0,1,3.6,1.2c36.7,19.3,64.8,8.3,104.4-3.1,2.9-.8,4.4-1.5,4.9-2.7s-.1-2.7-1.6-5.4c-19.9-36.1-32-63.8-71.6-76.1a35.92,35.92,0,0,1-3.4-1.7c3.2-6.8,6.3-13.2,9.5-19.8,8.6,2.4,35.1,6.3,57.8,37.7,5.5,7.7,8.5,11.6,13.4,20V90.3c-.8-1.3-1.6-2.5-2.4-3.8l2.4-1.2V80.9c-1.8.8-3.6,1.5-5.3,2.3A136.78,136.78,0,0,0,1160.2,50c13.9-.6,26.9-4,39.7-8.8V35.5c-23.9,10.2-45,12.4-70.1,3.7.5-7.6,1-14.5,1.5-21.9,21.9,3.6,37.5,6.5,68.6-8.7V4.1c-24,12-41.5,14.2-62.2,10-5.6-1.1-8.3-3.1-8.9-8.8a26.86,26.86,0,0,0-1.4-5.4h-6.3a33.23,33.23,0,0,1,1.6,10c0,6.3.5,12.6-.4,18.8-2.8,19.3-9.9,36.5-26.2,48.8-14,10.5-29.1,13-45.4,6.3-12.5-5.2-24.9-10.8-37.3-16.3a12.05,12.05,0,0,1-2.6-2c1-6,1.9-11.7,2.9-18,27.9,9.9,56.8,24.8,80-3.3,4.8-5.8,7.1-12.5,6.4-19.4C1099,13.9,1095.4,6,1090.2,0h-6c11.6,11,15.3,28.5,7.6,39.6-22,31.9-59.7,9.4-77.8,3.5-1.4-5.8-2.6-10.9-4-16.7,23.2,8.2,36.1,13.9,49.1,10.7,6.8-1.7,11.3-5.1,12.7-12.3,2.6-13.5-15.4-21.8-29.1-24.8h-24c11.5,1.7,23,3,33.9,7.4,21.7,8.8,16.8,22.4,8,24.8-16.2,4.5-36.7-5.3-52.5-11.6a12.15,12.15,0,0,1-3.7-2.7c-4.2-4.3-8.3-8.8-12.3-13,8.7-2.6,13.5-4.1,16.3-5H964.6c12,3.4,21.9,7.3,28.6,14.6,13.5,14.7,15,34.9,8,51.7S978.9,96.3,959,97.1c-14.7.6-28.8-9.1-47.1-19.4,1.1-5.8,2.2-11.5,3.4-17.9a36.3,36.3,0,0,0,4.1,2.3c22.4,9.6,38.8,21.9,59.9.4a13.66,13.66,0,0,0,2.6-4.3,14,14,0,0,0,1.2-4.9c.3-30.1-20-33.1-42.6-42.1A36.12,36.12,0,0,0,936,10c2.4-3.5,4.7-6.8,6.9-10h-8c-9.4,11.4-21.5,18.9-35,18.7v4.5c10.2-.7,19.4-3,28-7.8a9.09,9.09,0,0,1,5.1-1.1c9.5,1.2,18.3,4.6,27,8.5,11.7,5.3,17.6,14.2,19,26.8a13.39,13.39,0,0,1-5.3,12.7c-9.8,7.9-20.3,10-32.3,5.5-9-3.3-17.6-7.2-25.1-13.1a8.32,8.32,0,0,1-2.8-4.3A64.59,64.59,0,0,0,900,26v6.7c6.7,9.1,8.9,21.2,7.5,33.8A21.73,21.73,0,0,1,900,81.2v8.9c3.1-2.7,6.4-5.5,9.8-8.5,11.4,7,24.4,12.5,34,22.5,10.4,10.8,13.7,24.1,10.5,38.9-3.6,17.1-13.5,29.6-29,37.1-9.7,4.7-18,5.9-25.4,4.6v5.5c10,2.5,12.6,5.4,36.1,27.2a29.14,29.14,0,0,1,8.6,15.1c.9,4.1,0,7.6-2.3,9.9s-5.8,3.2-9.9,2.3a28.38,28.38,0,0,1-15.1-8.6c-8.1-8.8-13.6-14.6-17.4-19v6.4a87.07,87.07,0,0,0,16.2,17,53.72,53.72,0,0,0,14,7.9,14.1,14.1,0,0,0,18.2-18.2,52.15,52.15,0,0,0-7.9-14,86.09,86.09,0,0,0-19.3-17.8c-2.4-1.6-4.1-4-6.6-6.4,5.6-1.6,10.7-3.1,16.9-4.9,25.1,22.9,46.6,35.6,36.8,65.2a27.05,27.05,0,0,1-6,10.2,24.07,24.07,0,0,1-10.2,6c-23.6,7.8-36.4-4.3-52.2-22.2v6.5c12.9,14.6,25.1,24.6,45.5,21.7,9-1.3,15.6-4,20.3-8.7s7.4-11.3,8.7-20.3c4-28.1-16.5-40.7-39.8-60.9,4.5-3.7,9.2-7.4,14.2-11.5a15,15,0,0,1,3.4,1.6c12.2,8.9,24.6,17.6,36.3,27.1,14.7,12,20.8,40.5,1.8,68a75.73,75.73,0,0,1-9.3,11.3,80,80,0,0,1-11.3,9.3c-27.5,18.9-56,12.9-68-1.8-.6-.7-1.2-1.5-1.8-2.2v9.8a37.73,37.73,0,0,1,3.3,25.7,102.76,102.76,0,0,1-3.3,12.4v13.6c1.8-2.5,2.8-5.5,4.1-8.3,3.6-7.5,5.6-15.2,4.9-23.6-.2-2.6.1-5.3.1-9,8.7,11.3,16.4,21.9,24.7,32,9,11,18.3,21.6,21.5,36.3a16.92,16.92,0,0,0,10.5,12.5c15.3,5.9,13.5-16,1-22.2-10.1-5-17-13.1-23.4-21.9-12.1-16.6-22.5-29.2-29.4-39.2,16.8,7,32.8,3.8,49.2-1.5,29,34.8,26,40.1,26.9,99.3,0,1.7-.6,3.3-.9,5.3-51.8-10.1-72.8-21.4-89.3-45.9v6.9c14.1,18.4,29.9,31.3,87.7,42.9,5.1,1,6.1.1,6.4-4.8,4.6-70.5-9.1-81.3-25.9-105.5,5.8-4.1,11.6-8.1,17.6-12.3,7.1,6.5,13.9,12.8,18.4,21.1,6.6,12.2,11.5,25,13,39a333,333,0,0,1,1.2,55.6c-.7,11.9-1.5,23.9-2.3,36.7-6.2-.8-11.2-1.2-16-2.2-46.6-9.8-78.2-17.3-100.1-35.2v6.4c9.6,6.9,20.1,12.1,31.1,16.7-1.8,12.2-3.5,23.8-5.4,36.9-9.1-3.6-17.5-7-25.7-10.3v4.2c4.8,1.9,11.4,4.6,23.4,9.3a30.75,30.75,0,0,0,5.8.9c2-13.5,3.9-26.2,5.9-39.2,7.8,2.4,15.2,4.7,23.2,7.2-2.2,21.7-7.3,42.4-11.7,64.1-15.7-5.5-31.3-10.1-46.6-15.9v6c5.7,1.7,11.5,3.4,17.2,5,10.8,3,21.8,7.4,32.4,10.4,5.2-22.5,10.3-45,15.3-66.7,19.8,4.5,38.6,8.8,58.5,13.3a520.53,520.53,0,0,0,2.5-59.5c5.8-1-5.1-1.3,62.5,1.4.5,0,5.2.7,6.6.8-.1-1.4-.8-6.1-.8-6.6-2.8-67.6-2.4-56.7-1.4-62.5a500.39,500.39,0,0,0,59.5-2.5C1147.7,303.6,1143.4,284.7,1138.9,264.9Zm-114.6,95.3c9,.5,17.2,2,34.1,3.7,2.9.3,4.5.4,5.2-.4s.7-2.3.4-5.2c-1.7-16.8-3.2-25-3.7-34.1,8.4.3,16,.6,24.2,1,3.7,21.3,3.9,42.7,5.4,64.6-21.9-1.5-43.3-1.8-64.6-5.4C1024.9,376.3,1024.6,368.6,1024.3,360.2ZM1009,309a114.6,114.6,0,0,0,46.8,14.3c1.5,11.9,2.9,23.7,4.6,37.1-13.4-1.7-25.2-3.1-37.1-4.6A114.6,114.6,0,0,0,1009,309ZM973.9,103.3c15.6,6.7,37,14.2,45.3,28.9,4.5,7.9-1.6,21-23.2,11.9-12.6-5.3-22.9-14.3-33.9-22.1-1-.7-.8-.7-10.5-18.9,5.8-.2,11.8-.4,17.8-.5A11.2,11.2,0,0,1,973.9,103.3ZM994,91.7c17,8.6,59.5,19.4,52.5,57.5-3.2,17.5-28.4,29-48.8,18.8-10.9-5.4-25.1-15.3-35-22.5.2-5.7.3-11.1.5-17.1,7.3,5,13.8,9.7,20.6,14.1,11.7,7.6,30.4,14.4,38.1,3.1,4.1-6,3.3-11.7-.3-17.7-7-11.5-20.1-16.5-42.3-27.2C984.4,97.5,988.9,94.8,994,91.7Zm77.9,8c-.1-.1.1-.4.3-1.1,15.9,6.2,28.4,11.6,45.8,18.3,9.5,3.7,18.5,8,25.6,15.8,5,5.5,11.6,8.7,19.6,6.1q3.75-1.2,4.8-3.6c.7-1.6.4-3.6-.8-5.9-3.8-7.4-10.8-9.8-18.2-9.5-10.6.4-20-2.8-29.3-6.9-17-7.5-29.7-12.5-45.3-19.4.3-.7.4-1,.6-1,8.3-2.6,20.2-1.8,38.3-22.2a5,5,0,0,1,6-1.7c35.3,11.6,46,29,65.4,63,2.3,4.1,4.2,8.4,6.6,13.3h0c-5.2,1.8-9.6,3.5-14.1,4.8-37.8,10.4-57.6,15.1-90.8-1.7-2.3-1.2-3.2-2.8-3.1-5.5C1084.9,115.3,1075.9,107.4,1071.9,99.7Zm-11.4,78.6c-3.7,5-8.6,9.1-13,13.6-7,7.1-16.2,9.6-25.6,11.5a38,38,0,0,1-31-6.7c-12.1-9-23.6-18.9-35.4-28.4a14.55,14.55,0,0,1-1.5-2c2.4-5.5,4.6-10.6,7.2-16.6,24.4,17.3,50.6,40.2,80.7,15.8,5.4-4.4,8.5-10.8,9.2-18.3,3.4-36.2-27.5-46.1-54.2-58.9,3.7-5.2,7.1-9.9,10.7-14.8a12,12,0,0,1,3.3.5c12.7,4.9,25.4,9.6,37.9,14.8,16.3,6.7,25.2,19.2,27.7,36.5C1079.3,145.4,1072.1,162.6,1060.5,178.3Zm27.2,87.5a16.72,16.72,0,0,0-12.5-10.5c-14.7-3.1-25.2-12.5-36.3-21.5-10.1-8.3-20.7-16-32-24.7,3.7-.1,6.4-.3,9-.1,8.4.7,16.2-1.3,23.6-4.9,3-1.5,6.4-2.6,9-4.7,4.4-3.6,7.8-3.1,12.5.1,24.9,16.7,36.3,37.5,46.6,89.8a36.73,36.73,0,0,1-5.3.9c-59.2-.9-64.5,2-99.3-26.9,5.2-16.4,8.5-32.5,1.5-49.2,10,6.9,22.5,17.3,39.2,29.4,8.9,6.4,17,13.3,21.9,23.4C1071.6,279.3,1093.5,281.1,1087.7,265.8Zm39.3-34.7c-6.2-14.9-13.7-28.9-24.7-40.9a131.71,131.71,0,0,0,47.7.8c4.5,11.3,8.9,22.3,13.9,34.7C1150.8,227.6,1139.2,229.3,1127,231.1Zm12.1,69c1,4.8,1.4,9.8,2.2,16-12.8.8-24.7,1.6-36.7,2.3a333,333,0,0,1-55.6-1.2c-14-1.5-26.8-6.4-39-13-8.3-4.5-14.6-11.2-21.1-18.4,4.2-6,8.2-11.8,12.3-17.6,24.2,16.7,35,30.5,105.5,25.9,5-.3,5.9-1.4,4.8-6.4-13.7-67.6-28.9-77.8-52.8-94.9,4.9-5.6,9.4-10.8,14.4-16.5C1115.6,196.9,1125,232.9,1139.1,300.1Z" style="fill:url(#linear-gradient-5)"/><path d="M900,0h1.6c-.5.1-1.1.1-1.6.2Z" style="fill:url(#linear-gradient-6)"/><path d="M1141.2,883.9c-12.8-.8-24.7-1.6-36.7-2.3a333,333,0,0,0-55.6,1.2c-14,1.5-26.8,6.4-39,13-8.3,4.5-14.6,11.2-21.1,18.4,4.2,6,8.2,11.8,12.3,17.6,24.2-16.7,35-30.5,105.5-25.9,5,.3,5.9,1.4,4.8,6.4-13.7,67.6-28.9,77.8-52.8,94.9,4.9,5.6,9.4,10.8,14.4,16.5,42.4-20.6,51.9-56.6,65.9-123.8C1140.1,895.1,1140.4,890.1,1141.2,883.9Z" style="fill:none"/><path d="M900,1181.3v18.5a8.75,8.75,0,0,1,1.6.2H935C925.6,1188.6,913.5,1181.1,900,1181.3Z" style="fill:none"/><path d="M1060.7,1167.8c-16.2-4.5-36.7,5.3-52.5,11.6a12.15,12.15,0,0,0-3.7,2.7c-4.2,4.3-8.3,8.8-12.3,13,8.7,2.6,13.5,4.1,16.3,5h10.2c11.5-1.7,23-3,33.9-7.4C1074.3,1183.7,1069.4,1170.2,1060.7,1167.8Z" style="fill:none"/><path d="M1001.4,1133.7c-6.9-16.8-22.3-30.1-42.2-30.9-14.7-.6-28.8,9.1-47.1,19.4,1.1,5.8,2.2,11.5,3.4,17.9a36.3,36.3,0,0,1,4.1-2.3c22.4-9.6,38.8-21.9,59.9-.4a13.66,13.66,0,0,1,2.6,4.3,14,14,0,0,1,1.2,4.9c.3,30.1-20,33.1-42.6,42.1a36.12,36.12,0,0,1-4.5,1.2c2.4,3.5,4.7,6.8,6.9,10h21.8c12-3.4,21.9-7.3,28.6-14.6C1006.9,1170.8,1008.3,1150.5,1001.4,1133.7Z" style="fill:none"/><path d="M1091.9,1160.4c-22-31.9-59.7-9.4-77.8-3.5-1.4,5.8-2.6,10.9-4,16.7,23.2-8.2,36.1-13.9,49.1-10.7,6.8,1.7,11.3,5.1,12.7,12.3,2.6,13.5-15.4,21.8-29.1,24.8h41.5C1095.9,1189,1099.6,1171.5,1091.9,1160.4Z" style="fill:none"/><path d="M1129.9,1160.8c.5,7.6,1,14.5,1.5,21.9,21.9-3.6,37.5-6.5,68.6,8.7v-26.8C1176.1,1154.3,1155,1152.1,1129.9,1160.8Z" style="fill:none"/><path d="M1137.8,1185.8c-5.6,1.1-8.3,3.1-8.9,8.8a26.86,26.86,0,0,1-1.4,5.4H1200v-4.1C1176,1183.8,1158.5,1181.7,1137.8,1185.8Z" style="fill:none"/><path d="M1160.3,1150c13.9.6,26.9,4,39.7,8.8v-39.7c-1.8-.8-3.6-1.5-5.3-2.3A133.84,133.84,0,0,1,1160.3,1150Z" style="fill:none"/><path d="M1122.4,1171.2c-2.8-19.3-9.9-36.5-26.2-48.8-14-10.5-29.1-13-45.4-6.3-12.5,5.2-24.9,10.8-37.3,16.3a12.05,12.05,0,0,0-2.6,2c1,6,1.9,11.7,2.9,18,27.9-9.9,56.8-24.8,80,3.3,4.8,5.8,7.1,12.5,6.4,19.4-1.1,10.9-4.7,18.8-9.9,24.8h30.9a33.23,33.23,0,0,0,1.6-10C1122.7,1183.7,1123.2,1177.3,1122.4,1171.2Z" style="fill:none"/><path d="M944.7,967.4c.9-4.1,0-7.6-2.3-9.9s-5.8-3.2-9.9-2.3a28.38,28.38,0,0,0-15.1,8.6c-8.1,8.8-13.6,14.6-17.4,19v26.9c10-2.5,12.6-5.4,36.1-27.2A28.38,28.38,0,0,0,944.7,967.4Z" style="fill:none"/><path d="M933.1,1185.7c9.5-1.2,18.3-4.6,27-8.5,11.7-5.3,17.6-14.2,19-26.8a13.39,13.39,0,0,0-5.3-12.7c-9.8-7.9-20.3-10-32.3-5.5-9,3.3-17.6,7.2-25.1,13.1a8.32,8.32,0,0,0-2.8,4.3,64.59,64.59,0,0,1-13.5,24.4v2.9c10.2.7,19.4,3,28,7.8A8.53,8.53,0,0,0,933.1,1185.7Z" style="fill:none"/><path d="M919.6,1046.9c-6.5-3.2-13.1-4.6-19.6-3.4v55.7c7-4.9,14.1-9.7,20.4-15.3C929.1,1076.1,932.4,1053.1,919.6,1046.9Z" style="fill:none"/><path d="M945.5,925.6c9,1.3,15.6,4,20.3,8.7s7.4,11.3,8.7,20.3c4,28.1-16.5,40.7-39.8,60.9,4.5,3.7,9.2,7.4,14.2,11.5a15,15,0,0,0,3.4-1.6c12.2-8.9,24.6-17.6,36.3-27.1,14.7-12,20.8-40.5,1.8-68a75.73,75.73,0,0,0-9.3-11.3,80,80,0,0,0-11.3-9.3c-27.5-18.9-56-12.9-68,1.8-.6.7-1.2,1.5-1.8,2.2v33.6C912.9,932.7,925.1,922.7,945.5,925.6Z" style="fill:none"/><path d="M907.5,1133.5a21.73,21.73,0,0,0-7.5-14.7v48.5C906.7,1158.1,908.9,1146.1,907.5,1133.5Z" style="fill:none"/><path d="M943.8,1095.8c10.4-10.8,13.7-24.1,10.5-38.9-3.6-17.1-13.5-29.6-29-37.1-9.7-4.7-18-5.9-25.4-4.6v23.9c9.2-1.3,18.6,1.6,26.1,6.7a11.72,11.72,0,0,1,4,6.1c4,12.2,2.2,28.4-10,37.3-6.8,4.9-13.3,10.2-20.2,15.6v5.1c3.1,2.7,6.4,5.5,9.8,8.5C921.3,1111.4,934.2,1105.9,943.8,1095.8Z" style="fill:none"/><path d="M916.2,959.5a53.72,53.72,0,0,1,14-7.9,14.1,14.1,0,0,1,18.2,18.2,52.15,52.15,0,0,1-7.9,14,86.09,86.09,0,0,1-19.3,17.8c-2.4,1.6-4.1,4-6.6,6.4,5.6,1.6,10.7,3.1,16.9,4.9,25.1-22.9,46.6-35.6,36.8-65.2a27.05,27.05,0,0,0-6-10.2,24.07,24.07,0,0,0-10.2-6c-23.6-7.8-36.4,4.3-52.2,22.2v22.7A93.2,93.2,0,0,1,916.2,959.5Z" style="fill:none"/><path d="M1046.5,1050.8c-3.2-17.5-28.4-29-48.8-18.8-10.9,5.4-25.1,15.3-35,22.5.2,5.7.3,11.1.5,17.1,7.3-5,13.8-9.7,20.6-14.1,11.7-7.6,30.4-14.4,38.1-3.1,4.1,6,3.3,11.7-.3,17.7-7,11.5-20.1,16.5-42.3,27.2,5.1,3.1,9.6,5.9,14.7,9C1011,1099.7,1053.5,1088.9,1046.5,1050.8Z" style="fill:none"/><path d="M1072.2,1101.4c15.9-6.2,28.4-11.6,45.8-18.3,9.5-3.7,18.5-8,25.6-15.8,5-5.5,11.6-8.7,19.6-6.1q3.75,1.2,4.8,3.6c.7,1.6.4,3.6-.8,5.9-3.8,7.4-10.8,9.8-18.2,9.5-10.6-.4-20,2.8-29.3,6.9-17,7.5-29.7,12.5-45.3,19.4.3.7.4,1,.6,1,8.3,2.6,20.2,1.8,38.3,22.2a5,5,0,0,0,6,1.7c35.3-11.6,46-29,65.4-63,2.3-4.1,4.2-8.4,6.6-13.3h0c-5.2-1.8-9.6-3.5-14.1-4.8-37.8-10.4-57.6-15.1-90.8,1.7-2.3,1.2-3.2,2.8-3.1,5.5,1.7,27.2-7.4,35.1-11.4,42.8C1071.8,1100.4,1072,1100.7,1072.2,1101.4Z" style="fill:none"/><path d="M1075.2,944.7c-14.7,3.1-25.2,12.5-36.3,21.5-10.1,8.3-20.7,16-32,24.7,3.7.1,6.4.3,9,.1,8.4-.7,16.2,1.3,23.6,4.9,3,1.5,6.4,2.6,9,4.7,4.4,3.6,7.8,3.1,12.5-.1,24.9-16.7,36.3-37.5,46.6-89.8a36.73,36.73,0,0,0-5.3-.9c-59.2.9-64.5-2-99.3,26.9,5.2,16.4,8.5,32.5,1.5,49.2,10-6.9,22.5-17.3,39.2-29.4,8.9-6.4,17-13.3,21.9-23.4,6.1-12.5,28-14.3,22.2,1A17.55,17.55,0,0,1,1075.2,944.7Z" style="fill:none"/><path d="M1047.4,1008.2c-7-7.1-16.2-9.6-25.6-11.5a38,38,0,0,0-31,6.7c-12.1,9-23.6,18.9-35.4,28.4a14.55,14.55,0,0,0-1.5,2c2.4,5.5,4.6,10.6,7.2,16.6,24.4-17.3,50.6-40.2,80.7-15.8,5.4,4.4,8.5,10.8,9.2,18.3,3.4,36.2-27.5,46.1-54.2,58.9,3.7,5.2,7.1,9.9,10.7,14.8a12,12,0,0,0,3.3-.5c12.7-4.9,25.4-9.6,37.9-14.8,16.3-6.7,25.2-19.2,27.7-36.5,2.8-20.1-4.3-37.3-16-53C1056.7,1016.8,1051.9,1012.6,1047.4,1008.2Z" style="fill:none"/><path d="M1102.3,1009.9a131.71,131.71,0,0,1,47.7-.8c4.5-11.3,8.9-22.3,13.9-34.7-13.1-1.9-24.7-3.6-36.9-5.4C1120.8,983.9,1113.3,997.8,1102.3,1009.9Z" style="fill:none"/><path d="M917.2,704.8c10.8-3,21.8-7.4,32.4-10.4,5.2,22.5,10.3,45,15.3,66.7,19.8-4.5,38.6-8.8,58.5-13.3a520.53,520.53,0,0,1,2.5,59.5c5.8,1-5.1,1.3,62.5-1.4.5,0,5.2-.7,6.6-.8-.1,1.4-.8,6.1-.8,6.6-2.8,67.6-2.4,56.7-1.4,62.5a500.39,500.39,0,0,1,59.5,2.5L1139,935.2c19.9,4.6,40.5,9.3,61.1,14.1V0H900V709.8C905.7,708.1,911.5,706.4,917.2,704.8Z" style="fill:none"/><path d="M1060.4,839.6c-13.4,1.7-25.2,3.1-37.1,4.6-1.3,16.5-5.9,31.4-14.3,46.8a114.6,114.6,0,0,1,46.8-14.3C1057.3,864.8,1058.7,853,1060.4,839.6Z" style="fill:none"/><path d="M1019.2,1067.8c4.5-7.9-1.6-21-23.2-11.9-12.6,5.3-22.9,14.3-33.9,22.1-1,.7-.8.7-10.5,18.9,5.8.2,11.8.4,17.8.5a11.2,11.2,0,0,0,4.5-.7C989.5,1090,1010.9,1082.4,1019.2,1067.8Z" style="fill:none"/><path d="M1185.5,1016c6.1,1.7,10.8,3,14.5,4.1V967.8c-1.7,5-3.4,10-4.8,15C1192.1,993.9,1188.8,1004.8,1185.5,1016Z" style="fill:none"/><path d="M1075.6,1027.8c2.4,6.9,4.8,13.6,7.3,20.7a25.33,25.33,0,0,0,3.6-1.2c36.7-19.3,64.8-8.3,104.4,3.1,2.9.8,4.4,1.5,4.9,2.7s-.1,2.7-1.6,5.4c-19.9,36.1-32,63.8-71.6,76.1a35.92,35.92,0,0,0-3.4,1.7c3.2,6.8,6.3,13.2,9.5,19.8,8.6-2.4,35.1-6.3,57.8-37.7,5.5-7.7,8.5-11.6,13.4-20V1028c-37.8-11.8-40.4-11.9-56.9-14.5C1104.8,1007.5,1083.4,1023.4,1075.6,1027.8Z" style="fill:none"/><path d="M1128.8,964.9c13,2,25.7,3.9,39.2,5.9a30.75,30.75,0,0,1-.9,5.8c-8.1,21.1-10.4,25.5-12.7,32.7,7.8,1.8,15.4,3.5,23.6,5.4,9.1-19.7,14.8-40.2,22-60.8v-.5c-21.7-4.4-42.4-9.4-64-11.7C1133.5,949.7,1131.2,957.2,1128.8,964.9Z" style="fill:none"/><path d="M1063.6,836.4c.8.8.7,2.3.4,5.2-1.7,16.8-3.2,25-3.7,34.1,8.4-.3,16-.6,24.2-1,3.7-21.3,3.9-42.7,5.4-64.6-21.9,1.5-43.3,1.8-64.6,5.4-.3,8.2-.6,15.8-1,24.2,9-.5,17.2-2,34.1-3.7C1061.3,835.7,1062.8,835.7,1063.6,836.4Z" style="fill:none"/><path d="M1200,1114.7v-5.1c-.8,1.3-1.6,2.5-2.4,3.8C1198.4,1113.9,1199.2,1114.3,1200,1114.7Z" style="fill:none"/><path d="M903.3,878.1a102.76,102.76,0,0,0-3.3-12.4v38A37.37,37.37,0,0,0,903.3,878.1Z" style="fill:none"/><path d="M929.2,732c2,13.5,3.9,26.2,5.9,39.2,7.8-2.4,15.2-4.7,23.2-7.2-2.2-21.7-7.3-42.4-11.7-64.1-15.7,5.5-31.3,10.1-46.6,15.9v26.4c4.8-1.9,11.4-4.6,23.4-9.3A30.75,30.75,0,0,1,929.2,732Z" style="fill:none"/><path d="M987.7,788.5c5.1-1,6.1-.1,6.4,4.8,4.6,70.5-9.1,81.3-25.9,105.5,5.8,4.1,11.6,8.1,17.6,12.3,7.1-6.5,13.9-12.8,18.4-21.1,6.6-12.2,11.5-25,13-39a333,333,0,0,0,1.2-55.6c-.7-11.9-1.5-23.9-2.3-36.7-6.2.8-11.2,1.2-16,2.2-46.6,9.8-78.2,17.3-100.1,35.2v35.3C914.1,813,929.9,800.1,987.7,788.5Z" style="fill:none"/><path d="M909,884.1c-.2,2.6.1,5.3.1,9,8.7-11.3,16.4-21.9,24.7-32,9-11,18.3-21.6,21.5-36.3a16.92,16.92,0,0,1,10.5-12.5c15.3-5.9,13.5,16,1,22.2-10.1,5-17,13.1-23.4,21.9-12.1,16.6-22.5,29.2-29.4,39.2,16.8-7,32.8-3.8,49.2,1.5,29-34.8,26-40.1,26.9-99.3,0-1.7-.6-3.3-.9-5.3-51.8,10.1-72.8,21.4-89.3,45.9v13.9c1.8,2.5,2.8,5.5,4.1,8.3A42.42,42.42,0,0,1,909,884.1Z" style="fill:none"/><path d="M925.7,736.1c-9.1,3.6-17.5,7-25.7,10.3v43.3c9.6-6.9,20.1-12.1,31.1-16.7C929.3,760.8,927.6,749.2,925.7,736.1Z" style="fill:none"/><path d="M930.1,1051.9a12.35,12.35,0,0,0-4-6.1c-7.5-5.1-16.9-8-26.1-6.7v4.3c6.5-1.2,13.1.2,19.6,3.4,12.8,6.2,9.5,29.2.8,36.9-6.3,5.6-13.4,10.5-20.4,15.3v5.7c6.9-5.4,13.4-10.7,20.2-15.6C932.4,1080.3,934.1,1064.1,930.1,1051.9Z" style="fill:url(#linear-gradient-7)"/><path d="M1152.2,876.6a520.53,520.53,0,0,0-59.5-2.5c-1-5.8-1.3,5.1,1.4-62.5,0-.5.7-5.2.8-6.6-1.4.1-6.1.8-6.6.8-67.6,2.8-56.7,2.4-62.5,1.4a500.39,500.39,0,0,0-2.5-59.5L964.8,761c-5-21.7-10.2-44.2-15.3-66.7-10.5,2.9-21.6,7.4-32.4,10.4-5.7,1.6-11.5,3.3-17.2,5v6c15.2-5.9,30.8-10.5,46.6-15.9,4.4,21.7,9.4,42.5,11.7,64.1-8,2.5-15.4,4.8-23.2,7.2-2-13-3.9-25.7-5.9-39.2a30.75,30.75,0,0,0-5.8.9c-12,4.6-18.6,7.4-23.4,9.3v4.2c8.2-3.3,16.6-6.6,25.7-10.3,1.9,13.1,3.6,24.7,5.4,36.9-11,4.6-21.5,9.8-31.1,16.7V796c21.9-17.9,53.5-25.4,100.1-35.2,4.8-1,9.8-1.4,16-2.2.8,12.8,1.6,24.7,2.3,36.7a333,333,0,0,1-1.2,55.6c-1.5,14-6.4,26.8-13,39-4.5,8.3-11.2,14.6-18.4,21.1-6-4.2-11.8-8.2-17.6-12.3,16.7-24.2,30.5-35,25.9-105.5-.3-5-1.4-5.9-6.4-4.8-57.8,11.7-73.6,24.5-87.7,42.9v6.9c16.6-24.4,37.5-35.8,89.3-45.9a36.73,36.73,0,0,1,.9,5.3c-.9,59.2,2,64.5-26.9,99.3-16.4-5.2-32.5-8.5-49.2-1.5,6.9-10,17.3-22.5,29.4-39.2,6.4-8.9,13.3-17,23.4-21.9,12.5-6.1,14.3-28-1-22.2a16.72,16.72,0,0,0-10.5,12.5c-3.1,14.7-12.5,25.2-21.5,36.3-8.3,10.1-16,20.7-24.7,32-.1-3.7-.3-6.4-.1-9,.7-8.4-1.3-16.2-4.9-23.6-1.4-2.8-2.4-5.8-4.1-8.3v13.6a75.54,75.54,0,0,1,3.3,12.4,38.39,38.39,0,0,1-3.3,25.7v9.8c.6-.7,1.2-1.5,1.8-2.2,12-14.7,40.5-20.8,68-1.8a75.73,75.73,0,0,1,11.3,9.3,80,80,0,0,1,9.3,11.3c18.9,27.5,12.9,56-1.8,68-11.7,9.6-24.1,18.2-36.3,27.1a17.38,17.38,0,0,1-3.4,1.6c-5-4-9.6-7.8-14.2-11.5,23.2-20.3,43.7-32.9,39.8-60.9-1.3-9-4-15.6-8.7-20.3s-11.3-7.4-20.3-8.7c-20.3-2.9-32.6,7.1-45.5,21.7v6.5c15.8-17.9,28.7-30,52.2-22.2a27.05,27.05,0,0,1,10.2,6,24.07,24.07,0,0,1,6,10.2c9.8,29.6-11.8,42.3-36.8,65.2l-16.9-4.9c2.4-2.4,4.2-4.9,6.6-6.4a88.48,88.48,0,0,0,19.3-17.8,53.72,53.72,0,0,0,7.9-14,14.1,14.1,0,0,0-18.2-18.2,52.15,52.15,0,0,0-14,7.9,87.07,87.07,0,0,0-16.2,17v6.4c3.8-4.4,9.3-10.3,17.4-19a29.14,29.14,0,0,1,15.1-8.6c4.1-.9,7.6,0,9.9,2.3s3.2,5.8,2.3,9.9a28.38,28.38,0,0,1-8.6,15.1c-23.5,21.8-26.1,24.7-36.1,27.2v5.5c7.4-1.3,15.6-.1,25.4,4.6,15.5,7.5,25.3,20,29,37.1,3.1,14.8-.1,28.1-10.5,38.9-9.6,10-22.6,15.5-34,22.5-3.5-3-6.7-5.8-9.8-8.5v8.9a21.73,21.73,0,0,1,7.5,14.7c1.3,12.6-.8,24.7-7.5,33.8v6.7a64.59,64.59,0,0,0,13.5-24.4,9,9,0,0,1,2.8-4.3c7.6-5.9,16.2-9.7,25.1-13.1,12-4.5,22.5-2.4,32.3,5.5a14.61,14.61,0,0,1,4.4,5.6,13.84,13.84,0,0,1,.9,7.1c-1.3,12.5-7.3,21.4-19,26.8-8.7,4-17.5,7.3-27,8.5a8.48,8.48,0,0,1-5.1-1.1c-8.6-4.8-17.8-7.1-28-7.8v4.5c13.5-.3,25.6,7.2,35,18.7h8c-2.2-3.2-4.4-6.5-6.9-10,1.7-.5,3.2-.7,4.5-1.2,22.6-9,42.9-11.9,42.6-42.1a14,14,0,0,0-1.2-4.9,13.66,13.66,0,0,0-2.6-4.3c-21.1-21.5-37.5-9.3-59.9.4-1.3.6-2.5,1.4-4.1,2.3-1.2-6.4-2.3-12.1-3.4-17.9,18.2-10.4,32.4-20,47.1-19.4,20,.8,35.3,14.1,42.2,30.9s5.5,37-8,51.7c-6.7,7.3-16.6,11.1-28.6,14.6h43.8c-2.8-.8-7.6-2.3-16.3-5,4-4.2,8.1-8.6,12.3-13a10.69,10.69,0,0,1,3.7-2.7c15.7-6.3,36.2-16.1,52.5-11.6,8.8,2.4,13.7,16-8,24.8-10.8,4.4-22.4,5.7-33.9,7.4h24c13.7-2.9,31.7-11.3,29.1-24.8-1.4-7.2-5.9-10.6-12.7-12.3-13.1-3.2-25.9,2.5-49.1,10.7,1.4-5.8,2.6-10.9,4-16.7,18.1-5.9,55.8-28.4,77.8,3.5,7.6,11.1,4,28.6-7.6,39.6h6c5.2-6,8.8-14,9.9-24.8.7-6.9-1.7-13.6-6.4-19.4-23.2-28.1-52-13.2-80-3.3-1-6.3-2-12-2.9-18a15.1,15.1,0,0,1,2.6-2c12.4-5.5,24.8-11.1,37.3-16.3,16.3-6.7,31.4-4.3,45.4,6.3,16.3,12.2,23.4,29.4,26.2,48.8.9,6.2.4,12.5.4,18.8a32.73,32.73,0,0,1-1.6,10h6.3a18,18,0,0,0,1.4-5.4c.6-5.7,3.3-7.7,8.9-8.8,20.7-4.1,38.2-2,62.2,10v-4.5c-31.1-15.2-46.7-12.3-68.6-8.7-.5-7.4-1-14.3-1.5-21.9,25.1-8.7,46.2-6.5,70.1,3.7v-5.7c-12.8-4.8-25.8-8.2-39.7-8.8a131.89,131.89,0,0,0,34.3-33.2c1.8.8,3.6,1.5,5.3,2.3v-4.4l-2.4-1.2c.8-1.3,1.6-2.6,2.4-3.8v-11.1c-4.9,8.4-7.9,12.3-13.4,20-22.8,31.4-49.2,35.3-57.8,37.7-3.1-6.6-6.2-13.1-9.5-19.8a21.58,21.58,0,0,1,3.4-1.7c39.6-12.3,51.7-39.9,71.6-76.1,1.4-2.6,2-4.2,1.6-5.4s-2-1.9-4.9-2.7c-39.7-11.5-67.7-22.5-104.4-3.1a25.33,25.33,0,0,1-3.6,1.2c-2.5-7.1-4.9-13.8-7.3-20.7,7.8-4.4,29.2-20.4,67.5-14.3,16.4,2.6,19.1,2.7,56.9,14.5v-8c-3.7-1-8.4-2.3-14.5-4.1,3.3-11.2,6.7-22.1,9.8-33.2,1.4-5,3.1-10,4.8-15V953.9c-7.2,20.7-12.9,41.1-22,60.8-8.1-1.9-15.7-3.6-23.6-5.4,2.2-7.1,4.5-11.6,12.7-32.7a30.75,30.75,0,0,0,.9-5.8c-13.5-2-26.2-3.9-39.2-5.9,2.4-7.8,4.7-15.2,7.2-23.2,21.6,2.2,42.3,7.2,64,11.7v-4.3c-20.7-4.8-41.2-9.5-61.1-14.1C1143.4,915.3,1147.7,896.4,1152.2,876.6Zm-126.9-61.1c21.3-3.7,42.7-3.9,64.6-5.4-1.5,21.9-1.8,43.3-5.4,64.6-8.2.3-15.8.6-24.2,1,.5-9,2-17.2,3.7-34.1.3-2.9.4-4.5-.4-5.2s-2.3-.7-5.2-.4c-16.8,1.7-25,3.2-34.1,3.7C1024.6,831.4,1024.9,823.7,1025.3,815.5Zm-2,28.7c11.9-1.5,23.7-2.9,37.1-4.6-1.7,13.4-3.1,25.2-4.6,37.1-16.5,1.3-31.4,5.9-46.8,14.3A114.6,114.6,0,0,0,1023.3,844.2Zm-53.9,253.2c-6-.1-12.1-.3-17.8-.5,9.7-18.2,9.5-18.1,10.5-18.9,11-7.8,21.3-16.8,33.9-22.1,21.6-9.1,27.7,3.9,23.2,11.9-8.3,14.7-29.7,22.2-45.3,28.9A11.2,11.2,0,0,1,969.4,1097.4Zm9.9,2c22.2-10.6,35.4-15.7,42.3-27.2,3.6-6,4.4-11.6.3-17.7-7.7-11.4-26.3-4.5-38.1,3.1-6.8,4.4-13.3,9.1-20.6,14.1-.2-6.1-.3-11.4-.5-17.1,9.9-7.1,24.1-17,35-22.5,20.4-10.2,45.6,1.3,48.8,18.8,7,38.1-35.6,48.9-52.5,57.5C988.9,1105.2,984.4,1102.5,979.3,1099.4Zm104-41.9a5.17,5.17,0,0,1,3.1-5.5c33.2-16.8,53-12,90.8-1.7,4.5,1.2,8.9,3,14.1,4.8h0c-2.4,4.9-4.3,9.2-6.6,13.3-19.4,34-30.1,51.4-65.4,63a5,5,0,0,1-6-1.7c-18.1-20.4-30-19.6-38.3-22.2-.2,0-.2-.4-.6-1,15.7-6.9,28.3-11.9,45.3-19.4,9.4-4.1,18.7-7.4,29.3-6.9,7.4.3,14.4-2.1,18.2-9.5,1.2-2.4,1.5-4.3.8-5.9s-2.2-2.8-4.8-3.6c-7.9-2.6-14.5.7-19.6,6.1-7.2,7.8-16.1,12.1-25.6,15.8-17.3,6.8-29.8,12.1-45.8,18.3-.2-.7-.4-1-.3-1.1C1075.9,1092.6,1084.9,1084.7,1083.3,1057.5Zm-6.9,17.2c-2.5,17.3-11.4,29.8-27.7,36.5-12.5,5.2-25.2,9.9-37.9,14.8a16.33,16.33,0,0,1-3.3.5c-3.5-4.9-6.9-9.6-10.7-14.8,26.8-12.7,57.7-22.6,54.2-58.9-.7-7.5-3.8-13.9-9.2-18.3-30.1-24.4-56.3-1.5-80.7,15.8-2.6-6.1-4.8-11.2-7.2-16.6a14.55,14.55,0,0,1,1.5-2c11.7-9.5,23.2-19.4,35.4-28.4a38.39,38.39,0,0,1,31-6.7c9.3,1.9,18.5,4.5,25.6,11.5,4.4,4.4,9.3,8.6,13,13.6C1072.1,1037.4,1079.3,1054.6,1076.4,1074.7Zm-10.9-141.5c-5,10.1-13.1,17-21.9,23.4-16.6,12.1-29.2,22.5-39.2,29.4,7-16.8,3.8-32.8-1.5-49.2,34.8-29,40.1-26,99.3-26.9,1.7,0,3.3.6,5.3.9-10.2,52.3-21.6,73.1-46.6,89.8-4.7,3.2-8,3.7-12.5.1-2.6-2.1-6-3.2-9-4.7-7.5-3.6-15.2-5.6-23.6-4.9-2.6.2-5.3-.1-9-.1,11.3-8.7,21.9-16.4,32-24.7,11-9,21.6-18.3,36.3-21.5a16.92,16.92,0,0,0,12.5-10.5C1093.5,918.9,1071.6,920.7,1065.5,933.2Zm98.4,41.1c-5,12.5-9.4,23.5-13.9,34.7a136.25,136.25,0,0,0-47.7.8c11.1-12,18.5-26,24.7-40.9C1139.2,970.7,1150.8,972.4,1163.9,974.3Zm-90.8,49.4c-5-5.7-9.5-10.9-14.4-16.5,23.9-17.2,39.2-27.3,52.8-94.9,1-5.1.1-6.1-4.8-6.4-70.5-4.6-81.3,9.1-105.5,25.9-4.1-5.8-8.1-11.6-12.3-17.6,6.5-7.1,12.8-13.9,21.1-18.4,12.2-6.6,25-11.5,39-13a333,333,0,0,1,55.6-1.2c11.9.7,23.9,1.5,36.7,2.3-.8,6.2-1.2,11.2-2.2,16C1125,967.1,1115.6,1003.1,1073.1,1023.7Z" style="fill:url(#linear-gradient-8)"/><path d="M900,1200h1.6c-.5-.1-1.1-.1-1.6-.2Z" style="fill:url(#linear-gradient-9)"/><path d="M58.8,883.9c12.8-.8,24.7-1.6,36.7-2.3a333,333,0,0,1,55.6,1.2c14,1.5,26.8,6.4,39,13,8.3,4.5,14.6,11.2,21.1,18.4-4.2,6-8.2,11.8-12.3,17.6-24.2-16.7-35-30.5-105.5-25.9-5,.3-5.9,1.4-4.8,6.4,13.7,67.6,28.9,77.8,52.8,94.9-4.9,5.6-9.4,10.8-14.4,16.5-42.4-20.6-51.9-56.6-65.9-123.8C59.9,895.1,59.6,890.1,58.8,883.9Z" style="fill:none"/><path d="M300,1181.3v18.5a8.75,8.75,0,0,0-1.6.2H265C274.4,1188.6,286.5,1181.1,300,1181.3Z" style="fill:none"/><path d="M139.3,1167.8c16.2-4.5,36.7,5.3,52.5,11.6a12.15,12.15,0,0,1,3.7,2.7c4.2,4.3,8.3,8.8,12.3,13-8.7,2.6-13.5,4.1-16.3,5H181.3c-11.5-1.7-23-3-33.9-7.4C125.7,1183.7,130.6,1170.2,139.3,1167.8Z" style="fill:none"/><path d="M198.6,1133.7c6.9-16.8,22.3-30.1,42.2-30.9,14.7-.6,28.8,9.1,47.1,19.4-1.1,5.8-2.2,11.5-3.4,17.9a36.3,36.3,0,0,0-4.1-2.3c-22.4-9.6-38.8-21.9-59.9-.4a13.66,13.66,0,0,0-2.6,4.3,14,14,0,0,0-1.2,4.9c-.3,30.1,20,33.1,42.6,42.1a36.12,36.12,0,0,0,4.5,1.2c-2.4,3.5-4.7,6.8-6.9,10H235.1c-12-3.4-21.9-7.3-28.6-14.6C193.1,1170.8,191.7,1150.5,198.6,1133.7Z" style="fill:none"/><path d="M108.1,1160.4c22-31.9,59.7-9.4,77.8-3.5,1.4,5.8,2.6,10.9,4,16.7-23.2-8.2-36.1-13.9-49.1-10.7-6.8,1.7-11.3,5.1-12.7,12.3-2.6,13.5,15.4,21.8,29.1,24.8H115.7C104.1,1189,100.4,1171.5,108.1,1160.4Z" style="fill:none"/><path d="M70.1,1160.8c-.5,7.6-1,14.5-1.5,21.9-21.9-3.6-37.5-6.5-68.6,8.7v-26.8C23.9,1154.3,45,1152.1,70.1,1160.8Z" style="fill:none"/><path d="M62.2,1185.8c5.6,1.1,8.3,3.1,8.9,8.8a26.86,26.86,0,0,0,1.4,5.4H0v-4.1C24,1183.8,41.5,1181.7,62.2,1185.8Z" style="fill:none"/><path d="M39.7,1150c-13.9.6-26.9,4-39.7,8.8v-39.7c1.8-.8,3.6-1.5,5.3-2.3A133.84,133.84,0,0,0,39.7,1150Z" style="fill:none"/><path d="M77.6,1171.2c2.8-19.3,9.9-36.5,26.2-48.8,14-10.5,29.1-13,45.4-6.3,12.5,5.2,24.9,10.8,37.3,16.3a12.05,12.05,0,0,1,2.6,2c-1,6-1.9,11.7-2.9,18-27.9-9.9-56.8-24.8-80,3.3-4.8,5.8-7.1,12.5-6.4,19.4,1.1,10.9,4.7,18.8,9.9,24.8H78.9a33.23,33.23,0,0,1-1.6-10C77.3,1183.7,76.8,1177.3,77.6,1171.2Z" style="fill:none"/><path d="M255.3,967.4c-.9-4.1,0-7.6,2.3-9.9s5.8-3.2,9.9-2.3a28.38,28.38,0,0,1,15.1,8.6c8.1,8.8,13.6,14.6,17.4,19v26.9c-10-2.5-12.6-5.4-36.1-27.2A28.38,28.38,0,0,1,255.3,967.4Z" style="fill:none"/><path d="M266.9,1185.7c-9.5-1.2-18.3-4.6-27-8.5-11.7-5.3-17.6-14.2-19-26.8a13.39,13.39,0,0,1,5.3-12.7c9.8-7.9,20.3-10,32.3-5.5,9,3.3,17.6,7.2,25.1,13.1a8.32,8.32,0,0,1,2.8,4.3,64.59,64.59,0,0,0,13.5,24.4v2.9c-10.2.7-19.4,3-28,7.8A8.53,8.53,0,0,1,266.9,1185.7Z" style="fill:none"/><path d="M280.4,1046.9c6.5-3.2,13.1-4.6,19.6-3.4v55.7c-7-4.9-14.1-9.7-20.4-15.3C270.9,1076.1,267.6,1053.1,280.4,1046.9Z" style="fill:none"/><path d="M254.5,925.6c-9,1.3-15.6,4-20.3,8.7s-7.4,11.3-8.7,20.3c-4,28.1,16.5,40.7,39.8,60.9-4.5,3.7-9.2,7.4-14.2,11.5a15,15,0,0,1-3.4-1.6c-12.2-8.9-24.6-17.6-36.3-27.1-14.7-12-20.8-40.5-1.8-68a75.73,75.73,0,0,1,9.3-11.3,80,80,0,0,1,11.3-9.3c27.5-18.9,56-12.9,68,1.8.6.7,1.2,1.5,1.8,2.2v33.6C287.1,932.7,274.9,922.7,254.5,925.6Z" style="fill:none"/><path d="M292.5,1133.5a21.73,21.73,0,0,1,7.5-14.7v48.5C293.3,1158.1,291.1,1146.1,292.5,1133.5Z" style="fill:none"/><path d="M256.2,1095.8c-10.4-10.8-13.7-24.1-10.5-38.9,3.6-17.1,13.5-29.6,29-37.1,9.7-4.7,18-5.9,25.4-4.6v23.9c-9.2-1.3-18.6,1.6-26.1,6.7a11.72,11.72,0,0,0-4,6.1c-4,12.2-2.2,28.4,10,37.3,6.8,4.9,13.3,10.2,20.2,15.6v5.1c-3.1,2.7-6.4,5.5-9.8,8.5C278.7,1111.4,265.8,1105.9,256.2,1095.8Z" style="fill:none"/><path d="M283.8,959.5a53.72,53.72,0,0,0-14-7.9,14.1,14.1,0,0,0-18.2,18.2,52.15,52.15,0,0,0,7.9,14,86.09,86.09,0,0,0,19.3,17.8c2.4,1.6,4.1,4,6.6,6.4-5.6,1.6-10.7,3.1-16.9,4.9-25.1-22.9-46.6-35.6-36.8-65.2a27.05,27.05,0,0,1,6-10.2,24.07,24.07,0,0,1,10.2-6c23.6-7.8,36.4,4.3,52.2,22.2v22.7A93.2,93.2,0,0,0,283.8,959.5Z" style="fill:none"/><path d="M153.5,1050.8c3.2-17.5,28.4-29,48.8-18.8,10.9,5.4,25.1,15.3,35,22.5-.2,5.7-.3,11.1-.5,17.1-7.3-5-13.8-9.7-20.6-14.1-11.7-7.6-30.4-14.4-38.1-3.1-4.1,6-3.3,11.7.3,17.7,7,11.5,20.1,16.5,42.3,27.2-5.1,3.1-9.6,5.9-14.7,9C189,1099.7,146.5,1088.9,153.5,1050.8Z" style="fill:none"/><path d="M127.8,1101.4c-15.9-6.2-28.4-11.6-45.8-18.3-9.5-3.7-18.5-8-25.6-15.8-5-5.5-11.6-8.7-19.6-6.1q-3.75,1.2-4.8,3.6c-.7,1.6-.4,3.6.8,5.9,3.8,7.4,10.8,9.8,18.2,9.5,10.6-.4,20,2.8,29.3,6.9,17,7.5,29.7,12.5,45.3,19.4-.3.7-.4,1-.6,1-8.3,2.6-20.2,1.8-38.3,22.2a5,5,0,0,1-6,1.7c-35.3-11.6-46-29-65.4-63-2.3-4.1-4.2-8.4-6.6-13.3h0c5.2-1.8,9.6-3.5,14.1-4.8,37.8-10.4,57.6-15.1,90.8,1.7,2.3,1.2,3.2,2.8,3.1,5.5-1.7,27.2,7.4,35.1,11.4,42.8C128.2,1100.4,128,1100.7,127.8,1101.4Z" style="fill:none"/><path d="M124.8,944.7c14.7,3.1,25.2,12.5,36.3,21.5,10.1,8.3,20.7,16,32,24.7-3.7.1-6.4.3-9,.1-8.4-.7-16.2,1.3-23.6,4.9-3,1.5-6.4,2.6-9,4.7-4.4,3.6-7.8,3.1-12.5-.1-24.9-16.7-36.3-37.5-46.6-89.8a36.73,36.73,0,0,1,5.3-.9c59.2.9,64.5-2,99.3,26.9-5.2,16.4-8.5,32.5-1.5,49.2-10-6.9-22.5-17.3-39.2-29.4-8.9-6.4-17-13.3-21.9-23.4-6.1-12.5-28-14.3-22.2,1A17.55,17.55,0,0,0,124.8,944.7Z" style="fill:none"/><path d="M152.6,1008.2c7-7.1,16.2-9.6,25.6-11.5a38,38,0,0,1,31,6.7c12.1,9,23.6,18.9,35.4,28.4a14.55,14.55,0,0,1,1.5,2c-2.4,5.5-4.6,10.6-7.2,16.6-24.4-17.3-50.6-40.2-80.7-15.8-5.4,4.4-8.5,10.8-9.2,18.3-3.4,36.2,27.5,46.1,54.2,58.9-3.7,5.2-7.1,9.9-10.7,14.8a12,12,0,0,1-3.3-.5c-12.7-4.9-25.4-9.6-37.9-14.8-16.3-6.7-25.2-19.2-27.7-36.5-2.8-20.1,4.3-37.3,16-53C143.3,1016.8,148.1,1012.6,152.6,1008.2Z" style="fill:none"/><path d="M97.7,1009.9a131.71,131.71,0,0,0-47.7-.8c-4.5-11.3-8.9-22.3-13.9-34.7,13.1-1.9,24.7-3.6,36.9-5.4C79.2,983.9,86.7,997.8,97.7,1009.9Z" style="fill:none"/><path d="M282.8,704.8c-10.8-3-21.8-7.4-32.4-10.4-5.2,22.5-10.3,45-15.3,66.7-19.8-4.5-38.6-8.8-58.5-13.3a520.53,520.53,0,0,0-2.5,59.5c-5.8,1,5.1,1.3-62.5-1.4-.5,0-5.2-.7-6.6-.8.1,1.4.8,6.1.8,6.6,2.8,67.6,2.4,56.7,1.4,62.5a500.39,500.39,0,0,0-59.5,2.5L61,935.2c-19.9,4.6-40.5,9.3-61.1,14.1V0h300V709.8C294.3,708.1,288.5,706.4,282.8,704.8Z" style="fill:none"/><path d="M139.6,839.6c13.4,1.7,25.2,3.1,37.1,4.6,1.3,16.5,5.9,31.4,14.3,46.8a114.6,114.6,0,0,0-46.8-14.3C142.7,864.8,141.3,853,139.6,839.6Z" style="fill:none"/><path d="M180.8,1067.8c-4.5-7.9,1.6-21,23.2-11.9,12.6,5.3,22.9,14.3,33.9,22.1,1.1.7.8.7,10.5,18.9-5.8.2-11.8.4-17.8.5a11.2,11.2,0,0,1-4.5-.7C210.5,1090,189.1,1082.4,180.8,1067.8Z" style="fill:none"/><path d="M14.5,1016c-6.1,1.7-10.8,3-14.5,4.1V967.8c1.7,5,3.4,10,4.8,15C7.9,993.9,11.2,1004.8,14.5,1016Z" style="fill:none"/><path d="M124.4,1027.8c-2.4,6.9-4.8,13.6-7.3,20.7a25.33,25.33,0,0,1-3.6-1.2c-36.7-19.3-64.8-8.3-104.4,3.1-2.9.8-4.4,1.5-4.9,2.7s.1,2.7,1.6,5.4c19.9,36.1,32,63.8,71.6,76.1a35.92,35.92,0,0,1,3.4,1.7c-3.2,6.8-6.3,13.2-9.5,19.8-8.6-2.4-35.1-6.3-57.8-37.7-5.5-7.7-8.5-11.6-13.4-20V1028c37.8-11.8,40.4-11.9,56.9-14.5C95.2,1007.5,116.6,1023.4,124.4,1027.8Z" style="fill:none"/><path d="M71.2,964.9c-13,2-25.7,3.9-39.2,5.9a30.75,30.75,0,0,0,.9,5.8c8.1,21.1,10.4,25.5,12.7,32.7-7.8,1.8-15.4,3.5-23.6,5.4C12.9,995,7.2,974.6,0,953.9v-.5c21.7-4.4,42.4-9.4,64-11.7C66.5,949.7,68.8,957.2,71.2,964.9Z" style="fill:none"/><path d="M136.4,836.4c-.8.8-.7,2.3-.4,5.2,1.7,16.8,3.2,25,3.7,34.1-8.4-.3-16-.6-24.2-1-3.7-21.3-3.9-42.7-5.4-64.6,21.9,1.5,43.3,1.8,64.6,5.4.3,8.2.6,15.8,1,24.2-9-.5-17.2-2-34.1-3.7C138.7,835.7,137.2,835.7,136.4,836.4Z" style="fill:none"/><path d="M0,1114.7v-5.1c.8,1.3,1.6,2.5,2.4,3.8C1.6,1113.9.8,1114.3,0,1114.7Z" style="fill:none"/><path d="M296.7,878.1a102.76,102.76,0,0,1,3.3-12.4v38A37.37,37.37,0,0,1,296.7,878.1Z" style="fill:none"/><path d="M270.8,732c-2,13.5-3.9,26.2-5.9,39.2-7.8-2.4-15.2-4.7-23.2-7.2,2.2-21.7,7.3-42.4,11.7-64.1,15.7,5.5,31.3,10.1,46.6,15.9v26.4c-4.8-1.9-11.4-4.6-23.4-9.3A30.75,30.75,0,0,0,270.8,732Z" style="fill:none"/><path d="M212.3,788.5c-5.1-1-6.1-.1-6.4,4.8-4.6,70.5,9.1,81.3,25.9,105.5-5.8,4.1-11.6,8.1-17.6,12.3-7.1-6.5-13.9-12.8-18.4-21.1-6.6-12.2-11.5-25-13-39a333,333,0,0,1-1.2-55.6c.7-11.9,1.5-23.9,2.3-36.7,6.2.8,11.2,1.2,16,2.2,46.6,9.8,78.2,17.3,100.1,35.2v35.3C285.9,813,270.1,800.1,212.3,788.5Z" style="fill:none"/><path d="M291,884.1c.2,2.6-.1,5.3-.1,9-8.7-11.3-16.4-21.9-24.7-32-9-11-18.3-21.6-21.5-36.3a16.92,16.92,0,0,0-10.5-12.5c-15.3-5.9-13.5,16-1,22.2,10.1,5,17,13.1,23.4,21.9,12.1,16.6,22.5,29.2,29.4,39.2-16.8-7-32.8-3.8-49.2,1.5-29-34.8-26-40.1-26.9-99.3,0-1.7.6-3.3.9-5.3,51.8,10.1,72.8,21.4,89.3,45.9v13.9c-1.8,2.5-2.8,5.5-4.1,8.3A42.42,42.42,0,0,0,291,884.1Z" style="fill:none"/><path d="M274.3,736.1c9.1,3.6,17.5,7,25.7,10.3v43.3c-9.6-6.9-20.1-12.1-31.1-16.7C270.7,760.8,272.4,749.2,274.3,736.1Z" style="fill:none"/><path d="M269.9,1051.9a12.35,12.35,0,0,1,4-6.1c7.5-5.1,16.9-8,26.1-6.7v4.3c-6.5-1.2-13.1.2-19.6,3.4-12.8,6.2-9.5,29.2-.8,36.9,6.3,5.6,13.4,10.5,20.4,15.3v5.7c-6.9-5.4-13.4-10.7-20.2-15.6C267.6,1080.3,265.9,1064.1,269.9,1051.9Z" style="fill:url(#linear-gradient-10)"/><path d="M61.1,935.1c-19.9,4.6-40.5,9.3-61.1,14.1v4.3c21.7-4.4,42.4-9.4,64-11.7,2.5,8,4.8,15.4,7.2,23.2-13,2-25.7,3.9-39.2,5.9a30.75,30.75,0,0,0,.9,5.8c8.1,21.1,10.4,25.5,12.7,32.7-7.8,1.8-15.4,3.5-23.6,5.4C12.9,995,7.2,974.6,0,953.9v13.9c1.7,5,3.4,10,4.8,15,3.1,11.1,6.5,22.1,9.8,33.2-6.1,1.7-10.8,3-14.5,4.1v8c37.8-11.8,40.4-11.9,56.9-14.5,38.3-6.1,59.8,9.8,67.5,14.3-2.4,6.9-4.8,13.6-7.3,20.7a25.33,25.33,0,0,1-3.6-1.2c-36.7-19.3-64.8-8.3-104.4,3.1-2.9.8-4.4,1.5-4.9,2.7s.1,2.7,1.6,5.4c19.9,36.1,32,63.8,71.6,76.1a35.92,35.92,0,0,1,3.4,1.7c-3.2,6.8-6.3,13.2-9.5,19.8-8.6-2.4-35.1-6.3-57.8-37.7-5.5-7.7-8.5-11.6-13.4-20v11.1c.8,1.3,1.6,2.5,2.4,3.8l-2.4,1.2v4.4c1.8-.8,3.6-1.5,5.3-2.3a136.78,136.78,0,0,0,34.3,33.2c-13.9.6-26.9,4-39.7,8.8v5.7c23.9-10.2,45-12.4,70.1-3.7-.5,7.6-1,14.5-1.5,21.9-21.9-3.6-37.5-6.5-68.6,8.7v4.5c24-12,41.5-14.2,62.2-10,5.6,1.1,8.3,3.1,8.9,8.8a26.86,26.86,0,0,0,1.4,5.4h6.3a33.23,33.23,0,0,1-1.6-10c0-6.3-.5-12.6.4-18.8,2.8-19.3,9.9-36.5,26.2-48.8,14-10.5,29.1-13,45.4-6.3,12.5,5.2,24.9,10.8,37.3,16.3a12.05,12.05,0,0,1,2.6,2c-1,6-1.9,11.7-2.9,18-27.9-9.9-56.8-24.8-80,3.3-4.8,5.8-7.1,12.5-6.4,19.4,1.1,10.9,4.7,18.8,9.9,24.8h6c-11.6-11-15.3-28.5-7.6-39.6,22-31.9,59.7-9.4,77.8-3.5,1.4,5.8,2.6,10.9,4,16.7-23.2-8.2-36.1-13.9-49.1-10.7-6.8,1.7-11.3,5.1-12.7,12.3-2.6,13.5,15.4,21.8,29.1,24.8h24c-11.5-1.7-23-3-33.9-7.4-21.7-8.8-16.8-22.4-8-24.8,16.2-4.5,36.7,5.3,52.5,11.6a12.15,12.15,0,0,1,3.7,2.7c4.2,4.3,8.3,8.8,12.3,13-8.7,2.6-13.5,4.1-16.3,5h43.8c-12-3.4-21.9-7.3-28.6-14.6-13.5-14.7-15-34.9-8-51.7s22.3-30.1,42.2-30.9c14.7-.6,28.8,9.1,47.1,19.4-1.1,5.8-2.2,11.5-3.4,17.9a36.3,36.3,0,0,0-4.1-2.3c-22.4-9.6-38.8-21.9-59.9-.4a13.66,13.66,0,0,0-2.6,4.3,14,14,0,0,0-1.2,4.9c-.3,30.1,20,33.1,42.6,42.1a36.12,36.12,0,0,0,4.5,1.2c-2.4,3.5-4.7,6.8-6.9,10h8c9.4-11.4,21.5-18.9,35-18.7v-4.5c-10.2.7-19.4,3-28,7.8a9.09,9.09,0,0,1-5.1,1.1c-9.5-1.2-18.3-4.6-27-8.5-11.7-5.3-17.6-14.2-19-26.8a13.39,13.39,0,0,1,5.3-12.7c9.8-7.9,20.3-10,32.3-5.5,9,3.3,17.6,7.2,25.1,13.1a8.32,8.32,0,0,1,2.8,4.3,64.59,64.59,0,0,0,13.5,24.4v-6.7c-6.7-9.1-8.9-21.2-7.5-33.8a21.73,21.73,0,0,1,7.5-14.7v-8.9c-3.1,2.7-6.4,5.5-9.8,8.5-11.4-7-24.4-12.5-34-22.5-10.4-10.8-13.7-24.1-10.5-38.9,3.6-17.1,13.5-29.6,29-37.1,9.7-4.7,18-5.9,25.4-4.6v-5.5c-10-2.5-12.6-5.4-36.1-27.2a29.14,29.14,0,0,1-8.6-15.1c-.9-4.1,0-7.6,2.3-9.9s5.8-3.2,9.9-2.3a28.38,28.38,0,0,1,15.1,8.6c8.1,8.8,13.6,14.6,17.4,19v-6.4a87.07,87.07,0,0,0-16.2-17,53.72,53.72,0,0,0-14-7.9,14.1,14.1,0,0,0-18.2,18.2,52.15,52.15,0,0,0,7.9,14,86.09,86.09,0,0,0,19.3,17.8c2.4,1.6,4.1,4,6.6,6.4-5.6,1.6-10.7,3.1-16.9,4.9-25.1-22.9-46.6-35.6-36.8-65.2a27.05,27.05,0,0,1,6-10.2,24.07,24.07,0,0,1,10.2-6c23.6-7.8,36.4,4.3,52.2,22.2v-6.5c-12.9-14.6-25.1-24.6-45.5-21.7-9,1.3-15.6,4-20.3,8.7s-7.4,11.3-8.7,20.3c-4,28.1,16.5,40.7,39.8,60.9-4.5,3.7-9.2,7.4-14.2,11.5a15,15,0,0,1-3.4-1.6c-12.2-8.9-24.6-17.6-36.3-27.1-14.7-12-20.8-40.5-1.8-68a75.73,75.73,0,0,1,9.3-11.3,80,80,0,0,1,11.3-9.3c27.5-18.9,56-12.9,68,1.8.6.7,1.2,1.5,1.8,2.2v-9.8a37.73,37.73,0,0,1-3.3-25.7,102.76,102.76,0,0,1,3.3-12.4V852c-1.8,2.5-2.8,5.5-4.1,8.3-3.6,7.5-5.6,15.2-4.9,23.6.2,2.6-.1,5.3-.1,9-8.7-11.3-16.4-21.9-24.7-32-9-11-18.3-21.6-21.5-36.3a16.92,16.92,0,0,0-10.5-12.5c-15.3-5.9-13.5,16-1,22.2,10.1,5,17,13.1,23.4,21.9,12.1,16.6,22.5,29.2,29.4,39.2-16.8-7-32.8-3.8-49.2,1.5-29-34.8-26-40.1-26.9-99.3,0-1.7.6-3.3.9-5.3,51.8,10.1,72.8,21.4,89.3,45.9v-6.9c-14.1-18.4-29.9-31.3-87.7-42.9-5.1-1-6.1-.1-6.4,4.8-4.6,70.5,9.1,81.3,25.9,105.5-5.8,4.1-11.6,8.1-17.6,12.3-7.1-6.5-13.9-12.8-18.4-21.1-6.6-12.2-11.5-25-13-39a333,333,0,0,1-1.2-55.6c.7-11.9,1.5-23.9,2.3-36.7,6.2.8,11.2,1.2,16,2.2,46.6,9.8,78.2,17.3,100.1,35.2v-6.4c-9.6-6.9-20.1-12.1-31.1-16.7,1.8-12.2,3.5-23.8,5.4-36.9,9.1,3.6,17.5,7,25.7,10.3v-4.2c-4.8-1.9-11.4-4.6-23.4-9.3a30.75,30.75,0,0,0-5.8-.9c-2,13.5-3.9,26.2-5.9,39.2-7.8-2.4-15.2-4.7-23.2-7.2,2.2-21.7,7.3-42.4,11.7-64.1,15.7,5.5,31.3,10.1,46.6,15.9v-6c-5.7-1.7-11.5-3.4-17.2-5-10.8-3-21.8-7.4-32.4-10.4-5.2,22.5-10.3,45-15.3,66.7-19.8-4.5-38.6-8.8-58.5-13.3a520.53,520.53,0,0,0-2.5,59.5c-5.8,1,5.1,1.3-62.5-1.4-.5,0-5.2-.7-6.6-.8.1,1.4.8,6.1.8,6.6,2.8,67.6,2.4,56.7,1.4,62.5A500.39,500.39,0,0,0,48,876.6C52.3,896.4,56.6,915.3,61.1,935.1Zm114.6-95.3c-9-.5-17.2-2-34.1-3.7-2.9-.3-4.5-.4-5.2.4s-.7,2.3-.4,5.2c1.7,16.8,3.2,25,3.7,34.1-8.4-.3-16-.6-24.2-1-3.7-21.3-3.9-42.7-5.4-64.6,21.9,1.5,43.3,1.8,64.6,5.4C175.1,823.7,175.4,831.4,175.7,839.8ZM191,891a114.6,114.6,0,0,0-46.8-14.3c-1.5-11.9-2.9-23.7-4.6-37.1,13.4,1.7,25.2,3.1,37.1,4.6A114.6,114.6,0,0,0,191,891Zm35.1,205.7c-15.6-6.7-37-14.2-45.3-28.9-4.5-7.9,1.6-21,23.2-11.9,12.6,5.3,22.9,14.3,33.9,22.1,1.1.7.8.7,10.5,18.9-5.8.2-11.8.4-17.8.5A11.2,11.2,0,0,1,226.1,1096.7ZM206,1108.3c-17-8.6-59.5-19.4-52.5-57.5,3.2-17.5,28.4-29,48.8-18.8,10.9,5.4,25.1,15.3,35,22.5-.2,5.7-.3,11.1-.5,17.1-7.3-5-13.8-9.7-20.6-14.1-11.7-7.6-30.4-14.4-38.1-3.1-4.1,6-3.3,11.7.3,17.7,7,11.5,20.1,16.5,42.3,27.2C215.6,1102.5,211.1,1105.2,206,1108.3Zm-77.9-8c.1.1-.1.4-.3,1.1-15.9-6.2-28.4-11.6-45.8-18.3-9.5-3.7-18.5-8-25.6-15.8-5-5.5-11.6-8.7-19.6-6.1q-3.75,1.2-4.8,3.6c-.7,1.6-.4,3.6.8,5.9,3.8,7.4,10.8,9.8,18.2,9.5,10.6-.4,20,2.8,29.3,6.9,17,7.5,29.7,12.5,45.3,19.4-.3.7-.4,1-.6,1-8.3,2.6-20.2,1.8-38.3,22.2a5,5,0,0,1-6,1.7c-35.3-11.6-46-29-65.4-63-2.3-4.1-4.2-8.4-6.6-13.3h0c5.2-1.8,9.6-3.5,14.1-4.8,37.8-10.4,57.6-15.1,90.8,1.7,2.3,1.2,3.2,2.8,3.1,5.5C115.1,1084.7,124.1,1092.6,128.1,1100.3Zm11.4-78.6c3.7-5,8.6-9.1,13-13.6,7-7.1,16.2-9.6,25.6-11.5a38,38,0,0,1,31,6.7c12.1,9,23.6,18.9,35.4,28.4a14.55,14.55,0,0,1,1.5,2c-2.4,5.5-4.6,10.6-7.2,16.6-24.4-17.3-50.6-40.2-80.7-15.8-5.4,4.4-8.5,10.8-9.2,18.3-3.4,36.2,27.5,46.1,54.2,58.9-3.7,5.2-7.1,9.9-10.7,14.8a12,12,0,0,1-3.3-.5c-12.7-4.9-25.4-9.6-37.9-14.8-16.3-6.7-25.2-19.2-27.7-36.5C120.7,1054.6,127.9,1037.4,139.5,1021.7Zm-27.2-87.5a16.72,16.72,0,0,0,12.5,10.5c14.7,3.1,25.2,12.5,36.3,21.5,10.1,8.3,20.7,16,32,24.7-3.7.1-6.4.3-9,.1-8.4-.7-16.2,1.3-23.6,4.9-3,1.5-6.4,2.6-9,4.7-4.4,3.6-7.8,3.1-12.5-.1-24.9-16.7-36.3-37.5-46.6-89.8a36.73,36.73,0,0,1,5.3-.9c59.2.9,64.5-2,99.3,26.9-5.2,16.4-8.5,32.5-1.5,49.2-10-6.9-22.5-17.3-39.2-29.4-8.9-6.4-17-13.3-21.9-23.4C128.4,920.7,106.5,918.9,112.3,934.2ZM73,968.9c6.2,14.9,13.7,28.9,24.7,40.9A131.71,131.71,0,0,0,50,1009c-4.5-11.3-8.9-22.3-13.9-34.7C49.2,972.4,60.8,970.7,73,968.9Zm-12.1-69c-1-4.8-1.4-9.8-2.2-16,12.8-.8,24.7-1.6,36.7-2.3a333,333,0,0,1,55.6,1.2c14,1.5,26.8,6.4,39,13,8.3,4.5,14.6,11.2,21.1,18.4-4.2,6-8.2,11.8-12.3,17.6-24.2-16.7-35-30.5-105.5-25.9-5,.3-5.9,1.4-4.8,6.4,13.7,67.6,28.9,77.8,52.8,94.9-4.9,5.6-9.4,10.8-14.4,16.5C84.4,1003.1,75,967.1,60.9,899.9Z" style="fill:url(#linear-gradient-11)"/><path d="M300,1200h-1.6c.5-.1,1.1-.1,1.6-.2Z" style="fill:url(#linear-gradient-12)"/></svg>