<svg id="Layer_1" data-name="Layer 1" xmlns="http://www.w3.org/2000/svg" xmlns:xlink="http://www.w3.org/1999/xlink" viewBox="0 0 454.05 644.7"><defs><radialGradient id="Brass_Radial_2" cx="291" cy="562.45" r="68.42" gradientTransform="translate(-178.15 -283.37) scale(1.39 1.44)" gradientUnits="userSpaceOnUse"><stop offset="0.18" stop-color="#ebe4dd"/><stop offset="0.59" stop-color="#d5c088"/><stop offset="1" stop-color="#b38a4c"/></radialGradient><radialGradient id="Brass_Radial_2-2" cx="290.74" cy="225.63" r="25.89" xlink:href="#Brass_Radial_2"/><radialGradient id="Brass_Radial_2-3" cx="235.65" cy="239.55" r="26.51" xlink:href="#Brass_Radial_2"/><radialGradient id="Brass_Radial_2-4" cx="243.17" cy="240.11" r="10.76" xlink:href="#Brass_Radial_2"/><radialGradient id="Brass_Radial_2-5" cx="291" cy="260.62" r="99.06" xlink:href="#Brass_Radial_2"/><radialGradient id="Brass_Radial_2-6" cx="292.62" cy="203.84" r="5.12" xlink:href="#Brass_Radial_2"/><radialGradient id="Brass_Radial_2-7" cx="288.86" cy="203.84" r="5.12" xlink:href="#Brass_Radial_2"/><radialGradient id="Brass_Radial_2-8" cx="345.33" cy="239.55" r="26.51" xlink:href="#Brass_Radial_2"/><radialGradient id="Brass_Radial_2-9" cx="337.8" cy="240.11" r="10.76" xlink:href="#Brass_Radial_2"/><radialGradient id="Brass_Radial_2-10" cx="292.56" cy="634.07" r="157.15" gradientTransform="translate(-180.32 -283.37) scale(1.39 1.44)" xlink:href="#Brass_Radial_2"/></defs><title>bg4</title><path d="M260.08,141.44l.38,1.08a13,13,0,0,1,.48,3.31A13.45,13.45,0,0,1,260,151a14.29,14.29,0,0,1-1.55,2.89,13.36,13.36,0,0,1-2.51,2.67,13.67,13.67,0,0,1-1.64,1.08l-.44.25-.06,0-.08,0h0l-.11,0-.21.09a9.59,9.59,0,0,1-.89.37l-1.07.31-1,.19a14.21,14.21,0,0,1-2.17.11,13.51,13.51,0,0,1-8.45-3.44,12.93,12.93,0,0,1-3-4l-.23-.52a4.12,4.12,0,0,1-.23-.58,11.34,11.34,0,0,1-.4-1.3,13.08,13.08,0,0,1-.39-2.57,16.76,16.76,0,0,1,2.65-9.75,18.51,18.51,0,0,1,7.23-6.57,25.64,25.64,0,0,1,8.83-2.53,33.59,33.59,0,0,1,4.33-.22,36.87,36.87,0,0,1,4.13.23,47.9,47.9,0,0,1,7.42,1.34,49.27,49.27,0,0,1,10.5,4.07c1.2.64,2.13,1.18,2.75,1.56l.95.59-.14.25-1-.53c-.64-.35-1.58-.84-2.8-1.41a49.5,49.5,0,0,0-10.52-3.52,46.84,46.84,0,0,0-7.29-1,39.45,39.45,0,0,0-8.15.3,23.83,23.83,0,0,0-8.15,2.64,16.41,16.41,0,0,0-6.22,6,14,14,0,0,0-1.93,8.3,11.29,11.29,0,0,0,.4,2c.08.34.22.6.32.91,0,.07,0,.14.08.22l.13.26.25.51a10.61,10.61,0,0,0,2.39,3,11.79,11.79,0,0,0,6.69,2.92,10,10,0,0,0,1.73,0l.84-.1.75-.17c.24,0,.57-.19.85-.27l.22-.08.11,0h0c-.12.05,0,0,0,0l0,0,.36-.17a11.17,11.17,0,0,0,1.4-.78,12.39,12.39,0,0,0,2.28-2,13.15,13.15,0,0,0,1.59-2.35,13.38,13.38,0,0,0,1.43-4.5,14.33,14.33,0,0,0,0-3.12l-.18-1.14Z" transform="translate(0)" style="fill:#c7b29a"/><path d="M340.51,132l-.15.5a2.61,2.61,0,0,1-.24.59,3.64,3.64,0,0,1-.44.77,5.29,5.29,0,0,1-1.79,1.66,5.83,5.83,0,0,1-3.19.82,5.67,5.67,0,0,1-2-.4,6,6,0,0,1-1-.52,5,5,0,0,1-.46-.34l-.43-.41a2.8,2.8,0,0,1-.39-.45c-.12-.18-.23-.3-.38-.52s-.18-.35-.28-.52l-.14-.26-.12-.31a6.85,6.85,0,0,1-.49-2.67,7.7,7.7,0,0,1,2.36-5.33,7.59,7.59,0,0,1,2.73-1.66,7.07,7.07,0,0,1,1.66-.35l.76,0c.26,0,.58,0,.87,0a8.14,8.14,0,0,1,3.34,1.1,9.09,9.09,0,0,1,2.7,2.48,11,11,0,0,1,1.66,3.44,11.17,11.17,0,0,1,.38,1.93c0,.33.07.67.07,1v.95s0,.14,0,.11l-.1.92c-.05.31-.14.68-.2,1a11.85,11.85,0,0,1-.65,2,13.09,13.09,0,0,1-2.21,3.48,15.89,15.89,0,0,1-6.86,4.5,20.3,20.3,0,0,1-4.05.89,24.94,24.94,0,0,1-4.14.16,43.57,43.57,0,0,1-8.2-1.17c-2.69-.63-5.32-1.31-8-2.11s-5.31-1.71-7.91-2.7-5.18-2.09-7.72-3.24-5-2.33-7.47-3.48a142.43,142.43,0,0,0-14.57-6.19,50.82,50.82,0,0,0-14.24-2.86l-1.72,0h-.84l-.86,0a32.16,32.16,0,0,0-3.26.35,27.41,27.41,0,0,0-6,1.63,23.49,23.49,0,0,0-9,6.34,21.45,21.45,0,0,0-4.3,7.53,19.56,19.56,0,0,0-.93,5.62,14.78,14.78,0,0,0,0,1.52l0,.52s0-.17-.07-.51a14,14,0,0,1-.16-1.52,18.21,18.21,0,0,1,.56-5.79,22.21,22.21,0,0,1,4-8.07,23.86,23.86,0,0,1,3.89-4,24.36,24.36,0,0,1,5.24-3.2,29.45,29.45,0,0,1,6.33-2,31.69,31.69,0,0,1,3.48-.49l.86-.06.45,0h.45l1.8,0a50,50,0,0,1,14.95,2.59,128.34,128.34,0,0,1,14.93,6.06c2.49,1.15,4.95,2.3,7.47,3.43s5,2.16,7.58,3.13,5.13,1.88,7.72,2.68,5.24,1.5,7.83,2.11a45.83,45.83,0,0,0,7.72,1.22,23.52,23.52,0,0,0,3.76-.07,18.67,18.67,0,0,0,3.57-.72,13.89,13.89,0,0,0,5.92-3.69,10.66,10.66,0,0,0,1.9-2.8,10.47,10.47,0,0,0,.57-1.56c0-.26.13-.48.18-.77l.13-.91,0-.77c0-.27,0-.54,0-.81a9.56,9.56,0,0,0-1.53-4.44,7.39,7.39,0,0,0-2.08-2.09,6.78,6.78,0,0,0-2.6-1c-.23,0-.42-.07-.67-.07h-.76a5.84,5.84,0,0,0-1.27.22,6.33,6.33,0,0,0-4.49,5.57,5.77,5.77,0,0,0,.28,2.26l.08.26.12.26c.09.18.17.36.25.54l.28.41a2.17,2.17,0,0,0,.31.42l.35.37c.12.11.26.21.38.31a5.87,5.87,0,0,0,.82.51,5.3,5.3,0,0,0,1.73.46,5.75,5.75,0,0,0,3-.56,5.13,5.13,0,0,0,1.82-1.45,3.7,3.7,0,0,0,.48-.71,2.69,2.69,0,0,0,.28-.57C340.45,132.18,340.51,132,340.51,132Z" transform="translate(0)" style="fill:#c7b29a"/><path d="M271.43,141.8a2.33,2.33,0,0,0,1.43-1.11,2.61,2.61,0,0,0,.28-1.77,2.24,2.24,0,0,0-.88-1.42,2.16,2.16,0,0,0-.74-.34,2.81,2.81,0,0,0-.86-.12,3.28,3.28,0,0,0-2.74,1.68,4,4,0,0,0-.55,1.61l-.05.5v.43a6.25,6.25,0,0,0,.08.87,4.9,4.9,0,0,0,1.68,2.91,9.57,9.57,0,0,0,3.13,1.74,15.92,15.92,0,0,0,3.62.79c.62.06,1.24.08,1.85.08h.66l.25,0,1-.07c.68,0,1.28-.15,1.91-.23s1.25-.21,1.88-.32,1.25-.27,1.88-.42,1.24-.32,1.86-.5,1.23-.37,1.84-.59,1.22-.42,1.82-.66,1.2-.47,1.79-.75,1.18-.51,1.76-.81q1.74-.85,3.42-1.83c.55-.34,1.11-.66,1.65-1s1.08-.71,1.61-1.09l1.56-1.16,1.51-1.22,1.45-1.29,1.37-1.38.52,2.38c-5-2-9.86-4.25-14.72-6.44S283,125.82,278,124c-2.49-.88-5-1.67-7.58-2.3a50.43,50.43,0,0,0-7.81-1.26,42.46,42.46,0,0,0-7.89.08,32.37,32.37,0,0,0-3.87.69,29,29,0,0,0-3.75,1.16,28.31,28.31,0,0,0-6.87,3.67,68.45,68.45,0,0,0-5.87,5.39,35.08,35.08,0,0,1-6.48,5.23,15,15,0,0,1-4,1.66,12.6,12.6,0,0,1-4.37.29,11.58,11.58,0,0,1-7.68-4,11.22,11.22,0,0,1-2.51-8.45,9,9,0,0,1,1.62-4.18,8.26,8.26,0,0,1,1.53-1.59,8.93,8.93,0,0,1,.9-.63,9.49,9.49,0,0,1,.95-.5,8.41,8.41,0,0,1,4.12-.75,7.49,7.49,0,0,1,2,.47,7.58,7.58,0,0,1,1.78,1.05l-.16.24a7.15,7.15,0,0,0-7.26.08,8,8,0,0,0-.78.51c-.25.2-.45.36-.7.59a6.85,6.85,0,0,0-1.18,1.42,7.6,7.6,0,0,0-1.08,3.48,9.4,9.4,0,0,0,2.37,6.76,9.63,9.63,0,0,0,6.29,3.06,10.56,10.56,0,0,0,3.54-.3,14.89,14.89,0,0,0,3.36-1.43,41.52,41.52,0,0,0,6.17-4.75,66.46,66.46,0,0,1,6.39-5.14,19.66,19.66,0,0,1,1.8-1.06c.63-.33,1.23-.61,1.86-.89a33.19,33.19,0,0,1,3.83-1.41,40,40,0,0,1,7.94-1.55,55.32,55.32,0,0,1,8-.06,69.21,69.21,0,0,1,8,1c2.63.5,5.24,1.15,7.82,1.9a151.45,151.45,0,0,1,15.15,5.4c4.95,2,9.84,4.15,14.8,6l2,.77-1.53,1.6-1.45,1.53L306,139.26l-1.6,1.35c-.54.43-1.1.83-1.66,1.25s-1.14.78-1.71,1.17-1.18.73-1.77,1.1c-1.19.69-2.39,1.36-3.64,1.93-.62.31-1.26.57-1.89.84s-1.27.51-1.92.75-1.29.47-1.94.67-1.31.41-2,.58-1.32.36-2,.49-1.34.29-2,.38-1.34.22-2.05.27-1.41.16-2.06.16l-1,0h-1.08a18.77,18.77,0,0,1-2.12-.2,18.38,18.38,0,0,1-4.09-1.12,11.09,11.09,0,0,1-3.71-2.38,6.9,6.9,0,0,1-2-4.18,9.14,9.14,0,0,1,0-1.17l.06-.61.09-.51a5.57,5.57,0,0,1,.92-2.18,4.85,4.85,0,0,1,1.73-1.55,4,4,0,0,1,2.24-.45,4.06,4.06,0,0,1,1.09.26,3.27,3.27,0,0,1,1,.6,3.24,3.24,0,0,1,.47,4.23,2.68,2.68,0,0,1-1.8,1.09Z" transform="translate(0)" style="fill:#c7b29a"/><path d="M194.25,141.51l-.18,1.14a14.33,14.33,0,0,0,0,3.12,13.38,13.38,0,0,0,1.43,4.5,13.15,13.15,0,0,0,1.59,2.35,12.07,12.07,0,0,0,2.28,2,11.17,11.17,0,0,0,1.4.78l.36.17.05,0,0,0h0l.11,0,.22.08c.27.08.61.23.85.27l.75.17.84.1a10,10,0,0,0,1.73,0,11.79,11.79,0,0,0,6.69-2.92,10.61,10.61,0,0,0,2.39-3l.25-.51.13-.26c0-.08.05-.15.08-.22.1-.31.24-.57.32-.91a11.29,11.29,0,0,0,.4-2,14,14,0,0,0-1.93-8.3,16.41,16.41,0,0,0-6.22-6,23.83,23.83,0,0,0-8.15-2.64,39.45,39.45,0,0,0-8.15-.3,46.68,46.68,0,0,0-7.29,1,49.5,49.5,0,0,0-10.52,3.52c-1.22.57-2.16,1.06-2.8,1.41l-1,.53-.14-.25.95-.59c.62-.38,1.54-.92,2.75-1.56a48.84,48.84,0,0,1,10.5-4.07,47.68,47.68,0,0,1,7.42-1.34,36.87,36.87,0,0,1,4.13-.23,33.59,33.59,0,0,1,4.33.22,25.64,25.64,0,0,1,8.83,2.53,18.51,18.51,0,0,1,7.23,6.57,16.76,16.76,0,0,1,2.65,9.75,13.87,13.87,0,0,1-.39,2.57,11.34,11.34,0,0,1-.4,1.3,4.12,4.12,0,0,1-.23.58l-.23.52a12.93,12.93,0,0,1-3,4,13.53,13.53,0,0,1-8.45,3.44,14.21,14.21,0,0,1-2.17-.11l-1.05-.19-1.07-.31a9.59,9.59,0,0,1-.89-.37l-.21-.09-.11,0h0l-.08,0-.06,0-.44-.25a13.67,13.67,0,0,1-1.64-1.08,13.36,13.36,0,0,1-2.51-2.67,13.81,13.81,0,0,1-1.55-2.89,13.45,13.45,0,0,1-.94-5.16,13,13,0,0,1,.48-3.31l.38-1.08Z" transform="translate(0)" style="fill:#c7b29a"/><path d="M113.54,132s.06.17.19.49a3.15,3.15,0,0,0,.27.57,3.79,3.79,0,0,0,.49.71,5.13,5.13,0,0,0,1.82,1.45,5.75,5.75,0,0,0,3,.56,5.3,5.3,0,0,0,1.73-.46,5.87,5.87,0,0,0,.82-.51c.12-.1.26-.2.38-.31l.35-.37a2.17,2.17,0,0,0,.31-.42l.28-.41c.08-.18.16-.36.25-.54l.12-.26.08-.26a5.77,5.77,0,0,0,.28-2.26,6.33,6.33,0,0,0-4.49-5.57,5.84,5.84,0,0,0-1.27-.22h-.76c-.25,0-.44,0-.67.07a6.78,6.78,0,0,0-2.6,1,7.39,7.39,0,0,0-2.08,2.09,9.56,9.56,0,0,0-1.53,4.44c0,.27,0,.54,0,.81l0,.77.13.91c0,.29.13.51.18.77a10.47,10.47,0,0,0,.57,1.56,10.87,10.87,0,0,0,1.89,2.8,14,14,0,0,0,5.93,3.69,18.67,18.67,0,0,0,3.57.72,23.52,23.52,0,0,0,3.76.07,45.83,45.83,0,0,0,7.72-1.22c2.59-.61,5.26-1.32,7.83-2.11s5.17-1.7,7.72-2.68,5.09-2,7.58-3.13,5-2.28,7.47-3.43a128.34,128.34,0,0,1,14.93-6.06,50,50,0,0,1,14.94-2.59l1.81,0H197l.45,0,.86.06a31.69,31.69,0,0,1,3.48.49,29.45,29.45,0,0,1,6.33,2,24.36,24.36,0,0,1,5.24,3.2,23.86,23.86,0,0,1,3.89,4,22.21,22.21,0,0,1,4,8.07,18.21,18.21,0,0,1,.56,5.79c0,.67-.11,1.18-.16,1.52s-.07.51-.07.51l0-.52a14.78,14.78,0,0,0,.05-1.52,19.29,19.29,0,0,0-.94-5.62,21.26,21.26,0,0,0-4.29-7.53,23.49,23.49,0,0,0-9-6.34,27.41,27.41,0,0,0-6-1.63,32.16,32.16,0,0,0-3.26-.35l-.86,0h-.84l-1.72,0a50.82,50.82,0,0,0-14.24,2.86A142.43,142.43,0,0,0,166,133.86c-2.46,1.15-5,2.34-7.47,3.48s-5.11,2.24-7.72,3.24-5.25,1.89-7.92,2.7-5.32,1.48-8,2.11a43.57,43.57,0,0,1-8.2,1.17,24.9,24.9,0,0,1-4.14-.16,20.56,20.56,0,0,1-4.06-.89,15.92,15.92,0,0,1-6.85-4.5,13.09,13.09,0,0,1-2.21-3.48,11.85,11.85,0,0,1-.65-2c-.06-.35-.16-.72-.2-1l-.1-.92s0-.1,0-.11v-.95c0-.33,0-.67.07-1a10.3,10.3,0,0,1,.38-1.93,11,11,0,0,1,1.66-3.44,8.85,8.85,0,0,1,2.7-2.48,8.14,8.14,0,0,1,3.34-1.1c.29,0,.61-.06.87,0l.76,0a7.07,7.07,0,0,1,1.66.35,7.59,7.59,0,0,1,2.73,1.66A7.7,7.7,0,0,1,125,130a6.85,6.85,0,0,1-.49,2.67l-.12.31-.15.26c-.09.17-.18.35-.28.52s-.25.34-.37.52a2.8,2.8,0,0,1-.39.45l-.43.41c-.15.13-.31.23-.46.34a6,6,0,0,1-1,.52,5.67,5.67,0,0,1-2,.4,5.83,5.83,0,0,1-3.19-.82,5.29,5.29,0,0,1-1.79-1.66,3.64,3.64,0,0,1-.44-.77,2.61,2.61,0,0,1-.24-.59Z" transform="translate(0)" style="fill:#c7b29a"/><path d="M182.56,142.08a2.68,2.68,0,0,1-1.8-1.09,3.13,3.13,0,0,1-.56-2.17,3.08,3.08,0,0,1,1-2.06,3.16,3.16,0,0,1,1-.6,4.07,4.07,0,0,1,1.08-.26,4,4,0,0,1,2.25.45,4.85,4.85,0,0,1,1.73,1.55,5.57,5.57,0,0,1,.92,2.18l.09.51.05.61a7.62,7.62,0,0,1,0,1.17,6.9,6.9,0,0,1-2,4.18,11.09,11.09,0,0,1-3.71,2.38,18.53,18.53,0,0,1-4.09,1.12,18.77,18.77,0,0,1-2.12.2h-1.08l-1,0c-.65,0-1.37-.1-2.06-.16s-1.37-.18-2.05-.27-1.35-.25-2-.38-1.33-.31-2-.49-1.32-.37-2-.58-1.3-.42-1.94-.67-1.29-.47-1.92-.75-1.27-.53-1.89-.84c-1.25-.57-2.45-1.24-3.65-1.93-.58-.37-1.18-.71-1.76-1.1s-1.15-.76-1.71-1.17-1.12-.82-1.66-1.25l-1.6-1.35-1.53-1.44-1.45-1.53-1.53-1.6,2-.77c5-1.88,9.85-4,14.8-6a151.45,151.45,0,0,1,15.15-5.4c2.58-.75,5.19-1.4,7.82-1.9a69.21,69.21,0,0,1,8-1,55.32,55.32,0,0,1,8,.06,40.11,40.11,0,0,1,7.94,1.55,33.89,33.89,0,0,1,3.83,1.41c.63.28,1.23.56,1.86.89a19.66,19.66,0,0,1,1.8,1.06,66.46,66.46,0,0,1,6.39,5.14,41,41,0,0,0,6.17,4.75,14.7,14.7,0,0,0,3.36,1.43,10.56,10.56,0,0,0,3.54.3,9.63,9.63,0,0,0,6.29-3.06,9.4,9.4,0,0,0,2.37-6.76,7.6,7.6,0,0,0-1.08-3.48,6.85,6.85,0,0,0-1.18-1.42c-.25-.23-.45-.39-.7-.59a7.56,7.56,0,0,0-8-.59l-.16-.24a7.58,7.58,0,0,1,1.78-1.05,7.49,7.49,0,0,1,2-.47,8.41,8.41,0,0,1,4.12.75,10.72,10.72,0,0,1,.95.5,8.93,8.93,0,0,1,.9.63,8.57,8.57,0,0,1,1.53,1.59,9,9,0,0,1,1.62,4.18,11.22,11.22,0,0,1-2.51,8.45,11.58,11.58,0,0,1-7.68,4,12.6,12.6,0,0,1-4.37-.29,15,15,0,0,1-4-1.66,35.48,35.48,0,0,1-6.49-5.23,66.88,66.88,0,0,0-5.86-5.39A28.5,28.5,0,0,0,207,122.4a29,29,0,0,0-3.75-1.16,32.37,32.37,0,0,0-3.87-.69,42.46,42.46,0,0,0-7.89-.08,50.43,50.43,0,0,0-7.81,1.26c-2.56.63-5.09,1.42-7.58,2.3-5,1.79-9.82,4-14.69,6.18s-9.74,4.41-14.72,6.44l.52-2.38,1.37,1.38,1.45,1.29,1.51,1.22,1.56,1.16c.53.38,1.07.73,1.61,1.09s1.1.68,1.65,1q1.68,1,3.42,1.83c.58.3,1.17.55,1.76.81s1.19.51,1.79.75,1.2.46,1.82.66,1.22.42,1.84.59,1.23.36,1.86.5,1.25.31,1.88.42,1.27.26,1.88.32,1.23.19,1.91.23l1,.07.25,0h.66c.61,0,1.23,0,1.85-.08a15.92,15.92,0,0,0,3.62-.79A9.57,9.57,0,0,0,185,145a4.9,4.9,0,0,0,1.68-2.91,6.25,6.25,0,0,0,.08-.87v-.43l0-.5a4,4,0,0,0-.55-1.61,3.28,3.28,0,0,0-2.74-1.68,2.81,2.81,0,0,0-.86.12,2.16,2.16,0,0,0-.74.34,2.24,2.24,0,0,0-.88,1.42,2.61,2.61,0,0,0,.28,1.77,2.3,2.3,0,0,0,1.43,1.11Z" transform="translate(0)" style="fill:#c7b29a"/><path d="M265.89,390.64l-.93.72-1.13.88a18.54,18.54,0,0,1-1.61,1.16l-2.09,1.39c-.79.48-1.68.95-2.62,1.49a56.82,56.82,0,0,1-6.79,3.07c-.65.28-1.34.46-2,.7s-1.42.47-2.16.69l-2.29.59c-.77.22-1.58.39-2.41.54A65.15,65.15,0,0,1,231,403.11a81.16,81.16,0,0,1-25.8-3.33,150.15,150.15,0,0,1-28.46-12c-9.69-5.15-19.27-11.64-30-16.17a50.66,50.66,0,0,0-16.87-4.24,32,32,0,0,0-4.38,0c-.36,0-.76,0-1.07.09l-1.14.13c-.74.11-1.41.22-2.13.38a29.7,29.7,0,0,0-4.23,1.24,28.73,28.73,0,0,0-4,1.89,24.21,24.21,0,0,0-6.8,5.71,19.86,19.86,0,0,0-2.44,3.76,19.48,19.48,0,0,0-.9,2.05,20,20,0,0,0-.63,2.17,20.69,20.69,0,0,0-.15,9,18,18,0,0,0,1.46,4.27A15.72,15.72,0,0,0,106,401.8a18,18,0,0,0,1.63,1.5,16.42,16.42,0,0,0,1.82,1.21,14.74,14.74,0,0,0,4.09,1.57,13.46,13.46,0,0,0,8.51-.87,11.9,11.9,0,0,0,3.55-2.44c.24-.27.5-.52.72-.81.1-.13.25-.3.31-.4l.34-.49c.21-.33.35-.58.52-.91a8.77,8.77,0,0,0,.44-1,10.53,10.53,0,0,0-.22-8.42,6.29,6.29,0,0,0-.52-.91l-.07-.12c0,.06,0-.05,0-.07l-.18-.23c-.12-.14-.25-.34-.36-.44a8.23,8.23,0,0,0-1.53-1.31,8.5,8.5,0,0,0-3.87-1.36,8.17,8.17,0,0,0-2,.08,6.59,6.59,0,0,0-1.89.64,6.13,6.13,0,0,0-2.77,2.79c-1.21,2.35-.14,5.44,1.84,7.28s4.85,2.81,7.64,3.39a48.17,48.17,0,0,0,32.52-4.84,59.22,59.22,0,0,0,12.52-9.53c1.86-1.78,3.62-3.59,5.37-5.39a38.25,38.25,0,0,1,5.63-4.84,23.11,23.11,0,0,1,6.36-3.18,14.84,14.84,0,0,1,6.76-.47c.55.09,1.08.26,1.61.39.3.08.51.18.77.27a6.55,6.55,0,0,1,.77.35,8.16,8.16,0,0,1,2.58,2,7.07,7.07,0,0,1,1.48,2.91,7.22,7.22,0,0,1,0,3.17,5.89,5.89,0,0,1-.2.75,3.51,3.51,0,0,1-.26.73l-.14.35-.09.19-.09.16a5,5,0,0,1-.42.64,5.83,5.83,0,0,1-2.34,1.75,5.33,5.33,0,0,1-2.75.44,3.93,3.93,0,0,1-1.33-.4l-.32-.18-.26-.18a3.4,3.4,0,0,1-.52-.49,2.72,2.72,0,0,1-.63-1.27,3.32,3.32,0,0,1,0-1.37,4.71,4.71,0,0,1,1.27-2.19,5.83,5.83,0,0,1,2-1.27,8.3,8.3,0,0,1,2.13-.49,19.17,19.17,0,0,1,3.95,0c1.23.13,2.36.27,3.43.42a14.26,14.26,0,0,1,5.21,1.76,8.86,8.86,0,0,1,2.57,2.33,5.67,5.67,0,0,1,.49.75l.16.26-.27.16-.15-.25a5.79,5.79,0,0,0-.49-.72,8.54,8.54,0,0,0-2.49-2.2,13.91,13.91,0,0,0-5.08-1.65,32.81,32.81,0,0,0-7.27-.37,6.21,6.21,0,0,0-3.77,1.65,4.14,4.14,0,0,0-1.08,1.91,2.22,2.22,0,0,0,.47,2.06,3,3,0,0,0,.41.38l.26.18.25.12a3.23,3.23,0,0,0,1.12.33,4.77,4.77,0,0,0,2.41-.42,5.31,5.31,0,0,0,2-1.56,3.08,3.08,0,0,0,.35-.55L199,383l0-.14.13-.32a3,3,0,0,0,.23-.66,4.83,4.83,0,0,0,.17-.68,6.24,6.24,0,0,0-1.4-5.35,8.35,8.35,0,0,0-5.25-2.68,13.85,13.85,0,0,0-6.33.51,22.55,22.55,0,0,0-6,3.12,37.67,37.67,0,0,0-5.41,4.78c-1.71,1.8-3.48,3.67-5.33,5.48a60.12,60.12,0,0,1-12.69,9.9,49.59,49.59,0,0,1-16,5.57,47.78,47.78,0,0,1-17.59-.23,25.59,25.59,0,0,1-4.44-1.25A14.73,14.73,0,0,1,117,400a10.88,10.88,0,0,1-1-.69c-.18-.13-.33-.25-.47-.37l-.11-.09-.14-.11-.23-.22a9.67,9.67,0,0,1-2.69-4.31,7.87,7.87,0,0,1-.32-2.66c0-.24,0-.5.08-.72l0-.29,0-.14s.05-.19.05-.21a7.27,7.27,0,0,1,.47-1.28,8.13,8.13,0,0,1,3.62-3.73,8.66,8.66,0,0,1,2.44-.86,10,10,0,0,1,2.56-.12,10.55,10.55,0,0,1,4.8,1.64,9.57,9.57,0,0,1,2,1.72c.18.18.26.32.4.48l.18.23.13.17.08.14a8.79,8.79,0,0,1,.68,1.14A12.87,12.87,0,0,1,130,400a12,12,0,0,1-.53,1.21,13.34,13.34,0,0,1-.66,1.18l-.34.5c-.16.24-.28.36-.42.54a11.74,11.74,0,0,1-.86,1,14.2,14.2,0,0,1-4.2,2.95,15.65,15.65,0,0,1-9.93,1.11,17.12,17.12,0,0,1-6.9-3.18,18.18,18.18,0,0,1-1.92-1.72,18.56,18.56,0,0,1-3-4.24,21,21,0,0,1-1.74-4.88,24,24,0,0,1,.75-12.76A23.21,23.21,0,0,1,104,375a27,27,0,0,1,7.52-6.48A32.89,32.89,0,0,1,130,364.21,53.66,53.66,0,0,1,148,368.57a146.18,146.18,0,0,1,15.73,8.1c5,2.87,9.76,5.78,14.48,8.44a147.43,147.43,0,0,0,27.75,12.23c1.12.35,2.23.67,3.33,1l1.67.43c.56.15,1.07.26,1.63.39,2.17.53,4.32.92,6.42,1.26a72.69,72.69,0,0,0,12,.89,63.27,63.27,0,0,0,10.58-.89c1.63-.22,3.16-.62,4.64-.92.73-.18,1.44-.39,2.13-.58s1.38-.36,2-.6a52.86,52.86,0,0,0,11.55-5.35,16.42,16.42,0,0,0,1.65-1.07l1.18-.82,1-.67Z" transform="translate(0)" style="fill:#c7b29a"/><path d="M109.68,399l-.31-.31a10.91,10.91,0,0,1-.87-1,12.93,12.93,0,0,1-2.29-4.43,16.26,16.26,0,0,1-.29-7.88,17.12,17.12,0,0,1,5-8.95A21.5,21.5,0,0,1,121.52,371a32.06,32.06,0,0,1,13.21.25,48.62,48.62,0,0,1,6.68,1.9c1.07.37,2.21.8,3.3,1.23s2.18.9,3.27,1.37c4.34,1.92,8.62,4.12,12.84,6.4s8.33,4.69,12.43,7,8.1,4.55,12.06,6.56,7.83,3.85,11.57,5.39c1.89.76,3.73,1.47,5.52,2.1s3.54,1.21,5.23,1.72A81.13,81.13,0,0,0,217,407a63.88,63.88,0,0,0,7.38.8c2.06.06,3.68.06,4.79,0l1.7-.09-1.68.26a46.7,46.7,0,0,1-4.81.46,56,56,0,0,1-7.53-.22,69,69,0,0,1-9.66-1.62,97.49,97.49,0,0,1-11.11-3.36,124.16,124.16,0,0,1-11.94-5.09c-4-2-8.18-4.09-12.3-6.37l-12.46-6.88c-4.17-2.29-8.36-4.49-12.58-6.39A72.55,72.55,0,0,0,134.16,374a31.37,31.37,0,0,0-12.23-.66,20.2,20.2,0,0,0-9.86,4.52,16,16,0,0,0-5,7.87,15.81,15.81,0,0,0-.25,7.43,13,13,0,0,0,1.83,4.49,11.61,11.61,0,0,0,.76,1Z" transform="translate(0)" style="fill:#c7b29a"/><path d="M188,390.38l1,.67,1.18.82a16.42,16.42,0,0,0,1.65,1.07,52.86,52.86,0,0,0,11.55,5.35c.64.24,1.33.39,2,.6s1.4.4,2.13.58c1.48.3,3,.7,4.64.92a63.18,63.18,0,0,0,10.58.89,72.69,72.69,0,0,0,12-.89c2.1-.34,4.25-.73,6.42-1.26.55-.13,1.07-.24,1.63-.39l1.67-.43c1.09-.3,2.2-.62,3.32-1a147.23,147.23,0,0,0,27.76-12.23c4.72-2.66,9.5-5.57,14.48-8.44a144.34,144.34,0,0,1,15.73-8.1,53.61,53.61,0,0,1,17.93-4.36,32.9,32.9,0,0,1,18.55,4.33,27,27,0,0,1,7.52,6.48,22.85,22.85,0,0,1,2.73,4.3c.36.67.68,1.58,1,2.39s.54,1.64.7,2.49a23.41,23.41,0,0,1,0,10.27,21,21,0,0,1-1.74,4.88,18.56,18.56,0,0,1-3,4.24,18.18,18.18,0,0,1-1.92,1.72,17.12,17.12,0,0,1-6.9,3.18,15.65,15.65,0,0,1-9.93-1.11,14.2,14.2,0,0,1-4.2-2.95,10.17,10.17,0,0,1-.86-1,5.38,5.38,0,0,1-.42-.54l-.34-.5c-.22-.35-.47-.79-.67-1.18a10,10,0,0,1-.52-1.21,12.82,12.82,0,0,1,.39-10.28,10,10,0,0,1,.67-1.14l.09-.14.13-.17.18-.23c.13-.16.22-.3.39-.48a10.09,10.09,0,0,1,2-1.72,10.63,10.63,0,0,1,4.81-1.64,10,10,0,0,1,2.56.12,8.77,8.77,0,0,1,2.44.86,8,8,0,0,1,4.09,5s0,.17.05.21l0,.14.06.29c0,.22.06.48.08.72a7.87,7.87,0,0,1-.32,2.66,9.67,9.67,0,0,1-2.69,4.31l-.24.22-.13.11-.11.09c-.14.12-.29.24-.47.37a12.34,12.34,0,0,1-1,.69,15.24,15.24,0,0,1-2.15,1.05,25.59,25.59,0,0,1-4.44,1.25,47.78,47.78,0,0,1-17.59.23,49.51,49.51,0,0,1-16-5.57,59.87,59.87,0,0,1-12.69-9.9c-1.86-1.81-3.63-3.68-5.33-5.48a37.21,37.21,0,0,0-5.42-4.78,22.35,22.35,0,0,0-6-3.12,13.85,13.85,0,0,0-6.33-.51,8.35,8.35,0,0,0-5.25,2.68,6.24,6.24,0,0,0-1.4,5.35,3.76,3.76,0,0,0,.17.68,3.65,3.65,0,0,0,.22.66l.13.32.06.14.09.16a3.08,3.08,0,0,0,.35.55,5.24,5.24,0,0,0,2,1.56,4.77,4.77,0,0,0,2.41.42,3.3,3.3,0,0,0,1.12-.33l.24-.12.27-.18a2.42,2.42,0,0,0,.4-.38,2.2,2.2,0,0,0,.48-2.06,4.14,4.14,0,0,0-1.08-1.91,6.23,6.23,0,0,0-3.77-1.65,32.81,32.81,0,0,0-7.27.37,13.91,13.91,0,0,0-5.08,1.65,8.47,8.47,0,0,0-2.5,2.2,6.76,6.76,0,0,0-.48.72l-.16.25-.26-.16.15-.26a6,6,0,0,1,.5-.75,8.73,8.73,0,0,1,2.57-2.33,14.2,14.2,0,0,1,5.21-1.76c1.07-.15,2.2-.29,3.43-.42a19.17,19.17,0,0,1,3.95,0,8.3,8.3,0,0,1,2.13.49,5.83,5.83,0,0,1,2,1.27,4.8,4.8,0,0,1,1.27,2.19,3.32,3.32,0,0,1,0,1.37,2.82,2.82,0,0,1-.63,1.27,3.94,3.94,0,0,1-.52.49l-.26.18L261,386a3.8,3.8,0,0,1-1.33.4,5.37,5.37,0,0,1-2.75-.44,5.8,5.8,0,0,1-2.33-1.75,6.52,6.52,0,0,1-.43-.64l-.08-.16-.09-.19-.15-.35a5.23,5.23,0,0,1-.26-.73,5.88,5.88,0,0,1-.19-.75,7.08,7.08,0,0,1,0-3.17,7.17,7.17,0,0,1,1.47-2.91,8.2,8.2,0,0,1,2.59-2,7.26,7.26,0,0,1,.76-.35c.26-.09.47-.19.78-.27.53-.13,1.06-.3,1.61-.39a14.84,14.84,0,0,1,6.76.47,23.11,23.11,0,0,1,6.36,3.18,38.25,38.25,0,0,1,5.63,4.84c1.75,1.8,3.51,3.61,5.37,5.39a59.22,59.22,0,0,0,12.52,9.53,48.17,48.17,0,0,0,32.52,4.84c2.79-.58,5.63-1.48,7.64-3.39s3.05-4.93,1.84-7.28a6.23,6.23,0,0,0-2.77-2.79,6.56,6.56,0,0,0-1.9-.64,8.09,8.09,0,0,0-2-.08,8.5,8.5,0,0,0-3.87,1.36,8.23,8.23,0,0,0-1.53,1.31c-.11.1-.24.3-.36.44l-.18.23s-.1.13-.05.07l-.07.12a7.45,7.45,0,0,0-.53.91,10.57,10.57,0,0,0-.22,8.42c.12.34.29.67.44,1s.32.58.53.91l.34.49c.06.1.21.27.31.4.22.29.47.54.72.81a11.9,11.9,0,0,0,3.55,2.44,13.46,13.46,0,0,0,8.51.87,14.74,14.74,0,0,0,4.09-1.57,16.42,16.42,0,0,0,1.82-1.21,18,18,0,0,0,1.63-1.5,16,16,0,0,0,2.52-3.65,18.4,18.4,0,0,0,1.46-4.27,20.69,20.69,0,0,0-.15-9,22.53,22.53,0,0,0-.63-2.17,21.8,21.8,0,0,0-.9-2.05,19.86,19.86,0,0,0-2.44-3.76,24.35,24.35,0,0,0-6.8-5.71,28.73,28.73,0,0,0-4-1.89,30.08,30.08,0,0,0-4.23-1.24c-.72-.16-1.39-.27-2.13-.38l-1.14-.13c-.31,0-.72-.06-1.07-.09a32,32,0,0,0-4.38,0,50.72,50.72,0,0,0-16.88,4.24c-10.76,4.53-20.34,11-30,16.17a150.23,150.23,0,0,1-28.47,12,81.1,81.1,0,0,1-25.79,3.33,65.4,65.4,0,0,1-10.8-1.24c-.82-.15-1.63-.32-2.41-.54l-2.29-.59c-.74-.22-1.45-.47-2.15-.69s-1.39-.42-2-.7a56.82,56.82,0,0,1-6.79-3.07c-.95-.54-1.83-1-2.62-1.49l-2.1-1.39c-.63-.4-1.15-.81-1.6-1.16l-1.13-.88-.93-.72Z" transform="translate(0)" style="fill:#c7b29a"/><path d="M344,399l.29-.34a11.61,11.61,0,0,0,.76-1,13.2,13.2,0,0,0,1.83-4.49,15.91,15.91,0,0,0-5.26-15.3,20.23,20.23,0,0,0-9.87-4.52,31.31,31.31,0,0,0-12.22.66,72.55,72.55,0,0,0-12.64,4.59c-4.22,1.9-8.42,4.1-12.58,6.39l-12.46,6.88c-4.12,2.28-8.25,4.41-12.3,6.37a124.16,124.16,0,0,1-11.94,5.09,98.1,98.1,0,0,1-11.11,3.36,69,69,0,0,1-9.66,1.62,56,56,0,0,1-7.53.22,46.7,46.7,0,0,1-4.81-.46l-1.69-.26,1.7.09c1.11.06,2.74.06,4.8,0a63.88,63.88,0,0,0,7.38-.8,81.13,81.13,0,0,0,9.37-2.18c1.69-.51,3.44-1.07,5.23-1.72s3.63-1.34,5.51-2.1c3.75-1.54,7.62-3.38,11.58-5.39s8-4.28,12.06-6.56,8.23-4.66,12.43-7,8.5-4.48,12.84-6.4c1.09-.47,2.17-.94,3.27-1.37s2.22-.86,3.3-1.23a48.62,48.62,0,0,1,6.68-1.9,32.06,32.06,0,0,1,13.21-.25,21.46,21.46,0,0,1,10.62,5.48,17.07,17.07,0,0,1,5,8.95,16.13,16.13,0,0,1-.3,7.88,12.1,12.1,0,0,1-3.15,5.39Z" transform="translate(0)" style="fill:#c7b29a"/><path d="M218.19,358.94l-.66-.44c-.44-.28-1.09-.7-2-1.17a24.52,24.52,0,0,0-8.18-2.62,22.54,22.54,0,0,0-6.08,0,23.34,23.34,0,0,0-6.83,2.07,24.83,24.83,0,0,0-6.64,4.68,15.5,15.5,0,0,0-2.57,3.45c-.08.17-.18.37-.24.52a3.75,3.75,0,0,0-.17.47,6.18,6.18,0,0,0-.25,1,4.81,4.81,0,0,0,.1,2,3,3,0,0,0,1,1.55,2.75,2.75,0,0,0,.4.26l.22.12c-.12-.05,0,0,0,0l.07,0,.15.06a1.72,1.72,0,0,0,.51.15,1.86,1.86,0,0,0,.43.06,3.88,3.88,0,0,0,3.3-2.07,5.9,5.9,0,0,0,.74-4.41,9.36,9.36,0,0,0-.81-2.33,17.88,17.88,0,0,0-1.37-2.23,35.79,35.79,0,0,0-3.5-4.24c-.64-.66-1.31-1.31-2-1.92-.16-.14-.38-.34-.5-.43l-.57-.45-1.15-.91a38.2,38.2,0,0,0-10.07-5.35A48.2,48.2,0,0,0,147.88,345c-1,.2-2,.33-3,.58s-2.09.46-3.05.75-2,.54-3,.88l-1.49.49-1.47.54a83.12,83.12,0,0,0-11.46,5.32,157.89,157.89,0,0,0-21.07,14.33c-3.31,2.63-6.56,5.34-9.86,7.93q-2.48,1.95-5,3.8l-1.28.91-1.28.87c-.88.59-1.75,1.15-2.65,1.67a33,33,0,0,1-11.46,4.35,23.13,23.13,0,0,1-6,.2,20.18,20.18,0,0,1-5.76-1.48,17.64,17.64,0,0,1-8.46-7.58L51.3,378c-.15-.26-.2-.42-.31-.63l-.27-.6-.26-.67a20,20,0,0,1-.81-2.64,19.15,19.15,0,0,1-.41-5.31,17.27,17.27,0,0,1,3.3-9.22,18.12,18.12,0,0,1,6.63-5.58,15.65,15.65,0,0,1,7.28-1.65,8.12,8.12,0,0,1,.86,0c.28,0,.55,0,.82.08A17.45,17.45,0,0,1,72.6,353a17.13,17.13,0,0,1,6.92,5.42,15.77,15.77,0,0,1,1.28,2l.38.71-.41-.68a17.05,17.05,0,0,0-8.39-6.83,16.79,16.79,0,0,0-4.31-1l-.81,0a5.48,5.48,0,0,0-.81,0,14.84,14.84,0,0,0-6.77,1.83,16.79,16.79,0,0,0-5.91,5.39c-.2.3-.4.63-.6.95l-.51.94-.46,1-.39,1a16.12,16.12,0,0,0-.8,4.52,17.08,17.08,0,0,0,.5,4.74,18.45,18.45,0,0,0,.78,2.31l.23.55.29.59c.09.18.21.43.28.55l.32.53A15.61,15.61,0,0,0,61,384a18.3,18.3,0,0,0,5,1.18,20.92,20.92,0,0,0,5.41-.3,31.21,31.21,0,0,0,10.51-4.19c.85-.5,1.68-1.05,2.48-1.6l1.25-.88,1.21-.89c1.63-1.21,3.25-2.49,4.86-3.79,3.23-2.61,6.45-5.35,9.81-8A160.05,160.05,0,0,1,123,350.75a87.47,87.47,0,0,1,11.9-5.45l1.53-.56,1.56-.5c1-.35,2.08-.64,3.14-.92s2.09-.51,3.12-.75,2.14-.4,3.21-.61a50.15,50.15,0,0,1,25,2.28,39.64,39.64,0,0,1,10.74,5.93l1.12.93.56.47c.26.2.39.34.59.52.74.68,1.45,1.38,2.12,2.11a37.21,37.21,0,0,1,3.65,4.62,14.09,14.09,0,0,1,2.44,5.5,10.05,10.05,0,0,1,.15,1.56v.42l0,.35c0,.28-.07.54-.11.81a7.71,7.71,0,0,1-1.18,2.86,6.79,6.79,0,0,1-2.17,2.13,4.94,4.94,0,0,1-3,.74,4.86,4.86,0,0,1-1.47-.37l-.35-.15-.33-.19a5.27,5.27,0,0,1-.62-.43A4.86,4.86,0,0,1,183,369.5a7.44,7.44,0,0,1,.82-5.33,15.69,15.69,0,0,1,3-3.79,25.84,25.84,0,0,1,7.19-4.65,23.43,23.43,0,0,1,21.63,1.45c.87.52,1.5,1,1.93,1.28Z" transform="translate(0)" style="fill:#c7b29a"/><path d="M183.83,359l-1.55-1.36a32.51,32.51,0,0,0-4.66-3.26,37.68,37.68,0,0,0-8-3.42,41,41,0,0,0-11.06-1.6c-.51,0-1,0-1.55,0s-1.05,0-1.58.07l-1.57.12-1.68.2c-.58.06-1.11.17-1.66.26s-1.09.16-1.65.28l-1.69.36c-.57.12-1.13.28-1.71.43s-1.14.3-1.71.48-1.16.32-1.73.53l-1.74.58-1.74.64c-2.34.88-4.67,1.92-7,3a132.62,132.62,0,0,0-14.1,8c-4.67,3-9.44,6.12-14.27,9.15-2.41,1.52-4.81,3-7.28,4.48-1.23.72-2.47,1.42-3.73,2.07s-2.52,1.28-3.82,1.82-2.61,1.05-4,1.46c-.65.19-1.34.37-2,.52s-1.37.3-2,.4A22.26,22.26,0,0,1,72,384a17.39,17.39,0,0,1-7.36-3.7,15.75,15.75,0,0,1-2.74-3.13,14.1,14.1,0,0,1-1.71-3.82,11.85,11.85,0,0,1-.37-4.14,8.61,8.61,0,0,1,.12-1l.08-.5,0-.11,0-.05,0-.11.05-.22c.07-.27.19-.69.3-1s.25-.64.39-.94A10,10,0,0,1,66.28,360a8,8,0,0,1,6.9.61,7.75,7.75,0,0,1,2.41,2.24,7.06,7.06,0,0,1,1,6,7.08,7.08,0,0,1-1.3,2.44l-.39.42c-.16.16-.33.32-.49.46a6.65,6.65,0,0,1-1,.66,5.19,5.19,0,0,1-2.15.55,5,5,0,0,1-3.43-1.2,5.36,5.36,0,0,1-1.57-2.14,5.11,5.11,0,0,1-.33-1.61c0-.37,0-.55,0-.55h.31a3.19,3.19,0,0,0,.06.51,4.14,4.14,0,0,0,.5,1.37,4.5,4.5,0,0,0,1.56,1.63,4.06,4.06,0,0,0,2.77.64A4.23,4.23,0,0,0,74,370.19a5.25,5.25,0,0,0,.77-3.91,4.91,4.91,0,0,0-.93-2A5.8,5.8,0,0,0,72,362.79a5.54,5.54,0,0,0-4.81-.23,7.27,7.27,0,0,0-3.9,3.89c-.1.23-.19.46-.27.7s-.14.41-.21.71l-.06.22,0,.11,0,.05c0-.06,0,0,0,0l-.07.39a5.2,5.2,0,0,0-.1.78,9.86,9.86,0,0,0,.24,3.19,12.69,12.69,0,0,0,3.37,5.9,15.56,15.56,0,0,0,6.25,3.8,18.68,18.68,0,0,0,7.69.78c.66-.07,1.33-.16,2-.29s1.29-.29,2-.48a29.67,29.67,0,0,0,3.86-1.38,48.9,48.9,0,0,0,7.32-4c2.34-1.55,4.64-3.24,6.94-4.91,4.58-3.37,9.07-6.89,13.73-10.07a131.68,131.68,0,0,1,14.19-8.62,68.73,68.73,0,0,1,7.28-3.25,54.32,54.32,0,0,1,7.31-2.27c.6-.14,1.2-.29,1.81-.41l1.79-.33c.59-.12,1.21-.18,1.81-.27s1.2-.16,1.76-.2l1.68-.13,1.76-.06c.56,0,1.13,0,1.68,0s1.11,0,1.65.06a40.21,40.21,0,0,1,11.59,2.46,34,34,0,0,1,8.05,4.33,33.52,33.52,0,0,1,4.42,3.91l1.34,1.56Z" transform="translate(0)" style="fill:#c7b29a"/><path d="M196,360.78s.1.16.27.48a8.45,8.45,0,0,1,.64,1.53,10.45,10.45,0,0,1-.19,6.31,14.18,14.18,0,0,1-.86,2l-.28.51-.32.5c-.11.16-.21.32-.31.48l-.39.5a14.67,14.67,0,0,1-4,3.54,23.61,23.61,0,0,1-12,3,42,42,0,0,1-14.37-2.48,39.33,39.33,0,0,1-7.26-3.5,37.26,37.26,0,0,1-6.79-5.18,22.18,22.18,0,0,1-2.88-3.52,14.56,14.56,0,0,1-2-4.42,11.61,11.61,0,0,1-.37-2.52,11.09,11.09,0,0,1,.25-2.57l.06-.31,0-.08c.08-.27,0-.11.06-.19l0-.13.18-.52a5.34,5.34,0,0,1,.2-.55L146,353c.12-.22.23-.44.36-.64l.42-.55c.15-.17.28-.36.44-.52l.52-.46a7.05,7.05,0,0,1,5-1.69,7.24,7.24,0,0,1,4.78,2.24,8.38,8.38,0,0,1,2.11,4.85,9,9,0,0,1-1.1,5.14,11.84,11.84,0,0,1-3.27,3.75c-.33.23-.67.47-1,.68l-.54.3-.28.14-.13.07-.12.05-.07,0-1,.41-.51.2-.57.18a21.12,21.12,0,0,1-9.1.71,29.94,29.94,0,0,1-8.5-2.46,37.35,37.35,0,0,1-7.41-4.4c-4.42-3.36-8.72-6.53-12.94-9.3a82.65,82.65,0,0,0-12.4-6.84,43.57,43.57,0,0,0-11.39-3.3,29.47,29.47,0,0,0-9.1.15,28.75,28.75,0,0,0-5.66,1.67l-1.91.88-.14-.28,1.91-.94a28.67,28.67,0,0,1,5.7-1.86,29.86,29.86,0,0,1,9.29-.4,43.86,43.86,0,0,1,11.7,3,83.21,83.21,0,0,1,12.76,6.6c4.35,2.67,8.73,5.82,13.22,9.07a35.76,35.76,0,0,0,7.13,4,27.88,27.88,0,0,0,8,2.13,21,21,0,0,0,4.12.06,17.14,17.14,0,0,0,2-.31c.34-.07.68-.13,1-.22l.94-.29.47-.15.51-.22,1-.43.06,0s-.06,0,0,0l.1-.06.22-.11.42-.25c.28-.17.54-.37.81-.56a11.41,11.41,0,0,0,1.42-1.36,9.65,9.65,0,0,0,1.09-1.63,6.42,6.42,0,0,0,.72-3.59,5.59,5.59,0,0,0-1.46-3.22,4.51,4.51,0,0,0-3-1.33,4.33,4.33,0,0,0-3,1.12l-.3.27c-.09.1-.16.22-.25.33l-.25.33-.16.33-.18.31c-.06.12-.11.34-.17.5l-.16.53,0,.13s-.05.17,0-.06v.06l0,.23a8.05,8.05,0,0,0,.15,3.62,14.68,14.68,0,0,0,4.13,6.37,33.52,33.52,0,0,0,6.14,4.79c1.1.68,2.21,1.3,3.33,1.87a34.68,34.68,0,0,0,3.36,1.52,41.92,41.92,0,0,0,6.8,2,38.54,38.54,0,0,0,6.58.82,22.22,22.22,0,0,0,11.14-2.1,13,13,0,0,0,3.76-2.86l.36-.4.35-.45.33-.42c.09-.15.19-.29.29-.43a11.25,11.25,0,0,0,.92-1.74,10.62,10.62,0,0,0,.82-3.25,9.3,9.3,0,0,0-.13-2.51,9.57,9.57,0,0,0-.44-1.5l-.22-.5Z" transform="translate(0)" style="fill:#c7b29a"/><path d="M235.86,358.94l.63-.48c.43-.3,1.06-.76,1.93-1.28a23.43,23.43,0,0,1,21.63-1.45,26,26,0,0,1,7.19,4.65,15.69,15.69,0,0,1,3,3.79,7.39,7.39,0,0,1,.81,5.33,4.79,4.79,0,0,1-1.6,2.55,5.27,5.27,0,0,1-.62.43l-.33.19-.35.15a4.86,4.86,0,0,1-1.47.37,5,5,0,0,1-3-.74,6.86,6.86,0,0,1-2.16-2.13,7.71,7.71,0,0,1-1.18-2.86c0-.27-.09-.53-.11-.81l0-.35v-.42a10.05,10.05,0,0,1,.15-1.56,14.09,14.09,0,0,1,2.44-5.5,37.21,37.21,0,0,1,3.65-4.62c.67-.73,1.38-1.43,2.12-2.11.2-.18.33-.32.59-.52l.56-.47,1.12-.93a39.64,39.64,0,0,1,10.74-5.93,50.15,50.15,0,0,1,25-2.28c1.07.21,2.13.34,3.21.61s2.05.44,3.12.75,2.12.57,3.14.92l1.56.5,1.53.56a87.47,87.47,0,0,1,11.9,5.45,160.05,160.05,0,0,1,21.42,14.71c3.36,2.67,6.58,5.41,9.81,8,1.61,1.3,3.23,2.58,4.85,3.79l1.22.89,1.24.88c.81.55,1.64,1.1,2.49,1.6a31.21,31.21,0,0,0,10.51,4.19,20.92,20.92,0,0,0,5.41.3,18.3,18.3,0,0,0,5.05-1.18,15.61,15.61,0,0,0,7.56-6.48l.32-.53c.07-.12.19-.37.28-.55l.29-.59.23-.55a18.45,18.45,0,0,0,.78-2.31,17.47,17.47,0,0,0,.5-4.74,16.12,16.12,0,0,0-.8-4.52l-.39-1-.46-1-.51-.94c-.2-.32-.4-.65-.6-.95a16.79,16.79,0,0,0-5.91-5.39,14.84,14.84,0,0,0-6.77-1.83,5.46,5.46,0,0,0-.81,0l-.81,0a16.79,16.79,0,0,0-4.31,1,17.05,17.05,0,0,0-8.39,6.83l-.41.68.38-.71a15.77,15.77,0,0,1,1.28-2,17.13,17.13,0,0,1,6.92-5.42,16,16,0,0,1,2.86-.94,15.34,15.34,0,0,1,1.61-.3c.27,0,.54,0,.82-.08a8,8,0,0,1,.86,0,15.65,15.65,0,0,1,7.28,1.65,18.12,18.12,0,0,1,6.63,5.58,17.27,17.27,0,0,1,3.3,9.22,19.15,19.15,0,0,1-.41,5.31,20,20,0,0,1-.81,2.64l-.26.67-.27.6c-.11.21-.16.37-.31.63l-.34.62a17.64,17.64,0,0,1-8.46,7.58,20.18,20.18,0,0,1-5.76,1.48,23.22,23.22,0,0,1-6-.2,33,33,0,0,1-11.45-4.35c-.9-.52-1.77-1.08-2.66-1.67l-1.27-.87-1.28-.91q-2.52-1.85-5-3.8c-3.3-2.59-6.55-5.3-9.86-7.93a157.89,157.89,0,0,0-21.07-14.33,83.12,83.12,0,0,0-11.46-5.32l-1.47-.54-1.49-.49c-1-.34-2-.61-3-.88s-2-.51-3.05-.75-2-.38-3-.58a48.2,48.2,0,0,0-23.69,1.87,38.2,38.2,0,0,0-10.07,5.35l-1.15.91-.57.45c-.13.09-.34.29-.5.43-.7.61-1.37,1.26-2,1.92a36.7,36.7,0,0,0-3.49,4.24,17.88,17.88,0,0,0-1.37,2.23,9.36,9.36,0,0,0-.81,2.33,5.86,5.86,0,0,0,.74,4.41,3.88,3.88,0,0,0,3.3,2.07,1.86,1.86,0,0,0,.43-.06,1.72,1.72,0,0,0,.51-.15l.15-.06.07,0h0l.22-.12a2.75,2.75,0,0,0,.4-.26,3,3,0,0,0,1-1.55,4.81,4.81,0,0,0,.1-2,6.18,6.18,0,0,0-.25-1c0-.17-.11-.31-.17-.47s-.16-.35-.24-.52a15.24,15.24,0,0,0-2.58-3.45,24.63,24.63,0,0,0-6.63-4.68,23.34,23.34,0,0,0-6.83-2.07,22.54,22.54,0,0,0-6.08,0,24.52,24.52,0,0,0-8.18,2.62c-.89.47-1.55.89-2,1.17Z" transform="translate(0)" style="fill:#c7b29a"/><path d="M270,358.73l1.34-1.56a33.52,33.52,0,0,1,4.42-3.91,34,34,0,0,1,8.05-4.33,40.21,40.21,0,0,1,11.59-2.46q.81-.06,1.65-.06c.55,0,1.12,0,1.68,0l1.76.06,1.68.13c.56,0,1.16.11,1.76.2s1.21.15,1.8.27l1.8.33c.61.12,1.21.27,1.81.41a54.32,54.32,0,0,1,7.31,2.27,68.73,68.73,0,0,1,7.28,3.25,131.68,131.68,0,0,1,14.19,8.62c4.65,3.18,9.15,6.7,13.73,10.07,2.3,1.67,4.6,3.36,6.94,4.91a48.9,48.9,0,0,0,7.32,4,30.07,30.07,0,0,0,3.85,1.38c.67.19,1.32.35,2,.48s1.32.22,2,.29a18.68,18.68,0,0,0,7.69-.78,15.56,15.56,0,0,0,6.25-3.8,12.69,12.69,0,0,0,3.37-5.9,9.86,9.86,0,0,0,.24-3.19,6.93,6.93,0,0,0-.1-.78l-.07-.39s0-.07,0,0l0-.05,0-.11-.06-.22c-.08-.3-.13-.45-.21-.71s-.17-.47-.27-.7a7.27,7.27,0,0,0-3.9-3.89,5.56,5.56,0,0,0-4.82.23,5.88,5.88,0,0,0-1.81,1.52,4.78,4.78,0,0,0-.93,2,5.24,5.24,0,0,0,.76,3.91,4.27,4.27,0,0,0,2.88,1.88,4.08,4.08,0,0,0,2.78-.64,4.59,4.59,0,0,0,1.56-1.63,4.14,4.14,0,0,0,.5-1.37,3.19,3.19,0,0,0,.06-.51h.31s0,.18,0,.55a5.11,5.11,0,0,1-.33,1.61,5.3,5.3,0,0,1-1.58,2.14,5,5,0,0,1-3.42,1.2,5.19,5.19,0,0,1-2.15-.55,6.65,6.65,0,0,1-1-.66c-.16-.14-.33-.3-.49-.46s-.26-.27-.39-.42a7.08,7.08,0,0,1-1.3-2.44,7.06,7.06,0,0,1,1-6,7.75,7.75,0,0,1,2.41-2.24,8,8,0,0,1,6.9-.61,10,10,0,0,1,5.46,5.21c.14.3.27.62.39.94s.23.72.3,1l.05.22,0,.11,0,.05,0,.11.08.5a8.61,8.61,0,0,1,.12,1,11.85,11.85,0,0,1-.37,4.14,13.83,13.83,0,0,1-1.72,3.82,15.39,15.39,0,0,1-2.73,3.13,17.39,17.39,0,0,1-7.36,3.7,22.26,22.26,0,0,1-8.26.25c-.68-.1-1.37-.24-2.05-.4s-1.37-.33-2-.52c-1.35-.41-2.65-.92-4-1.46s-2.57-1.16-3.83-1.82-2.5-1.35-3.72-2.07c-2.47-1.43-4.87-3-7.28-4.48-4.83-3-9.6-6.15-14.27-9.15a132.62,132.62,0,0,0-14.1-8c-2.37-1.11-4.71-2.15-7-3l-1.74-.64-1.74-.58c-.57-.21-1.16-.35-1.73-.53s-1.14-.35-1.71-.48-1.14-.31-1.71-.43l-1.69-.36c-.56-.12-1.11-.19-1.65-.28s-1.09-.2-1.66-.26l-1.68-.2-1.57-.12c-.53-.06-1.06,0-1.58-.07s-1,0-1.55,0a41,41,0,0,0-11.06,1.6,37.68,37.68,0,0,0-8,3.42,32.51,32.51,0,0,0-4.66,3.26L270.22,359Z" transform="translate(0)" style="fill:#c7b29a"/><path d="M258.33,360.55l-.22.51a8.32,8.32,0,0,0-.44,1.5,9.22,9.22,0,0,0-.13,2.5,10.55,10.55,0,0,0,.82,3.25,11.25,11.25,0,0,0,.92,1.74l.29.43.33.42.35.45.36.4a13,13,0,0,0,3.76,2.87,22.42,22.42,0,0,0,11.14,2.1,37.6,37.6,0,0,0,6.58-.83,40,40,0,0,0,6.8-2,34.68,34.68,0,0,0,3.36-1.52c1.12-.56,2.23-1.19,3.32-1.86a34.13,34.13,0,0,0,6.15-4.79,14.63,14.63,0,0,0,4.12-6.37,8,8,0,0,0,.16-3.63l0-.23v-.05c.07.22,0,0,0,.06l0-.14-.17-.52a3.7,3.7,0,0,0-.16-.5l-.18-.32-.16-.33-.25-.33c-.09-.1-.16-.23-.25-.32l-.3-.28a4.27,4.27,0,0,0-3-1.11,4.47,4.47,0,0,0-3,1.33A5.53,5.53,0,0,0,297,356.2a6.44,6.44,0,0,0,.72,3.59,9.58,9.58,0,0,0,1.09,1.62,10.81,10.81,0,0,0,1.42,1.37c.27.19.53.39.81.55a4.64,4.64,0,0,0,.42.25l.22.12.1.05c.07,0,0,0,0,0l.06,0,1,.43.51.21.47.15.94.3,1,.22a17.12,17.12,0,0,0,2,.3,21,21,0,0,0,4.12,0,28.21,28.21,0,0,0,8-2.13,36.26,36.26,0,0,0,7.13-4.05c4.49-3.26,8.87-6.4,13.22-9.08A84,84,0,0,1,353,343.5a43.91,43.91,0,0,1,11.7-3.05,29.83,29.83,0,0,1,9.29.41,28.77,28.77,0,0,1,5.7,1.85l1.91.94-.14.29-1.91-.88a28.07,28.07,0,0,0-5.66-1.67,28.86,28.86,0,0,0-9.1-.15,43.14,43.14,0,0,0-11.39,3.29,83.55,83.55,0,0,0-12.4,6.84c-4.22,2.77-8.52,5.95-12.94,9.3a37.87,37.87,0,0,1-7.41,4.41,30.25,30.25,0,0,1-8.5,2.45,21,21,0,0,1-9.1-.71l-.57-.17-.51-.21-1-.41-.07,0-.12-.05-.13-.07-.28-.14-.54-.3a11.3,11.3,0,0,1-1-.68,11.74,11.74,0,0,1-3.27-3.75,9,9,0,0,1-1.1-5.14,8.29,8.29,0,0,1,2.11-4.84,7.2,7.2,0,0,1,4.78-2.25,7.1,7.1,0,0,1,5,1.69l.52.46c.16.16.29.35.44.53l.42.54c.13.2.24.43.36.65l.33.66c.1.21.13.36.2.54l.18.52,0,.13c0,.08,0-.08.06.19l0,.08.06.32a11,11,0,0,1,.25,2.56,11.79,11.79,0,0,1-.37,2.53,14.39,14.39,0,0,1-2,4.41,21.27,21.27,0,0,1-2.89,3.52,36.43,36.43,0,0,1-6.78,5.18,38.75,38.75,0,0,1-7.26,3.51,42,42,0,0,1-14.37,2.47,23.51,23.51,0,0,1-12-3,14.81,14.81,0,0,1-4-3.53l-.39-.5c-.1-.17-.21-.33-.31-.49l-.32-.49-.28-.51a14.28,14.28,0,0,1-.86-2,10.41,10.41,0,0,1-.19-6.3,10,10,0,0,1,.63-1.54l.28-.47Z" transform="translate(0)" style="fill:#c7b29a"/><path d="M348.77,542.34a11.25,11.25,0,0,0-2.29-2.65,15.1,15.1,0,0,0-1.34-1.05l-.69-.46a10.41,10.41,0,0,0-2.3-3.48,13.41,13.41,0,0,0-5.38-3.29,16.72,16.72,0,0,0-6.08-.92,21.88,21.88,0,0,0-3,.28,24.31,24.31,0,0,0-2.94.74,56.47,56.47,0,0,0-5.38,2.43,23,23,0,0,1-5.19,1.86,7.42,7.42,0,0,1-4.83-.44c-.33-.19-.61-.36-.94-.59l-.49-.44-.25-.21-.15-.18a6.06,6.06,0,0,1-1.16-1.93,6.23,6.23,0,0,1,1-6,5.68,5.68,0,0,1,1.44-1.23,7.55,7.55,0,0,1,.9-.44l.84-.25c.29-.06.58-.08.87-.13s.58,0,.86,0a5.67,5.67,0,0,1,2.94,1.21A7.38,7.38,0,0,1,317,527.3a6.64,6.64,0,0,1,.65,4,5.28,5.28,0,0,1-.23,1.09c-.07.25-.11.37-.11.37l.16.06.15-.36a5.28,5.28,0,0,0,.37-1.07,7.09,7.09,0,0,0-.34-4.39,7.28,7.28,0,0,0-1.86-2.59,6.62,6.62,0,0,0-3.38-1.62c-.34,0-.68-.07-1-.08s-.71,0-1.07.09-.68.15-1.11.28a8.09,8.09,0,0,0-1,.44,7.06,7.06,0,0,0-3.24,3.69,7.85,7.85,0,0,0-.07,5.39c0,.11.09.21.13.32L301.4,530l-3-2.43c-.43-.5-.87-1-1.32-1.45s-.79-.83-1.18-1.23c.55-.51,1.1-1,1.63-1.56a22.7,22.7,0,0,0,5.88-10.25,18.64,18.64,0,0,0,.41-6l-.2-1.49c-.08-.5-.2-1-.31-1.46l-.08-.37,0-.09a.85.85,0,0,0,0-.15l0-.17-.22-.66a11.62,11.62,0,0,0-.55-1.41,19.32,19.32,0,0,0-3.25-4.94,17.33,17.33,0,0,0-4.52-3.61c-.42-.23-.86-.43-1.3-.62a27.47,27.47,0,0,0-3.52-6.36,49.76,49.76,0,0,0-4.88-5.71,41.27,41.27,0,0,0-9.68-7.26,40.82,40.82,0,0,0-7.09-3c-.85-.25-1.5-.42-1.95-.52l-.67-.17-.06.26.64.22c.43.14,1.06.38,1.88.7a40.69,40.69,0,0,1,6.74,3.41,42.72,42.72,0,0,1,9,7.53,56.61,56.61,0,0,1,4.46,5.73l.72,1.11-.84-.17a9.94,9.94,0,0,0-5.47,1,11.46,11.46,0,0,0-3.31,2.44,12.72,12.72,0,0,0-1.47,1.9,11.29,11.29,0,0,0-.61,1.1l-.13.27-.07.14c-.06.13-.05.12-.08.19l-.24.62c-.13.34-.24.7-.35,1.06-4.4-12.44-14-20.09-25.3-20.09-9.8,0-18.79,5.93-24,15.65-5.19-9.72-14.18-15.65-24-15.65-11.33,0-20.9,7.65-25.3,20.09-.11-.36-.22-.72-.35-1.06l-.24-.62c0-.07,0-.06-.08-.19l-.07-.14-.13-.27c-.16-.34-.39-.73-.61-1.1a13.41,13.41,0,0,0-1.47-1.9,11.46,11.46,0,0,0-3.31-2.44,9.94,9.94,0,0,0-5.47-1l-.84.17.72-1.11a56.61,56.61,0,0,1,4.46-5.73,42.72,42.72,0,0,1,9-7.53,40.69,40.69,0,0,1,6.74-3.41c.81-.32,1.44-.56,1.88-.7l.64-.22-.06-.26-.67.17c-.45.1-1.1.27-1.95.52a40.82,40.82,0,0,0-7.09,3,41.27,41.27,0,0,0-9.68,7.26,49.76,49.76,0,0,0-4.88,5.71,27.47,27.47,0,0,0-3.52,6.36c-.44.19-.88.39-1.3.62a17.33,17.33,0,0,0-4.52,3.61,19.32,19.32,0,0,0-3.25,4.94,10.18,10.18,0,0,0-.55,1.41l-.22.66,0,.17a.85.85,0,0,0,0,.15l0,.09-.08.37c-.11.48-.23,1-.31,1.46l-.2,1.49a18.64,18.64,0,0,0,.41,6,22.7,22.7,0,0,0,5.88,10.25c.53.54,1.08,1.05,1.63,1.56-.4.4-.79.81-1.18,1.23s-.89.95-1.32,1.45l-3,2.43L149,532.89c0-.11.09-.21.13-.32a7.79,7.79,0,0,0-.08-5.39,7,7,0,0,0-3.23-3.69,8.09,8.09,0,0,0-1-.44c-.43-.13-.74-.18-1.11-.28s-.72-.06-1.07-.09-.69.05-1,.08a6.62,6.62,0,0,0-3.38,1.62,7.28,7.28,0,0,0-1.86,2.59,7.09,7.09,0,0,0-.34,4.39,5.28,5.28,0,0,0,.37,1.07l.15.36.16-.06s0-.12-.11-.37a5.28,5.28,0,0,1-.23-1.09,6.64,6.64,0,0,1,.65-4,7.38,7.38,0,0,1,1.79-2.17,5.63,5.63,0,0,1,2.94-1.21c.28,0,.57,0,.86,0s.58.07.87.13l.84.26a6.27,6.27,0,0,1,.9.43,5.68,5.68,0,0,1,1.44,1.23,6.23,6.23,0,0,1,1,6,6.06,6.06,0,0,1-1.16,1.93l-.15.18-.25.21-.49.44c-.33.23-.61.4-.94.59a7.42,7.42,0,0,1-4.83.44,23,23,0,0,1-5.19-1.86,55.56,55.56,0,0,0-5.39-2.43,23.7,23.7,0,0,0-2.93-.74,21.88,21.88,0,0,0-3-.28,16.72,16.72,0,0,0-6.08.92,13.41,13.41,0,0,0-5.38,3.29,10.41,10.41,0,0,0-2.3,3.48l-.7.46a16.56,16.56,0,0,0-1.33,1.05,11.52,11.52,0,0,0-2.3,2.65,7.92,7.92,0,0,0-1.07,3.48,7.26,7.26,0,0,0,.16,1.81l.08.41,0,.2v.06l0,.1,0,.11c.1.28.2.56.32.84a6.66,6.66,0,0,0,2.21,2.73,9,9,0,0,0,3.08,1.38,18.6,18.6,0,0,0,6.47.34,33.87,33.87,0,0,0,11.88-4,76.32,76.32,0,0,0,10-6.3l.44-.33c.25.25.57.59.94,1a18.71,18.71,0,0,1,3.11,5.18,18.47,18.47,0,0,1,1.19,9.13c0,.22-.07.45-.1.67l0,.17a1.32,1.32,0,0,1,0,.13l-.07.35c-.06.24-.11.48-.16.72s-.13.42-.2.64a17.58,17.58,0,0,1-1.08,2.63,16.28,16.28,0,0,1-2.07,3c-.64-.62-1.27-1.25-1.91-1.89l-2.3-2.23a7.49,7.49,0,0,0,.15-1.17,6.69,6.69,0,0,0-.3-2.39l-.2-.58-.28-.57a3.3,3.3,0,0,0-.3-.5l-.15-.23-.1-.14L135,557a7,7,0,0,0-4-2.33,7.76,7.76,0,0,0-4.56.48,7.2,7.2,0,0,0-1.09.58l-.43.31-.11.08-.14.12-.22.2a7.86,7.86,0,0,0-1.5,1.85,9.72,9.72,0,0,0-1.33,4.5,10.76,10.76,0,0,0,.17,2.34,8.75,8.75,0,0,0,.3,1.17,7.63,7.63,0,0,0,.41,1.07,10.52,10.52,0,0,0,2.78,3.55,11.18,11.18,0,0,0,3.78,2,10.81,10.81,0,0,0,2.08.43,9.74,9.74,0,0,0,2,0,12.8,12.8,0,0,0,7.1-2.9l.25-.22c.92,1,1.86,1.93,2.83,2.86a48.09,48.09,0,0,0,7.08,5.73l.95.6c.39.24.65.37,1,.56.6.37,1.35.7,2,1a29.55,29.55,0,0,0,4.2,1.57,22.53,22.53,0,0,0,8.74.84,17,17,0,0,0,8.05-3c.29-.22.56-.45.84-.67A9.88,9.88,0,0,0,177,579l.68-.68.73-.84a15.52,15.52,0,0,0,2.16-3.58,14.48,14.48,0,0,0,1.08-7.85,14.66,14.66,0,0,0-.43-1.88,13.22,13.22,0,0,0-.72-1.72,10.59,10.59,0,0,0-.92-1.57l-.12-.18-.06-.08,0,0-.06-.08-.25-.31a9,9,0,0,0-.61-.67,11.32,11.32,0,0,0-5.57-3.09,8.5,8.5,0,0,0-3.65-.06,10.39,10.39,0,0,0,1-1.42,11.62,11.62,0,0,0,1.34-3.92,10.52,10.52,0,0,0-2-7.9l-.69-.78c-.24-.25-.54-.48-.81-.71a5.11,5.11,0,0,0-.78-.57l-.38-.26-.11-.07-.06,0-.12-.06-.23-.12a8.11,8.11,0,0,0-4-.89,9.22,9.22,0,0,0-7,3.63,8.9,8.9,0,0,0-1.62,3.77c0,.37-.08.74-.11,1.11s0,.58,0,.87a7.62,7.62,0,0,0,.34,2,7.9,7.9,0,0,0,5.07,5.3l.43.13.48.1a6.83,6.83,0,0,0,.79.09,4.27,4.27,0,0,0,.49,0h.45a6.53,6.53,0,0,0,.87-.13,6.76,6.76,0,0,0,3-1.52,6.62,6.62,0,0,0,1.85-2.65,8.13,8.13,0,0,0,.26-.79c.08-.3.08-.39.15-.72a6.8,6.8,0,0,0,0-1.56,6.12,6.12,0,0,0-2.81-4.51,5.45,5.45,0,0,0-2.22-.79,3.84,3.84,0,0,0-.55,0h-.52a5,5,0,0,0-1,.22,4.79,4.79,0,0,0-2.64,2.24,5.29,5.29,0,0,0-.68,2.44,5,5,0,0,0,.2,1.53l.18.47.3-.09-.09-.49a4.34,4.34,0,0,1,.05-1.36,4.55,4.55,0,0,1,.84-1.94,5.29,5.29,0,0,1,.92-.91,3.75,3.75,0,0,1,1.28-.54,2.92,2.92,0,0,1,.73-.07l.4,0a1.83,1.83,0,0,1,.39.07,3.8,3.8,0,0,1,1.46.71,4.33,4.33,0,0,1,1.67,3.18,3.89,3.89,0,0,1-.08,1c0,.09-.1.42-.16.54s-.1.28-.18.44a4.78,4.78,0,0,1-1.3,1.64,4.16,4.16,0,0,1-1.95.86,4.66,4.66,0,0,1-1,0,5.15,5.15,0,0,1-.65-.12,3.24,3.24,0,0,1-.52-.15,5.07,5.07,0,0,1-3.17-3.5,5.16,5.16,0,0,1-.2-1.26c0-.27,0-.6,0-.81s.06-.39.07-.58a6.54,6.54,0,0,1,1-2.51,6.38,6.38,0,0,1,2.11-1.95,7.09,7.09,0,0,1,2.81-1,6.2,6.2,0,0,1,3,.39l.18.06.1,0,0,0c.07,0,0,0,0,0l.4.22a4.64,4.64,0,0,1,.75.45c.21.16.43.29.63.47l.61.57a8.45,8.45,0,0,1,2.15,6.58,9,9,0,0,1-3.52,6.36l-.38.25h0a8.69,8.69,0,0,1-2.94,1.28,9.6,9.6,0,0,1-3.7.07,10.72,10.72,0,0,1-6.26-3.72,13.3,13.3,0,0,1-2.83-6.89,18.82,18.82,0,0,1,.61-7.43c.08-.3.19-.59.28-.89l.07-.22,0-.05h0l0-.1.19-.46c.25-.6.48-1.26.75-1.81l.82-1.59,1-1.57a37.74,37.74,0,0,1,4.71-5.61c.49-.49,1-1,1.51-1.43a54.07,54.07,0,0,0,4.83,3.29c6.49,4,13.5,6.8,20.17,9.95a71,71,0,0,1,9.58,5.29,31.45,31.45,0,0,1,7.8,7.16,17.94,17.94,0,0,1,1.43,2.16c.21.37.44.73.64,1.11l.52,1.16a17.87,17.87,0,0,1,.86,2.34,9.76,9.76,0,0,1,.31,1.24l.27,1.28a15.88,15.88,0,0,1,.06,4.77,14.36,14.36,0,0,1-1.31,4.44,13,13,0,0,1-2.55,3.59c-.26.23-.49.45-.77.68l-.47.36-.23.17,0,0,0,0-.11.07a9.16,9.16,0,0,1-1.81.94,8.73,8.73,0,0,1-7.5-.53,6.64,6.64,0,0,1-.79-.51l-.38-.27-.33-.28a7.27,7.27,0,0,1-.69-.68l-.18-.19,0,0h0l-.07-.09-.27-.36a7.19,7.19,0,0,1-1.32-3.2,8.09,8.09,0,0,1,1.83-6.17,8.5,8.5,0,0,1,2.34-1.88,8,8,0,0,1,1.31-.52l.37-.1.19-.06h.12l.67-.09a6.73,6.73,0,0,1,4.63,1.42,9.13,9.13,0,0,1,2.59,3.29,10.55,10.55,0,0,1,.6,1.63,10.91,10.91,0,0,1,.22,1.45c0,.21,0,.42.05.61s0,.37,0,.54,0,.32,0,.46,0,.27-.07.39c-.09.46-.13.69-.13.69l.25.07.2-.69.1-.37c0-.15,0-.32.07-.49s0-.37.08-.58,0-.42,0-.66a8.93,8.93,0,0,0-.63-3.37,10.14,10.14,0,0,0-2.61-3.85,7.72,7.72,0,0,0-5.4-2l-.82.06h-.06l-.1,0-.09,0-.18,0-.38.08a10.1,10.1,0,0,0-1.63.55,9.71,9.71,0,0,0-5.48,9.8,9.2,9.2,0,0,0,1.62,4.23l.33.47.09.12s.07.09.08.09l0,0,.17.19a8.05,8.05,0,0,0,.77.8l.45.41.46.35a7.92,7.92,0,0,0,1,.65,10.9,10.9,0,0,0,9.38.79,13.46,13.46,0,0,0,7.27-7.08A17,17,0,0,0,209,561.58l-.33-1.27a9.77,9.77,0,0,0-.39-1.28,18.44,18.44,0,0,0-1.08-2.58l-.63-1.23c-.23-.4-.49-.78-.74-1.16a19.78,19.78,0,0,0-1.63-2.22c-.15-.18-.31-.35-.46-.52,8.32,6.32,16.17,12.3,20.77,19.59a14.43,14.43,0,0,1,1.28,2.46l1.14,2.86,1.25-2.81a18.49,18.49,0,0,1,1.3-2.51c4.6-7.29,12.45-13.27,20.77-19.59-.15.17-.31.34-.46.52a19.78,19.78,0,0,0-1.63,2.22c-.25.38-.51.76-.74,1.16l-.63,1.23a18.44,18.44,0,0,0-1.08,2.58,9.77,9.77,0,0,0-.39,1.28l-.33,1.27a16.94,16.94,0,0,0,1.06,10.71,13.43,13.43,0,0,0,7.27,7.08,10.9,10.9,0,0,0,9.38-.79,7.13,7.13,0,0,0,1-.65l.47-.35.45-.41a8.05,8.05,0,0,0,.77-.8l.17-.19,0,0s.1-.1.08-.09l.09-.12.33-.47a9.2,9.2,0,0,0,1.62-4.23,9.71,9.71,0,0,0-5.48-9.8,10.1,10.1,0,0,0-1.63-.55l-.38-.08-.18,0-.09,0-.1,0h-.06l-.82-.06a7.72,7.72,0,0,0-5.4,2,10.14,10.14,0,0,0-2.61,3.85,8.93,8.93,0,0,0-.63,3.37c0,.24,0,.46,0,.66s.05.4.08.58,0,.34.07.49l.1.37.19.69.26-.07-.13-.69c0-.12,0-.25-.07-.39s0-.29,0-.46,0-.34,0-.54,0-.4.05-.61a10.91,10.91,0,0,1,.22-1.45,10.55,10.55,0,0,1,.6-1.63,9,9,0,0,1,2.59-3.29,6.73,6.73,0,0,1,4.63-1.42l.67.09h.12l.19.06.37.1a8,8,0,0,1,1.31.52,8.5,8.5,0,0,1,2.34,1.88,8.09,8.09,0,0,1,1.83,6.17,7.09,7.09,0,0,1-1.33,3.2l-.26.36-.07.09h0l0,0-.18.19a8.68,8.68,0,0,1-.69.68l-.33.28-.38.27a6.64,6.64,0,0,1-.79.51,8.73,8.73,0,0,1-7.5.53,9.16,9.16,0,0,1-1.81-.94l-.11-.07,0,0,0,0-.23-.17-.47-.36c-.28-.23-.51-.45-.77-.68a13,13,0,0,1-2.55-3.59,14.09,14.09,0,0,1-1.31-4.44,15.88,15.88,0,0,1,.06-4.77l.27-1.28a8.32,8.32,0,0,1,.31-1.24,17.87,17.87,0,0,1,.86-2.34l.52-1.16c.2-.38.43-.74.64-1.11a17.94,17.94,0,0,1,1.43-2.16,31.45,31.45,0,0,1,7.8-7.16,71,71,0,0,1,9.58-5.29c6.66-3.15,13.68-5.95,20.17-9.95a54.07,54.07,0,0,0,4.83-3.29c.51.47,1,.94,1.51,1.43a38.35,38.35,0,0,1,4.71,5.61l1,1.57.82,1.59c.27.55.5,1.21.75,1.81l.19.46,0,.1h0l0,.05.07.22c.09.3.2.59.27.89a18.64,18.64,0,0,1,.62,7.43,13.3,13.3,0,0,1-2.83,6.89,10.72,10.72,0,0,1-6.26,3.72,9.6,9.6,0,0,1-3.7-.07,8.69,8.69,0,0,1-2.94-1.28h0c-.12-.08-.26-.16-.38-.25a9,9,0,0,1-3.52-6.36,8.48,8.48,0,0,1,2.14-6.58l.62-.57c.2-.18.42-.31.63-.47a4.64,4.64,0,0,1,.75-.45l.4-.23s-.07,0,0,0l0,0,.1,0,.18-.06a6.2,6.2,0,0,1,3-.39,7.09,7.09,0,0,1,2.81,1,6.38,6.38,0,0,1,2.11,1.95,6.54,6.54,0,0,1,1,2.51c0,.19,0,.38.07.58s0,.54,0,.81a5.16,5.16,0,0,1-.2,1.26,5.07,5.07,0,0,1-3.17,3.5,3.24,3.24,0,0,1-.52.15,5.15,5.15,0,0,1-.65.12,4.66,4.66,0,0,1-1,0,4.16,4.16,0,0,1-1.95-.86,4.78,4.78,0,0,1-1.3-1.64c-.08-.16-.12-.3-.18-.44s-.12-.45-.16-.54a3.89,3.89,0,0,1-.08-1,4.35,4.35,0,0,1,1.66-3.18,3.91,3.91,0,0,1,1.47-.71,1.83,1.83,0,0,1,.39-.07l.4,0a2.92,2.92,0,0,1,.73.07,3.62,3.62,0,0,1,1.27.54,5,5,0,0,1,.93.91,4.55,4.55,0,0,1,.84,1.94,4.34,4.34,0,0,1,.05,1.36l-.09.49.3.09.17-.47a5,5,0,0,0,.21-1.53,5.29,5.29,0,0,0-.68-2.44,4.79,4.79,0,0,0-2.64-2.24,5,5,0,0,0-1-.22h-.52a3.84,3.84,0,0,0-.55,0,5.45,5.45,0,0,0-2.22.79,6.09,6.09,0,0,0-2.81,4.51,6.8,6.8,0,0,0,0,1.56c.07.33.07.42.15.72a8.13,8.13,0,0,0,.26.79,6.62,6.62,0,0,0,1.85,2.65,6.76,6.76,0,0,0,3,1.52,6.53,6.53,0,0,0,.87.13h.45a4.27,4.27,0,0,0,.49,0,6.83,6.83,0,0,0,.79-.09l.48-.1.43-.13A7.9,7.9,0,0,0,300,551a7.62,7.62,0,0,0,.34-2c0-.29,0-.52,0-.87s-.07-.74-.11-1.11a8.9,8.9,0,0,0-1.62-3.77,9.24,9.24,0,0,0-7-3.63,8.11,8.11,0,0,0-4,.89l-.23.12-.12.06-.06,0-.11.07-.38.26a5.11,5.11,0,0,0-.78.57c-.27.23-.57.46-.81.71l-.69.78a10.52,10.52,0,0,0-2,7.9,11.62,11.62,0,0,0,1.34,3.92,9.59,9.59,0,0,0,1,1.42,8.5,8.5,0,0,0-3.65.06,11.32,11.32,0,0,0-5.57,3.09,9,9,0,0,0-.61.67l-.25.31-.06.08,0,0-.06.08-.12.18a10.59,10.59,0,0,0-.92,1.57,11.07,11.07,0,0,0-1.15,3.6,14.48,14.48,0,0,0,1.08,7.85,15.83,15.83,0,0,0,2.15,3.58l.73.84.69.68a9.88,9.88,0,0,0,.84.72c.28.22.55.45.84.67a17,17,0,0,0,8.05,3,22.53,22.53,0,0,0,8.74-.84,29.55,29.55,0,0,0,4.2-1.57c.67-.34,1.42-.67,2-1,.33-.19.6-.32,1-.56l1-.6a48.09,48.09,0,0,0,7.08-5.73c1-.93,1.91-1.89,2.83-2.86l.25.22a12.8,12.8,0,0,0,7.1,2.9,9.74,9.74,0,0,0,2,0,10.81,10.81,0,0,0,2.08-.43,11.18,11.18,0,0,0,3.78-2,10.52,10.52,0,0,0,2.78-3.55,7.63,7.63,0,0,0,.41-1.07,8.75,8.75,0,0,0,.3-1.17,10.76,10.76,0,0,0,.17-2.34,9.72,9.72,0,0,0-1.33-4.5,7.86,7.86,0,0,0-1.5-1.85l-.22-.2-.14-.12-.11-.08-.43-.31a7.2,7.2,0,0,0-1.09-.58,7.79,7.79,0,0,0-4.57-.48,7,7,0,0,0-4,2.33l-.1.12-.1.14-.15.23a2.65,2.65,0,0,0-.3.5l-.28.57-.2.58a6.69,6.69,0,0,0-.3,2.39,7.49,7.49,0,0,0,.15,1.17l-2.3,2.23c-.64.64-1.27,1.27-1.91,1.89a16.28,16.28,0,0,1-2.07-3,17.58,17.58,0,0,1-1.08-2.63c-.07-.22-.13-.43-.2-.64s-.1-.48-.16-.72l-.07-.35a1.32,1.32,0,0,1,0-.13l0-.17c0-.22-.06-.45-.1-.67a18.47,18.47,0,0,1,1.19-9.13,18.71,18.71,0,0,1,3.11-5.18c.37-.44.69-.78.94-1l.43.33a77.68,77.68,0,0,0,10,6.3,34,34,0,0,0,11.89,4,18.6,18.6,0,0,0,6.47-.34,9,9,0,0,0,3.08-1.38,6.66,6.66,0,0,0,2.21-2.73c.12-.28.21-.56.32-.84l0-.11a.84.84,0,0,1,0-.1l0-.06,0-.2.08-.41a7.26,7.26,0,0,0,.16-1.81A7.8,7.8,0,0,0,348.77,542.34Zm-4.95-1.63a6.59,6.59,0,0,1-1.57,5.2,5.44,5.44,0,0,1-4.82,1.54,8.31,8.31,0,0,1-1.29-.3l-.31-.1-.34-.13-.61-.28c-.27-.13-.55-.29-.82-.43a8,8,0,0,0-1.13-4.46,7.55,7.55,0,0,0-1.59-2,11,11,0,0,0-1.85-1.38,9.91,9.91,0,0,0-4-1.28c-.3,0-.6-.06-.9-.08a29.72,29.72,0,0,1,6.78-.69,25.72,25.72,0,0,1,11.5,3c.27.14.53.29.79.44C343.73,540.11,343.79,540.41,343.82,540.71Zm-15.93,7.8a1.36,1.36,0,0,1-.28-1.53,1.67,1.67,0,0,1,1.52-.72,7.15,7.15,0,0,1,2.42.71l.55.28a2.87,2.87,0,0,1-.2.39l-.13.22-.14.18c-.05.06-.08.12-.14.19l-.23.22a2.56,2.56,0,0,1-1.76.76A1.92,1.92,0,0,1,327.89,548.51Zm-13.47-11.42a24.12,24.12,0,0,0,5.33-2.28,42.43,42.43,0,0,1,5.18-2.69A17,17,0,0,1,330.7,531a16.3,16.3,0,0,1,5.85,1,12.6,12.6,0,0,1,4.92,3.34,9.11,9.11,0,0,1,1.28,1.85,28.38,28.38,0,0,0-5-2c-.57-.17-1-.26-1.54-.4s-1.06-.2-1.59-.3a28.25,28.25,0,0,0-3.15-.32,27.56,27.56,0,0,0-6.12.43,28.87,28.87,0,0,0-5.66,1.62,27.55,27.55,0,0,0-6.07,3.28h0a.18.18,0,0,0-.07.05l-2.82-2.22a7.89,7.89,0,0,0,.85.08A10.3,10.3,0,0,0,314.42,537.09Zm-22.57-39.22a5,5,0,0,1-.18.92l-.12.42a1.94,1.94,0,0,1-.17.47l-.46,1v0l0,.05-.07.09-.12.19a2,2,0,0,1-.28.36,4.42,4.42,0,0,1-3.1,1.6,4.1,4.1,0,0,1-1.76-.28,4.76,4.76,0,0,1-1.49-.95l-.41-.46s-.15-.23-.23-.33a3.12,3.12,0,0,1-.39-.8,3.63,3.63,0,0,1-.15-1.8,4.73,4.73,0,0,1,2.05-3.2A7.66,7.66,0,0,1,289,494a9.19,9.19,0,0,1,2.67.46A9.93,9.93,0,0,1,291.85,497.87Zm-13.21-1.72c.05-.18.11-.36.16-.54l0-.1.05-.14.11-.28a9.5,9.5,0,0,1,.45-1,11.55,11.55,0,0,1,1.07-1.72,11.1,11.1,0,0,1,2.66-2.43,9,9,0,0,1,4.83-1.48,11.41,11.41,0,0,1,1.2.07,24,24,0,0,1,1.41,2.71,10.42,10.42,0,0,0-1.58-.13,10.25,10.25,0,0,0-5.62,1.63,7.6,7.6,0,0,0-3.29,5.17,6.68,6.68,0,0,0,.32,3.2,6.61,6.61,0,0,0,.72,1.43,6,6,0,0,0,.5.65l.42.46a7.22,7.22,0,0,0,2.55,1.63,6.68,6.68,0,0,0,2.86.41,6.82,6.82,0,0,0,4.87-2.63,4.3,4.3,0,0,0,.41-.57l.18-.3.09-.15,0-.07.08-.16c.15-.36.31-.71.46-1.06a4.29,4.29,0,0,0,.21-.61l.18-.68a6.93,6.93,0,0,0,.22-1.3,12.66,12.66,0,0,0,0-2.54,15.46,15.46,0,0,1,7.24,11.64,17.08,17.08,0,0,1-.24,5.24,20.57,20.57,0,0,1-5.06,9.4c-.51.56-1,1.1-1.58,1.63-1-.91-1.92-1.78-2.86-2.64-1.78-1.64-3.52-3.18-5.11-4.75a41.11,41.11,0,0,1-4.25-4.85,21.85,21.85,0,0,1-1.67-2.51,21.46,21.46,0,0,1-1.25-2.61A15.4,15.4,0,0,1,278.64,496.15Zm-115.5,4.53s0,0,0,0l-.45-1a1.94,1.94,0,0,1-.17-.47l-.12-.42a5,5,0,0,1-.18-.92,9.93,9.93,0,0,1,.18-3.43A9.18,9.18,0,0,1,165,494a7.67,7.67,0,0,1,4.08,1.17,4.73,4.73,0,0,1,2,3.2,3.63,3.63,0,0,1-.15,1.8,3.12,3.12,0,0,1-.39.8,2.87,2.87,0,0,1-.24.33l-.4.46a4.76,4.76,0,0,1-1.49.95,4.12,4.12,0,0,1-1.77.28,4.42,4.42,0,0,1-3.09-1.6,2,2,0,0,1-.28-.36l-.12-.19-.07-.09Zm-5.25,21.23a20.48,20.48,0,0,1-5.06-9.4,17.08,17.08,0,0,1-.24-5.24,15.46,15.46,0,0,1,7.24-11.64,12.66,12.66,0,0,0,0,2.54,6.93,6.93,0,0,0,.22,1.3l.18.68a4.29,4.29,0,0,0,.21.61c.15.35.31.7.46,1.06l.08.16,0,.07.09.15.18.3a4.3,4.3,0,0,0,.41.57,6.82,6.82,0,0,0,4.87,2.63,6.68,6.68,0,0,0,2.86-.41,7.22,7.22,0,0,0,2.55-1.63l.41-.46a5.11,5.11,0,0,0,.51-.65,6.61,6.61,0,0,0,.72-1.43,6.68,6.68,0,0,0,.32-3.2,7.6,7.6,0,0,0-3.29-5.17,10.25,10.25,0,0,0-5.62-1.63,10.42,10.42,0,0,0-1.58.13,24,24,0,0,1,1.41-2.71,11.41,11.41,0,0,1,1.2-.07,9,9,0,0,1,4.83,1.48,11.1,11.1,0,0,1,2.66,2.43,11.55,11.55,0,0,1,1.07,1.72,9.5,9.5,0,0,1,.45,1l.11.28.05.14,0,.1c.05.18.11.36.16.54a15.4,15.4,0,0,1-.8,10,21.46,21.46,0,0,1-1.25,2.61,21.85,21.85,0,0,1-1.67,2.51,42,42,0,0,1-4.25,4.85c-1.59,1.57-3.33,3.11-5.11,4.75-.94.86-1.9,1.73-2.86,2.64C158.93,523,158.39,522.47,157.89,521.91Zm-45.31,13.47A12.6,12.6,0,0,1,117.5,532a16.26,16.26,0,0,1,5.85-1,17,17,0,0,1,5.77,1.08,42.43,42.43,0,0,1,5.18,2.69,24.12,24.12,0,0,0,5.33,2.28,10.3,10.3,0,0,0,2.88.37,7.89,7.89,0,0,0,.85-.08l-2.82,2.22a.18.18,0,0,0-.07-.05h0a27.48,27.48,0,0,0-6.06-3.28,28.87,28.87,0,0,0-5.66-1.62,27.56,27.56,0,0,0-6.12-.43,28.25,28.25,0,0,0-3.15.32c-.53.1-1.08.18-1.59.3s-1,.23-1.54.4a28.38,28.38,0,0,0-5,2A9.11,9.11,0,0,1,112.58,535.38Zm13.58,13.13a1.92,1.92,0,0,1-1.61.7,2.56,2.56,0,0,1-1.76-.76l-.23-.22c-.06-.07-.09-.13-.14-.19l-.14-.18-.13-.22a2.87,2.87,0,0,1-.2-.39l.55-.28a7.15,7.15,0,0,1,2.42-.71,1.67,1.67,0,0,1,1.52.72A1.36,1.36,0,0,1,126.16,548.51Zm-6.17-2.3c-.27.14-.55.3-.83.43l-.6.28-.34.13-.31.1a8.31,8.31,0,0,1-1.29.3,5.44,5.44,0,0,1-4.82-1.54,6.59,6.59,0,0,1-1.57-5.2c0-.3.09-.6.15-.9.26-.15.52-.3.79-.44a25.69,25.69,0,0,1,11.5-3,29.72,29.72,0,0,1,6.78.69c-.3,0-.6,0-.9.08a9.91,9.91,0,0,0-4,1.28,11,11,0,0,0-1.85,1.38,7.55,7.55,0,0,0-1.59,2A8,8,0,0,0,120,546.21Zm-3.41,7a16.43,16.43,0,0,1-6.21-.46,6.58,6.58,0,0,1-4.48-3.81c-.08-.24-.14-.49-.22-.73l0-.09h0v0l0-.21-.06-.41a5.84,5.84,0,0,1,0-1.49,6.33,6.33,0,0,1,1-2.73,10.42,10.42,0,0,1,2.37-2.41,8,8,0,0,0,1.76,6.22,6.36,6.36,0,0,0,2.86,1.86,7.92,7.92,0,0,0,3.27.31,10.68,10.68,0,0,0,1.59-.33l.39-.13.35-.12c.26-.1.51-.21.74-.32l.52-.25a3.48,3.48,0,0,0,.24.52l.19.34.26.34a2.78,2.78,0,0,0,.26.32l.22.23A4.25,4.25,0,0,0,124,551,23,23,0,0,1,116.58,553.17Zm11.61-4.48.07-.18.12-.48a3.1,3.1,0,0,0-.34-2,3.22,3.22,0,0,0-1.45-1.32,3.71,3.71,0,0,0-1.84-.33,8.4,8.4,0,0,0-3,.93l-.1.05a6.64,6.64,0,0,1,.79-2.8,6.13,6.13,0,0,1,1.23-1.64,9.25,9.25,0,0,1,1.58-1.28,9.44,9.44,0,0,1,3.47-1.33,15.61,15.61,0,0,1,4.71-.07l.23.07a29.51,29.51,0,0,1,5.25,2.6L137.46,542A101.14,101.14,0,0,1,128.19,548.69Zm10.51,19.74a10.22,10.22,0,0,1-5.77,2.26l-.8,0a7.91,7.91,0,0,1-.83-.06,8.28,8.28,0,0,1-1.56-.31,9.48,9.48,0,0,1-3-1.53,7.66,7.66,0,0,1-3.07-6,8,8,0,0,1,.79-3.59,5.88,5.88,0,0,1,1.06-1.51l.16-.17,0-.06.1-.08.4-.34a6.47,6.47,0,0,1,.75-.46,6.34,6.34,0,0,1,3.73-.66,5.44,5.44,0,0,1,3.43,1.75,5.37,5.37,0,0,1,1.26,4.22l-.19-.18c-.55-.51-1.08-1.05-1.73-1.58a9.53,9.53,0,0,0-2.12-1.31,4.48,4.48,0,0,0-2.61-.38,3.28,3.28,0,0,0-.68.19,3.75,3.75,0,0,0-.64.35l-.23.16a2.81,2.81,0,0,0-.29.26,3.31,3.31,0,0,0-.45.53,5.1,5.1,0,0,0-.31,5.06,4.9,4.9,0,0,0,4,2.64,5.36,5.36,0,0,0,4.37-1.74,6.78,6.78,0,0,0,.84-1.15l1.56,1.73,1.75,1.92Zm-3.89-4.38a5.38,5.38,0,0,1-.85,1.21,5,5,0,0,1-1.68,1.13,4.72,4.72,0,0,1-1,.26,3.71,3.71,0,0,1-1,0,3.89,3.89,0,0,1-3.13-2.17,3.79,3.79,0,0,1,.38-3.73,1.88,1.88,0,0,1,.31-.32l.14-.12.24-.15a2.18,2.18,0,0,1,.36-.17,3,3,0,0,1,.41-.08,3.1,3.1,0,0,1,1.75.39,7.75,7.75,0,0,1,1.65,1.19c.5.46,1,1,1.54,1.59Zm17.48-7.74a12.05,12.05,0,0,0,7.41,3.75,10.79,10.79,0,0,0,4.52-.37c-.12.17-.26.33-.37.5a9.4,9.4,0,0,0-1.61,6.24,5.68,5.68,0,0,0,.19,1,4.65,4.65,0,0,0,.21.68l.21.54.27-.11L163,568a3.27,3.27,0,0,1-.12-.66,6.3,6.3,0,0,1-.07-.93,8.54,8.54,0,0,1,2-5.48,9.08,9.08,0,0,1,1.39-1.38A8.88,8.88,0,0,1,167,559a9.6,9.6,0,0,1,1-.49,6.7,6.7,0,0,1,4.46-.12,9.67,9.67,0,0,1,4.4,2.79c.14.18.26.29.42.52l.23.32.06.08,0,0s0,0,0,0l.09.16a9.84,9.84,0,0,1,.67,1.29,12,12,0,0,1,.5,1.39,14.48,14.48,0,0,1,.26,1.49,12.47,12.47,0,0,1-5.47,11.39,15.08,15.08,0,0,1-6.69,2.44,21,21,0,0,1-7.63-.66c-5.19-1.28-10-4.52-14.29-8.47-1-.85-1.88-1.74-2.81-2.64a17.83,17.83,0,0,0,2.32-3.61,16.51,16.51,0,0,0,1.11-3.11l.2-.8c0-.24.07-.48.11-.72l.06-.36,0-.22v-.19c0-.25.05-.5.07-.75a18.21,18.21,0,0,0-.42-5.52,18.53,18.53,0,0,0-1.57-4.36,17.5,17.5,0,0,0-3.81-5.07c-.41-.36-.75-.64-1-.85l1.23-.94c.64.46,1.24.94,1.81,1.44a23,23,0,0,1,5.26,6.81,20.77,20.77,0,0,1,1.9,6.49,22.54,22.54,0,0,1,.18,2.54c0,.75,0,1.39-.07,1.9-.1,1-.16,1.58-.16,1.58l.2,0s.12-.54.34-1.57c.1-.51.16-1.16.26-1.92a24.33,24.33,0,0,0,.06-2.64,19.52,19.52,0,0,0-.61-4.19A14.06,14.06,0,0,0,152.29,556.31Zm-1.35-22.16-.93,2c-.28.65-.47,1.25-.71,1.88l-.17.47,0,.12-.05.13,0,.06L149,539c-.09.35-.2.68-.27,1a19.94,19.94,0,0,0-.25,8.6c0,.17.08.35.12.52a19.94,19.94,0,0,0-1.89-3.41,25.71,25.71,0,0,0-3.16-3.71c-.46-.44-.95-.87-1.46-1.29,1.66-1.32,3.24-2.62,4.74-3.85,1.85-1.54,3.56-3,5.12-4.42Zm35.15,5.42c-3.34-1.59-6.73-3.13-10.06-4.83a97.34,97.34,0,0,1-9.69-5.63c-1.49-1-2.94-2.09-4.32-3.24l2.56-2.33c1.79-1.61,3.56-3.22,5.18-4.95a39.46,39.46,0,0,0,4.45-5.38,17.81,17.81,0,0,0,1-1.52c.4,13.94,9.07,23.78,19.07,32.15-1-.62-2.12-1.22-3.2-1.81C189.43,541.18,187.76,540.37,186.09,539.57Zm41.24,29.87-.3.49-.31-.49c-4.86-7.71-12.91-13.83-21.42-20.3-16.38-12.47-33.32-25.35-25.6-50.27,3.78-12.19,12.72-19.76,23.34-19.76,9.56,0,18.3,6.32,22.8,16.51L227,498.3l1.19-2.68c4.5-10.19,13.24-16.51,22.8-16.51,10.62,0,19.56,7.57,23.34,19.76,7.72,24.92-9.22,37.8-25.6,50.27C240.24,555.61,232.19,561.73,227.33,569.44Zm60.38-40.33a97.34,97.34,0,0,1-9.69,5.63c-3.33,1.7-6.72,3.24-10.06,4.83-1.67.8-3.34,1.61-5,2.46-1.08.59-2.15,1.19-3.2,1.81,10-8.37,18.67-18.21,19.07-32.15a17.81,17.81,0,0,0,1,1.52,39.46,39.46,0,0,0,4.45,5.38c1.62,1.73,3.39,3.34,5.18,4.95l2.56,2.33C290.65,527,289.2,528.1,287.71,529.11Zm15.4,5-1-1.65c1.56,1.4,3.27,2.88,5.12,4.42,1.5,1.23,3.08,2.53,4.73,3.85-.5.42-1,.85-1.45,1.29a25.71,25.71,0,0,0-3.16,3.71,19.94,19.94,0,0,0-1.89,3.41c0-.17.09-.35.12-.52a19.94,19.94,0,0,0-.25-8.6c-.07-.36-.18-.69-.27-1l-.07-.26,0-.06-.05-.13,0-.12-.17-.47c-.24-.63-.43-1.23-.71-1.88Zm13.95,32.32,1.56-1.73a6.78,6.78,0,0,0,.84,1.15,5.34,5.34,0,0,0,4.37,1.74,4.88,4.88,0,0,0,4-2.64,5.08,5.08,0,0,0-.3-5.06,3.31,3.31,0,0,0-.45-.53,2.81,2.81,0,0,0-.29-.26l-.23-.16a3.75,3.75,0,0,0-.64-.35,3.28,3.28,0,0,0-.68-.19,4.48,4.48,0,0,0-2.61.38,9.53,9.53,0,0,0-2.12,1.31c-.65.53-1.18,1.07-1.73,1.58l-.19.18a5.37,5.37,0,0,1,1.26-4.22,5.44,5.44,0,0,1,3.43-1.75,6.3,6.3,0,0,1,3.72.66,6.64,6.64,0,0,1,.76.46l.4.34.1.08.05.06.16.17a5.88,5.88,0,0,1,1.06,1.51,8,8,0,0,1,.79,3.59,7.69,7.69,0,0,1-3.07,6,9.48,9.48,0,0,1-3,1.53,8.44,8.44,0,0,1-1.56.31,7.91,7.91,0,0,1-.83.06l-.8,0a10.22,10.22,0,0,1-5.77-2.26l-.05,0Zm2.18-2.42.86-.95c.53-.55,1-1.13,1.54-1.59a7.75,7.75,0,0,1,1.65-1.19,3.1,3.1,0,0,1,1.75-.39,3,3,0,0,1,.41.08,2.18,2.18,0,0,1,.36.17l.24.15.14.12a1.88,1.88,0,0,1,.31.32,3.79,3.79,0,0,1,.38,3.73,3.89,3.89,0,0,1-3.14,2.17,3.65,3.65,0,0,1-1,0,4.72,4.72,0,0,1-1-.26,5,5,0,0,1-1.68-1.13A5.38,5.38,0,0,1,319.24,564.05Zm-5.49-20.28a17.5,17.5,0,0,0-3.81,5.07,18.53,18.53,0,0,0-1.57,4.36,18.21,18.21,0,0,0-.42,5.52l.06.75,0,.19,0,.22.06.36c0,.24.07.48.11.72l.2.8a16.51,16.51,0,0,0,1.11,3.11,17.83,17.83,0,0,0,2.32,3.61c-.93.9-1.86,1.79-2.81,2.64-4.33,4-9.1,7.19-14.29,8.47a21,21,0,0,1-7.63.66,15.08,15.08,0,0,1-6.69-2.44A12.47,12.47,0,0,1,275,566.42a14.48,14.48,0,0,1,.26-1.49,12,12,0,0,1,.5-1.39,9.84,9.84,0,0,1,.67-1.29l.09-.16h0l0,0,.06-.08.23-.32c.16-.23.28-.34.42-.52a9.67,9.67,0,0,1,4.4-2.79,6.7,6.7,0,0,1,4.46.12,9.6,9.6,0,0,1,1,.49,8.88,8.88,0,0,1,.83.58,9,9,0,0,1,3.37,6.86,6.3,6.3,0,0,1-.07.93,3.27,3.27,0,0,1-.12.66l-.14.54.27.11.21-.54a4.65,4.65,0,0,0,.21-.68,5.68,5.68,0,0,0,.19-1,9.4,9.4,0,0,0-1.61-6.24c-.11-.17-.25-.33-.37-.5a10.77,10.77,0,0,0,4.52.37,12.05,12.05,0,0,0,7.41-3.75,14.06,14.06,0,0,0,2.61-3.85,19.52,19.52,0,0,0-.61,4.19,24.33,24.33,0,0,0,.06,2.64c.1.76.16,1.41.26,1.92.22,1,.34,1.57.34,1.57l.2,0s-.06-.55-.16-1.58c0-.51,0-1.15-.08-1.9a25.42,25.42,0,0,1,.19-2.54,20.77,20.77,0,0,1,1.9-6.49,23,23,0,0,1,5.26-6.81c.57-.5,1.17-1,1.81-1.44l1.23.94C314.5,543.13,314.16,543.41,313.75,543.77Zm2.84-1.75-1.44-1.13a29.51,29.51,0,0,1,5.25-2.6l.23-.07a15.61,15.61,0,0,1,4.71.07,9.44,9.44,0,0,1,3.47,1.33,9.65,9.65,0,0,1,1.58,1.28,6.35,6.35,0,0,1,1.23,1.64,6.64,6.64,0,0,1,.79,2.8l-.1-.05a8.47,8.47,0,0,0-3-.93,3.71,3.71,0,0,0-1.84.33A3.22,3.22,0,0,0,326,546a3.1,3.1,0,0,0-.34,2l.11.48.08.18A101.14,101.14,0,0,1,316.59,542Zm31.91,5.39-.06.41,0,.21v0h0l0,.09c-.08.24-.14.49-.22.73a6.58,6.58,0,0,1-4.48,3.81,16.43,16.43,0,0,1-6.21.46,23,23,0,0,1-7.41-2.16,4.2,4.2,0,0,0,2.41-1.24l.23-.23a2.78,2.78,0,0,0,.26-.32l.26-.34.19-.34a3.48,3.48,0,0,0,.24-.52l.52.25c.23.11.48.22.74.32l.35.12.39.13a10.68,10.68,0,0,0,1.59.33,7.94,7.94,0,0,0,3.27-.31,6.27,6.27,0,0,0,2.85-1.86,8,8,0,0,0,1.77-6.22,10.42,10.42,0,0,1,2.37,2.41,6.46,6.46,0,0,1,1,2.73A5.84,5.84,0,0,1,348.5,547.41Z" transform="translate(0)" style="fill:url(#Brass_Radial_2)"/><path d="M242.43,34.05a2.08,2.08,0,0,1-1.21-2.63,2,2,0,0,1,2.55-1.25,10.14,10.14,0,0,1,2.31,1.21,9.33,9.33,0,0,1,3.56,4.91,9.48,9.48,0,0,1-.11,5.84,9.81,9.81,0,0,1-1,2.08h0A10.7,10.7,0,0,1,241,48.75a12.7,12.7,0,0,1-8.72-2.11,16.55,16.55,0,0,1-1.59-1.2h0a15.66,15.66,0,0,1-4-5.47V23.64h0a20.77,20.77,0,0,1,1.5-3,18,18,0,0,1,1.49-2.13c3-3.75,8.33-6,13.78-6.54s11.06.64,14.83,3.73c5.33,4.36,8.47,9.27,9.82,14.33a25.13,25.13,0,0,1-1.75,17.1,38.63,38.63,0,0,1-11.69,14.22,46.56,46.56,0,0,1-28,9.63V66.87a42.62,42.62,0,0,0,25.61-8.8,34.64,34.64,0,0,0,10.47-12.68,20.93,20.93,0,0,0,1.5-14.24c-1.13-4.26-3.83-8.44-8.44-12.21-2.94-2.41-7.51-3.3-12-2.86s-8.78,2.2-11.11,5.09a14.56,14.56,0,0,0-1.18,1.68,17.8,17.8,0,0,0-2.47,10.49,13,13,0,0,0,4.18,8.94h0a11.84,11.84,0,0,0,1.17.87,8.85,8.85,0,0,0,6.09,1.51,6.68,6.68,0,0,0,4.71-2.78h0a5.54,5.54,0,0,0,.55-1.15,5.17,5.17,0,0,0-1.92-6A6.5,6.5,0,0,0,242.43,34.05ZM226.67,40a15.69,15.69,0,0,1-4,5.47l-.12.09A15.86,15.86,0,0,1,221,46.64a12.7,12.7,0,0,1-8.72,2.11,10.7,10.7,0,0,1-7.49-4.54l-.08-.12a9.81,9.81,0,0,1-.95-2,9.55,9.55,0,0,1-.11-5.84,9.22,9.22,0,0,1,3.56-4.9h0a10.22,10.22,0,0,1,2.32-1.22,2,2,0,0,1,2.54,1.25,2.08,2.08,0,0,1-1.2,2.63,6.22,6.22,0,0,0-1.41.73h0a5.16,5.16,0,0,0-1.92,6,4.77,4.77,0,0,0,.5,1.07l.06.08a6.68,6.68,0,0,0,4.71,2.78,8.85,8.85,0,0,0,6.09-1.51,11.4,11.4,0,0,0,1.07-.79l.09-.09a13,13,0,0,0,4.19-8.94,17.8,17.8,0,0,0-2.47-10.49,14.56,14.56,0,0,0-1.18-1.68c-2.34-2.89-6.63-4.65-11.11-5.09s-9,.45-12,2.86c-4.61,3.77-7.31,8-8.45,12.21a21,21,0,0,0,1.51,14.24,34.64,34.64,0,0,0,10.47,12.68,42.63,42.63,0,0,0,25.62,8.8V71a46.56,46.56,0,0,1-28-9.63A38.63,38.63,0,0,1,187,47.15a25.13,25.13,0,0,1-1.75-17.1c1.35-5.06,4.49-10,9.82-14.33,3.77-3.09,9.42-4.26,14.83-3.73s10.76,2.79,13.78,6.54a18,18,0,0,1,1.49,2.13,21.92,21.92,0,0,1,1.51,3Z" transform="translate(0)" style="fill:url(#Brass_Radial_2-2)"/><path d="M195.18,52.51a2.09,2.09,0,0,1,.2,2.89,1.94,1.94,0,0,1-2.8.21L190.75,54c-8.34-7.55-19.61-17.74-32-12.64-7.32,3-10.8,11.17-14.4,19.58-4.28,10-8.71,20.37-19.87,24.58-7.39,2.79-12.71,1.8-16.09-1A11.61,11.61,0,0,1,105,79.7a14.45,14.45,0,0,1-.92-5.77h0c.2-4.74,2.61-9.48,6.94-11.63s7.86-1.6,10.28.21a8.33,8.33,0,0,1,2.41,2.93,9,9,0,0,1-3.8,11.86c-2.83,1.6-5.11,1.5-6.66.53a4.66,4.66,0,0,1-1.78-2.1,5.57,5.57,0,0,1-.41-2.6,6.7,6.7,0,0,1,4.07-5.56,2,2,0,0,1,2.61,1.07,2.07,2.07,0,0,1-1,2.69A2.65,2.65,0,0,0,115,73.44a1.42,1.42,0,0,0,.07.61.55.55,0,0,0,.21.24c.44.28,1.31.18,2.7-.61a4.79,4.79,0,0,0,2.17-6.38,4.19,4.19,0,0,0-1.22-1.46c-1.33-1-3.46-1.22-6.22.15s-4.55,4.76-4.69,8.11h0a10.09,10.09,0,0,0,.64,4.07,7.46,7.46,0,0,0,2.23,3.12c2.39,1.95,6.39,2.55,12.28.32,9.55-3.6,13.63-13.14,17.57-22.37s7.74-18.08,16.57-21.73c14.61-6,26.93,5.11,36.05,13.36Z" transform="translate(0)" style="fill:url(#Brass_Radial_2-3)"/><path d="M145.3,49.46a2,2,0,0,1,2.67-.92,2.09,2.09,0,0,1,.88,2.76c-.74,1.53-1,4.27-.58,7.31a20.14,20.14,0,0,0,2.3,7.09,12.59,12.59,0,0,0,5.08,5.12,13.23,13.23,0,0,0,8.13,1.11c5-.73,7.76-3.29,8.66-6.18a7.85,7.85,0,0,0-1.22-7c-1.74-2.32-4.94-3.7-9.24-2.68a3.15,3.15,0,0,0-2.52,2.46,3.41,3.41,0,0,0,0,1.35,3,3,0,0,0,.49,1.17,3.15,3.15,0,0,0,3.42,1,2,2,0,0,1,2.33,1.61,2,2,0,0,1-1.55,2.42,6.88,6.88,0,0,1-7.39-2.57,7.16,7.16,0,0,1-1.2-2.79,7.62,7.62,0,0,1,0-3,7.1,7.1,0,0,1,5.53-5.64c6-1.43,10.65.68,13.27,4.16a12,12,0,0,1,2.21,5.13,11.83,11.83,0,0,1-.35,5.63c-1.33,4.27-5.13,8-11.89,9a16.93,16.93,0,0,1-10.46-1.51,16.61,16.61,0,0,1-6.74-6.73,24.5,24.5,0,0,1-2.8-8.58C143.81,55.34,144.22,51.69,145.3,49.46Z" transform="translate(0)" style="fill:url(#Brass_Radial_2-4)"/><path d="M47.85,107.2a1.94,1.94,0,0,1-2.68-.86,2.1,2.1,0,0,1,.83-2.78c2.08-1.14,3-2.6,3-3.88a2.6,2.6,0,0,0-.37-1.34,2.86,2.86,0,0,0-1.11-1.07c-1.51-.86-4-.8-7,1.11a6.6,6.6,0,0,0-2.9,6.9,8.94,8.94,0,0,0,1.3,3.42,8.66,8.66,0,0,0,2.62,2.67c3,1.9,7.39,2.07,12.87-1.53,6.29-4.14,38.63-20.41,84-31.7,26.07-6.49,56.46-11.35,88.71-11.35s62.65,4.86,88.72,11.35c45.33,11.29,77.67,27.56,84,31.7,5.47,3.6,9.91,3.43,12.86,1.53a8.74,8.74,0,0,0,2.62-2.66h0a8.94,8.94,0,0,0,1.3-3.42,6.61,6.61,0,0,0-2.9-6.9c-3.07-1.91-5.54-2-7.06-1.11a2.83,2.83,0,0,0-1.1,1.07,2.6,2.6,0,0,0-.37,1.34c0,1.28.91,2.74,3,3.88a2.1,2.1,0,0,1,.83,2.78,2,2,0,0,1-2.69.86c-3.53-1.93-5.07-4.79-5.1-7.46h0v0h0A6.79,6.79,0,0,1,402,96.2a7.09,7.09,0,0,1,2.59-2.54c2.61-1.49,6.54-1.58,11,1.19a10.67,10.67,0,0,1,4.79,11.09,13.46,13.46,0,0,1-1.89,5h0a12.6,12.6,0,0,1-3.85,3.91c-4.11,2.65-10.08,3.06-17.1-1.56-6.16-4-37.93-20-82.75-31.16C289.05,75.72,259,70.91,227,70.91s-62,4.81-87.79,11.23C94.41,93.29,62.64,109.25,56.48,113.3c-7,4.62-13,4.21-17.1,1.57A12.77,12.77,0,0,1,35.52,111a13.29,13.29,0,0,1-1.89-5,10.67,10.67,0,0,1,4.79-11.09c4.47-2.77,8.39-2.68,11-1.19A7,7,0,0,1,52,96.2,6.92,6.92,0,0,1,53,99.7C53,102.38,51.41,105.26,47.85,107.2Z" transform="translate(0)" style="fill:url(#Brass_Radial_2-5)"/><path d="M231,0a24.79,24.79,0,0,1,.93,6.86,24.77,24.77,0,0,1-.93,6.85,17,17,0,0,1-2.75,5.64,2,2,0,0,1-1.55.77V14h0a14.78,14.78,0,0,0,.48-1.42,20.64,20.64,0,0,0,.77-5.68,20.53,20.53,0,0,0-.77-5.68" transform="translate(0)" style="fill:url(#Brass_Radial_2-6)"/><path d="M226.19,1.18a20.53,20.53,0,0,0-.77,5.68,20.64,20.64,0,0,0,.77,5.68,14.78,14.78,0,0,0,.48,1.42v6.16a1.93,1.93,0,0,1-1.25-.46,1.56,1.56,0,0,1-.33-.35,16.9,16.9,0,0,1-2.72-5.6,24.76,24.76,0,0,1-.94-6.85A24.78,24.78,0,0,1,222.37,0" transform="translate(0)" style="fill:url(#Brass_Radial_2-7)"/><path d="M260,55.61a1.94,1.94,0,0,1-2.8-.21,2.09,2.09,0,0,1,.2-2.89l1.82-1.64c9.12-8.25,21.44-19.4,36.05-13.36,8.83,3.65,12.63,12.55,16.56,21.73s8,18.77,17.58,22.37c5.89,2.23,9.89,1.63,12.28-.32A7.46,7.46,0,0,0,344,78.17a10.12,10.12,0,0,0,.64-4.07v0c-.15-3.33-1.78-6.63-4.69-8.08s-4.89-1.16-6.22-.15a4,4,0,0,0-1.22,1.47l0,.08a5,5,0,0,0-.44,1.84,4.91,4.91,0,0,0,2.64,4.45c1.39.79,2.27.89,2.71.61a.48.48,0,0,0,.2-.24,1.28,1.28,0,0,0,.08-.61,2.65,2.65,0,0,0-1.68-2.12,2.07,2.07,0,0,1-1-2.69,2,2,0,0,1,2.61-1.07,6.73,6.73,0,0,1,4.07,5.56,5.45,5.45,0,0,1-.42,2.6,4.58,4.58,0,0,1-1.77,2.1c-1.55,1-3.84,1.07-6.67-.53a9,9,0,0,1-3.85-11.73l.06-.14a8.27,8.27,0,0,1,2.41-2.92c2.42-1.81,6-2.35,10.28-.21s6.72,6.85,6.94,11.58v0a14.48,14.48,0,0,1-.92,5.78,11.61,11.61,0,0,1-3.46,4.83c-3.38,2.75-8.7,3.74-16.09,1-11.16-4.21-15.59-14.57-19.87-24.58-3.6-8.41-7.08-16.54-14.4-19.58-12.35-5.1-23.62,5.09-32,12.64Z" transform="translate(0)" style="fill:url(#Brass_Radial_2-8)"/><path d="M303.77,51.3a2.09,2.09,0,0,1,.88-2.76,2,2,0,0,1,2.67.92c1.08,2.23,1.49,5.88,1,9.72a24.5,24.5,0,0,1-2.8,8.58,16.57,16.57,0,0,1-6.75,6.73A16.89,16.89,0,0,1,288.29,76c-6.77-1-10.56-4.73-11.89-9a11.84,11.84,0,0,1-.35-5.63,12,12,0,0,1,2.21-5.13c2.62-3.48,7.23-5.59,13.27-4.16a7.12,7.12,0,0,1,5.53,5.64,7.82,7.82,0,0,1,0,3,7.31,7.31,0,0,1-1.2,2.79,6.88,6.88,0,0,1-7.39,2.57,2,2,0,0,1-1.55-2.42,2,2,0,0,1,2.33-1.61,3.15,3.15,0,0,0,3.42-1,3,3,0,0,0,.49-1.17,3.41,3.41,0,0,0,0-1.35,3.15,3.15,0,0,0-2.52-2.46c-4.31-1-7.5.36-9.25,2.68a7.89,7.89,0,0,0-1.21,7c.9,2.89,3.65,5.45,8.66,6.18A13.23,13.23,0,0,0,297,70.82a12.59,12.59,0,0,0,5.08-5.12,20.14,20.14,0,0,0,2.3-7.09C304.76,55.57,304.51,52.83,303.77,51.3Z" transform="translate(0)" style="fill:url(#Brass_Radial_2-9)"/><path d="M13.79,639.89a9.6,9.6,0,0,1-5.8-2,8.77,8.77,0,0,1-2.59-3.65,11.63,11.63,0,0,1-.75-4.74v0c.17-3.9,2.07-7.74,5.47-9.43,3.22-1.61,5.7-1.35,7.26-.18a4.91,4.91,0,0,1,1.41,1.72l.05.09a5.56,5.56,0,0,1,.51,2.14,5.7,5.7,0,0,1-3.08,5.2c-1.62.92-2.65,1-3.16.71a.67.67,0,0,1-.24-.28,1.56,1.56,0,0,1-.09-.71,3.11,3.11,0,0,1,2-2.47A2.43,2.43,0,0,0,16,623.1a2.28,2.28,0,0,0-3-1.24,7.86,7.86,0,0,0-4.76,6.48,6.5,6.5,0,0,0,.49,3,5.33,5.33,0,0,0,2.08,2.45c1.81,1.13,4.46,1.25,7.77-.62A10.47,10.47,0,0,0,23,619.52a1,1,0,0,0-.07-.15A9.44,9.44,0,0,0,20.1,616c-2.82-2.12-7-2.75-12-.25S.27,623.7,0,629.22v.06A16.72,16.72,0,0,0,1.09,636a13.5,13.5,0,0,0,4,5.63,14.1,14.1,0,0,0,9,3.05h426a14.2,14.2,0,0,0,8.84-3.05,13.57,13.57,0,0,0,4-5.63,16.72,16.72,0,0,0,1.07-6.74v-.06c-.25-5.52-3.06-11-8.09-13.51s-9.17-1.87-12,.25a9.44,9.44,0,0,0-2.81,3.41,1,1,0,0,0-.07.15,10.47,10.47,0,0,0,4.49,13.69c3.31,1.87,6,1.75,7.77.62a5.39,5.39,0,0,0,2.08-2.45,6.5,6.5,0,0,0,.49-3,7.88,7.88,0,0,0-4.76-6.48,2.28,2.28,0,0,0-3,1.24,2.42,2.42,0,0,0,1.21,3.15,3.07,3.07,0,0,1,1.95,2.47,1.44,1.44,0,0,1-.08.71.6.6,0,0,1-.24.28c-.52.33-1.54.21-3.16-.71a5.7,5.7,0,0,1-3.08-5.2,5.38,5.38,0,0,1,.51-2.14l.05-.09a4.8,4.8,0,0,1,1.41-1.72c1.56-1.17,4-1.43,7.26.18,3.39,1.69,5.3,5.53,5.47,9.43v0a11.8,11.8,0,0,1-.75,4.74,8.7,8.7,0,0,1-2.6,3.65,9.55,9.55,0,0,1-5.79,2H13.79Z" transform="translate(0)" style="opacity:0.71;fill:url(#Brass_Radial_2-10)"/></svg>