<?xml version="1.0" encoding="utf-8"?>
<!-- Generator: Adobe Illustrator 23.0.0, SVG Export Plug-In . SVG Version: 6.00 Build 0)  -->
<svg version="1.1" id="Layer_1" xmlns="http://www.w3.org/2000/svg" xmlns:xlink="http://www.w3.org/1999/xlink" x="0px" y="0px"
	 viewBox="0 0 595.3 841.9" style="enable-background:new 0 0 595.3 841.9;" xml:space="preserve">
<style type="text/css">
	.st0{fill:none;stroke:#D65C1B;stroke-width:9.500000e-02;stroke-linecap:round;stroke-linejoin:round;}
	.st1{fill:none;stroke:#95621A;stroke-width:0.19;stroke-linecap:round;stroke-linejoin:round;}
	.st2{fill:#95621A;}
	.st3{fill:none;stroke:#D65C1B;stroke-width:0.19;}
	.st4{fill:#D65C1B;}
</style>
<g>
	<g>
		<path class="st0" d="M64.9,111.1l0.4,0.1l0.2,0.1c1,0.3,2,0.5,2.9,0.9c0.5,0.2,0.9,0.3,1.4,0.5l1.4,0.7c0.9,0.4,1.7,1,2.6,1.5
			c0.8,0.5,1.6,1.2,2.4,1.8c1.5,1.3,2.9,2.8,4.1,4.4c2.4,3.2,4.1,7,4.9,10.9c1.5,7.9-0.7,16.5-6.1,22.5c-2.7,3-6,5.5-9.7,7
			c-1.9,0.7-3.8,1.4-5.8,1.7l-1.5,0.2l-2.7,0.2l-1.4,0.1l-0.7,0l-0.2,0l-0.1,0c0,0,0,0.1,0,0.1l0,0.3l0,2.7l-0.2,53.2l-0.1,26.2
			l0,3.3l0,0.2c-4,0,5.4,0.1,4.4,0l0-0.1l0-0.1l0-0.4l0-0.8l0-1.6l0-6.5l0-13.1v0l0.1-41.1l0-10.3l0-5.1l0-3.2c0-0.4,0-0.7,0-1.1
			l-0.2-0.8l-0.2-0.8c0-0.1-0.1-0.3-0.1-0.4l-0.1-0.1l-0.1-0.1l-0.1,0l-3.8-0.5l-2.5-0.4l-0.6-0.1L53,163l-1.1-0.3
			c-0.8-0.2-1.5-0.5-2.2-0.7c-3-1.1-5.7-2.8-8.1-4.8c-2.4-2.1-4.4-4.6-5.9-7.3c-1.5-2.8-2.5-5.8-2.9-9c-0.4-3.1-0.3-6.3,0.3-9.4
			c0.6-3.1,1.9-6,3.6-8.7c3.4-5.3,8.8-9.4,14.8-11.2l2.3-0.6l2.3-0.4c0.1,0,0.5,0,0.9,0l1,0l2.1,0l1,0l0.5,0c0.1-0.1,0-0.3,0-0.5
			l0-2.1l0-11.4l0.2-58.3L62,9.1l0-0.5l0-0.2l0-0.1c-8.9,0-2.5,0-4.4,0l0,0.1l0,0.9l0,1.8l0,3.6l0,7.3l0,14.6l-0.2,65.6"/>
		<g>
			<g>
				<path class="st1" d="M59.7,109.5c1,0.1,2,0.1,3,0.2l1.5,0.2l0.7,0.1l0.7,0.2c7.4,1.8,13.8,6.8,17.5,13.4
					c3.7,6.6,4.4,14.8,2,21.9c-2.4,7.2-7.8,13.3-14.7,16.4c-0.4,0.2-0.9,0.4-1.3,0.5l-1.3,0.5c-0.9,0.3-1.8,0.5-2.7,0.8
					c-0.9,0.2-1.9,0.3-2.8,0.5c-0.2,0-0.6,0.1-0.9,0.1l-1,0.1l-2.1,0.1l-0.3,0c-0.1,0,0,0.2,0,0.2l0,0.5l0,1l0,2.1l0,3.1l0,5.9
					L57.8,225l-0.1,23.7l0,0.7l0,0.2l0,0.1l0,0c5.2,0,1.4,0,2.6,0l0-0.4l0-1.5l0-3l0-5.9l0-11.9v0l0.1-41.1l0-10.3l0-5.1l0-2.9
					l0-0.9l-0.1-0.8l-0.1-0.8c0-0.1,0-0.3-0.1-0.4c-0.1,0-0.1-0.1-0.3-0.1l-3.3-0.4l-0.4,0l-0.3,0l-0.6-0.1l-1.2-0.2l-0.6-0.1
					l-0.6-0.2l-1.2-0.3c-0.8-0.2-1.6-0.5-2.3-0.8c-3.1-1.1-5.9-2.8-8.4-5c-2.5-2.1-4.6-4.7-6.1-7.6c-1.6-2.9-2.6-6-3-9.3
					c-0.5-3.2-0.4-6.6,0.3-9.8c0.7-3.2,2-6.3,3.7-9c3.5-5.5,9.1-9.7,15.3-11.6c0.8-0.2,1.6-0.4,2.4-0.6l2.4-0.4c0.2,0,0.5,0,0.8-0.1
					l0.9,0l1.7-0.1l0.9,0l0.4,0c0.1,0,0.1-0.2,0.1-0.4l0-1.8l0-10.9l0.2-46.9L61,26.1l0-11.7l0-5.9l0-0.1l0,0l0,0
					c-5.2,0-1.4,0-2.6,0l0,0.2l0,0.4l0,0.7l0,1.5l0,2.9v0l-0.3,86.7l0,7.3"/>
				<g>
					<path class="st2" d="M59.7,109.8c-0.1,0-0.3-0.1-0.3-0.3c0-0.2,0.1-0.3,0.3-0.3c0.2,0,0.3,0.1,0.3,0.3
						C60,109.7,59.8,109.8,59.7,109.8z"/>
				</g>
				<g>
					<path class="st2" d="M57.9,107.9c0,0.2,0.1,0.3,0.3,0.3c0.2,0,0.3-0.1,0.3-0.3c0-0.2-0.1-0.3-0.3-0.3S57.9,107.8,57.9,107.9z"
						/>
				</g>
			</g>
		</g>
		<g>
			<g>
				<path class="st3" d="M62.2,111.1l0.2-0.1c1.4-1.2,1.1-3.2,0.2-4.6c-0.8-1.3-2.1-1.9-1.5-0.4c0.2,0.7,0.6,1.2,1.1,1.6
					c0.4,0.4,0.9,0.8,1.4,1c0.5,0.2,0.9,0.4,1.2,0.5c0.3,0.1,0.5,0.1,0.5,0.1l0.4,0.1l0.3,0.1c1,0.3,2.1,0.5,3.1,1
					c0.5,0.2,1,0.4,1.5,0.6l1.4,0.7c1,0.4,1.9,1.1,2.8,1.6c0.9,0.6,1.7,1.3,2.6,1.9c1.6,1.4,3.2,3,4.4,4.7c2.6,3.4,4.4,7.5,5.2,11.7
					c1.6,8.5-0.7,17.7-6.5,24.1c-2.8,3.2-6.4,5.9-10.4,7.5c-2,0.8-4.1,1.5-6.2,1.8l-1.6,0.3c-0.6,0.1-1.2,0.1-1.8,0.1l-0.9,0.1
					l-0.5,0l-0.1,0c0,0-0.1,0-0.1,0.1l0,0.2l0,1.8l-0.2,52.5l-0.1,26.2l0,3.3l0,0.2c-0.6,0,0.9,0.1,0.7,0l0-0.1l0-0.1l0-0.4l0-0.8
					l0-1.6l0-6.5l0-13.1v0l0.1-41.1l0-10.3l0-5.1l0-2.7c0-0.5,0-0.9,0-1.4l0-0.7c0-0.1,0-0.2,0-0.3l-0.3,0l-2.8-0.2
					c-0.9-0.1-1.7-0.2-2.5-0.4l-0.6-0.1l-0.6-0.2l-1.2-0.3c-0.8-0.2-1.6-0.5-2.4-0.8c-3.2-1.2-6.1-2.9-8.7-5.2
					c-2.6-2.2-4.7-4.9-6.3-7.8c-1.6-3-2.7-6.2-3.2-9.6c-0.5-3.3-0.4-6.8,0.3-10.1c0.7-3.3,2-6.5,3.9-9.3c3.7-5.7,9.4-10,15.9-11.9
					c0.8-0.2,1.6-0.4,2.5-0.6l2.5-0.4c0.9-0.1,1.9-0.1,2.8-0.1l0.7,0l0.4,0c0.1,0,0.1-0.2,0.1-0.3l0-1.4l0-10.5L60,38.2l0.1-29.1
					l0-0.5l0-0.2l0-0.1c-1.5,0-0.4,0-0.7,0.1l0,0.1l0,0.9l0,1.8l0,3.6l0,7.3l0,14.6l-0.2,65.6c0,0,0,3.4,2.7,4.5
					c3,1.2-2-4.4-4.8-1.8l-0.2,0.2"/>
				<g>
					<path class="st4" d="M61.6,111.7c0.4-0.2,0.9-0.3,1.3-0.3l-0.6-0.4c-0.1-0.2-0.2-0.5-0.2-0.7C62,110.7,61.8,111.3,61.6,111.7z"
						/>
				</g>
				<g>
					<path class="st4" d="M56.1,105.7c0.2-0.4,0.4-1,0.5-1.4l0.3,0.7l0.7,0.4C57.1,105.4,56.5,105.6,56.1,105.7z"/>
				</g>
			</g>
		</g>
	</g>
</g>
</svg>
