<svg id="Layer_1" data-name="Layer 1" xmlns="http://www.w3.org/2000/svg" viewBox="0 0 474.2 275.82"><title>bg5</title><path d="M94.58,18.67a219.81,219.81,0,0,0-7.42,35.65,188.28,188.28,0,0,0-2,35.34,166.07,166.07,0,0,0,7.3,41.72,152.54,152.54,0,0,0,11.47,26.39c4.74,8.8,9.78,17.45,15.17,25.86,4.19,6.51,8.46,13.23,14.23,18.47,18.95,17.21,38.18,34.94,62,45.18,6.92,3,14,5.53,21.12,8a120.86,120.86,0,0,0,23.15,5.47c8.55,1.24,17.45,2.48,26.09,2.21a.64.64,0,0,0,0-1.27c-7.35.23-14.89-.74-22.18-1.66a136.47,136.47,0,0,1-19-3.46c-6.66-1.82-13.18-4.38-19.63-6.83a153.25,153.25,0,0,1-34.43-18.12c-10.3-7.25-19.78-15.51-29.11-23.95-3.61-3.26-7.55-6.37-10.74-10.06a101.66,101.66,0,0,1-6.82-9.16c-5.54-8.15-10.62-16.63-15.47-25.21a187.32,187.32,0,0,1-11.56-23.11,155.88,155.88,0,0,1-9.89-41.32C84,72,88.37,44.76,94.81,18.73a.12.12,0,0,0-.23-.06Z" transform="translate(-50.43 -18.59)" style="fill:#aa865b"/><path d="M208.24,244.37c-3.09-5.11-6.65-9.57-8.39-15.43-1.55-5.26-2.07-14.7,5.56-15,6.22-.24,7.36,7.14,7.45,11.89.13,6.63-2.34,12.56-5,18.48a.3.3,0,0,0,.52.31,34.24,34.24,0,0,0,5.21-21.31c-.52-4.88-2.52-10.5-8.39-10-6.2.56-7.36,6.82-6.69,12,.87,6.69,4.51,14.62,9.48,19.28a.19.19,0,0,0,.29-.23Z" transform="translate(-50.43 -18.59)" style="fill:#aa865b"/><path d="M210.34,258.58c-3.33,4.39-6,9-10.27,12.62-4.1,3.52-12.75,8.48-16.67,2.11-3.7-6,3.56-10.34,8.29-12.26,6.05-2.46,12.41-2.35,18.81-2.07.33,0,.42-.54.08-.6a34.8,34.8,0,0,0-22.18,3.29c-4.48,2.41-8.87,6.7-5.53,11.95,3.46,5.44,10.32,3.05,14.71.21,5.29-3.42,10.74-9.17,13.09-15.11.09-.21-.22-.29-.33-.14Z" transform="translate(-50.43 -18.59)" style="fill:#aa865b"/><path d="M169.19,237.33c-2.16,4.52-3.69,9.12-6.62,13.26-3.11,4.4-10.22,11.72-15.94,7.33-6.4-4.91.42-11.52,5-14.51,5.41-3.55,11.58-4.7,17.85-5.7.34-.05.26-.6-.08-.59a35,35,0,0,0-20.19,7c-4.26,3.31-8.58,8.87-3.64,13.66,4.7,4.55,11,.42,14.71-3.38,4.25-4.38,8.23-10.83,9.3-16.93,0-.19-.24-.34-.34-.14Z" transform="translate(-50.43 -18.59)" style="fill:#aa865b"/><path d="M129.69,205.48c-4.32,4.15-7.91,8.6-13.25,11.61-4.77,2.67-14,5.36-16-2.08-1.55-6,5.44-8.66,10-9.81,6.47-1.63,12.83-.57,19.26.7a.3.3,0,0,0,.16-.58,34.83,34.83,0,0,0-22.08-.21c-4.59,1.58-9.69,4.73-7.89,10.32,2,6.26,9,5.56,14,3.54,6.09-2.46,12.71-7.55,16.08-13.26a.19.19,0,0,0-.29-.23Z" transform="translate(-50.43 -18.59)" style="fill:#aa865b"/><path d="M99.5,166.28c-5.73,1.8-10.91,4.21-17,4.54-5.4.3-14.72-1.25-13.43-8.66,1.12-6.41,9.06-5.61,13.82-4.52,6.36,1.46,11.48,5.17,16.56,9.07.28.22.6-.23.36-.47a34.76,34.76,0,0,0-19.38-9.91c-4.87-.67-11.11-.21-12,5.74-.93,6.21,5.07,8.73,10.23,9.27,6.75.69,15.31-1,21-4.73.17-.11.07-.4-.14-.33Z" transform="translate(-50.43 -18.59)" style="fill:#aa865b"/><path d="M78.82,119.05c-5.24-.37-10.28-.09-15.45-1.42-5-1.29-13.76-5.06-12.17-11.6,1.86-7.65,10.23-4.46,14.73-1.54,5.68,3.68,9.23,9.19,12.63,14.89.21.35.67.05.52-.3A34.26,34.26,0,0,0,64,102.36C59.3,99.92,53.13,98.94,50.89,105s4.21,10.27,9,12.19c5.6,2.22,13,3.47,18.94,2.24.21,0,.15-.35-.05-.36Z" transform="translate(-50.43 -18.59)" style="fill:#aa865b"/><path d="M79.17,65.41c-3.46-1.27-7-1.77-10.42-3.4s-9.45-5.56-8.31-10.18a4.87,4.87,0,0,1,7-3.17,16.18,16.18,0,0,1,4.81,3.78c3.52,3.77,5,8.44,6.63,13.23a.31.31,0,0,0,.59-.17,25.91,25.91,0,0,0-8.66-15.59c-3.16-2.62-7.6-4.07-10.19.15S62,58.41,65.24,60.69c3.71,2.61,9.25,5.15,13.88,5.08a.18.18,0,0,0,0-.36Z" transform="translate(-50.43 -18.59)" style="fill:#aa865b"/><path d="M110,154.68c-1.23-5.39-3-10.34-3.11-16-.06-5.27,1.54-14.59,8.6-14.05s6.31,8.59,4.84,13.55c-1.94,6.49-6.21,11.43-10.72,16.31a.3.3,0,0,0,.42.43,34.24,34.24,0,0,0,11.77-19.19c1-5,.35-10.84-5.7-11.65-6.21-.83-8.83,5.49-9.56,10.59-.91,6.33,0,14.44,3.12,20.12.1.19.38.06.34-.14Z" transform="translate(-50.43 -18.59)" style="fill:#aa865b"/><path d="M93.09,106.59c.53-5.19.42-10.22,1.94-15.3s5.73-13.7,12.38-11.6c7.59,2.4,3.53,10.85.36,15.13-3.88,5.25-9.4,8.44-15,11.51-.29.16-.09.68.23.55A34.67,34.67,0,0,0,110,93c2.78-4.59,4.44-11.07-1.79-13.65-6-2.48-10.48,3.7-12.6,8.49-2.42,5.48-3.94,12.81-2.9,18.8,0,.22.34.14.36,0Z" transform="translate(-50.43 -18.59)" style="fill:#aa865b"/><path d="M93.07,53.26c1.51-3.41,2.28-7,4.17-10.29,2.06-3.58,7-9.93,11.83-7.26,5.6,3.11.81,8.89-2.47,11.49-4,3.22-8.87,4.4-13.77,5.68-.32.08-.26.62.08.59a26.82,26.82,0,0,0,15.8-7c3.08-2.93,5.64-7.43,1.52-10.71s-8.74.52-11.38,3.73c-2.92,3.54-5.87,9-6.12,13.66,0,.17.27.26.34.09Z" transform="translate(-50.43 -18.59)" style="fill:#aa865b"/><path d="M166.36,221.91c-.4-3.11-1.54-6.07-1.86-9.21a30.37,30.37,0,0,1,.5-9.22c.51-2.59,1.31-5.42,3.2-7.37,2.07-2.15,5.75-3.2,8.52-1.8,6,3.06,1.17,12.2-1.1,16.19-2.15,3.78-5.14,8.82-9.18,10.76-.11.05,0,.24.08.2,4.84-1.85,8.4-8.37,10.78-12.64s5.69-12.48-.47-15.22c-5.16-2.31-9.92,1.86-11.62,6.44-2.46,6.65-2.48,15.59.9,21.94a.14.14,0,0,0,.25-.07Z" transform="translate(-50.43 -18.59)" style="fill:#aa865b"/><path d="M136.44,199.35c-.62-2.9-2-5.62-2.6-8.55a30.21,30.21,0,0,1-.48-9.39c.53-5.28,3.7-12.65,10.43-10.6s2.77,12.06.84,16.33c-1.78,3.94-4.34,9.29-8.15,11.57-.13.07,0,.25.11.19,2.49-1.22,4.28-4,5.72-6.28a54.93,54.93,0,0,0,4.16-8.07c1.8-4.31,3.83-12.35-2.24-14.35-5.47-1.8-9.81,3-11,7.8-1.69,6.76-1,15.55,3,21.45a.13.13,0,0,0,.24-.1Z" transform="translate(-50.43 -18.59)" style="fill:#aa865b"/><path d="M206.53,227.14c-.62,3.69.32,8.14.65,11.83.4,4.39.56,8.88,1.23,13.23.08.52.88.3.8-.22-1.26-8.18-1.61-16.59-2.57-24.82,0-.06-.1-.09-.11,0Z" transform="translate(-50.43 -18.59)" style="fill:#aa865b"/><path d="M199.31,265c3.13-1.18,6.12-3.2,9.14-4.67,2.77-1.36,6-2.46,8.33-4.47.28-.24-.09-.73-.4-.51a63.24,63.24,0,0,1-8.56,4.47c-2.68,1.31-6.64,2.62-8.68,4.89-.1.12,0,.36.17.29Z" transform="translate(-50.43 -18.59)" style="fill:#aa865b"/><path d="M157,246.91c5.9-3.12,11.18-9.74,18.35-9.9a.38.38,0,0,0,0-.75c-3.09-.28-6,1.56-8.49,3.08-3.24,1.95-7.78,4.27-10,7.48,0,.06,0,.12.09.09Z" transform="translate(-50.43 -18.59)" style="fill:#aa865b"/><path d="M169.82,207.34c-1.69,3.8-2.19,8.34-2.88,12.42-.55,3.31-1.56,7.21.75,10.1.18.22.49-.06.38-.29-1.87-3.6-.8-7.48-.15-11.25S169.25,211,170,207.4c0-.08-.11-.15-.15-.06Z" transform="translate(-50.43 -18.59)" style="fill:#aa865b"/><path d="M139.82,179.19c-1,1.16-1.17,3-1.44,4.41-.5,2.66-.87,5.36-1.21,8.05-.47,3.64-2.07,10.08.31,13.29.18.24.62.11.51-.21-1.35-4.27-.56-8.5-.06-12.82.31-2.64.64-5.28,1-7.91a24,24,0,0,1,.89-4.78s0-.06-.05,0Z" transform="translate(-50.43 -18.59)" style="fill:#aa865b"/><path d="M113.23,211c4.55-.89,9-2.43,13.53-3.45,4.1-.92,8.83-2.31,13-.79.34.13.58-.43.25-.59-3.78-1.82-8.4-.51-12.28.33-4.66,1-10.41,1.78-14.56,4.27a.13.13,0,0,0,.1.23Z" transform="translate(-50.43 -18.59)" style="fill:#aa865b"/><path d="M83.54,164.69a17.86,17.86,0,0,0,4.47.92c2.63.41,5.26.78,7.9,1.16,1.7.24,3.44.41,5.13.74,4,.79,7.69,2.93,11.6,4,.33.09.56-.41.24-.56-8.91-4.4-19.47-5.63-29.28-6.46-.1,0-.15.15-.06.19Z" transform="translate(-50.43 -18.59)" style="fill:#aa865b"/><path d="M113.07,139.07c-1.69,4.05-2.41,8.66-3.31,12.92-.48,2.27-1,4.54-1.37,6.82-.43,2.47-1.13,5.38-.33,7.77a.26.26,0,0,0,.51-.07,83.76,83.76,0,0,1,2.08-15.11c.81-4,1.2-8.47,2.62-12.27,0-.13-.15-.18-.2-.06Z" transform="translate(-50.43 -18.59)" style="fill:#aa865b"/><path d="M102,90.74a16.38,16.38,0,0,0-2.63,3.65c-1.5,2.38-2.91,4.83-4.31,7.27-2.13,3.69-5.6,8.44-5.89,12.83,0,.35.45.35.57.07a66,66,0,0,1,2.84-6.78c1.12-2.07,2.29-4.12,3.45-6.17,2-3.48,3.77-7.5,6.21-10.68.11-.15-.12-.3-.24-.19Z" transform="translate(-50.43 -18.59)" style="fill:#aa865b"/><path d="M64,111c.88,1.22,2.55,2.07,3.78,2.85,2.54,1.6,5.15,3.09,7.77,4.55,4.88,2.72,9.8,4.91,14.88,7.17.47.21.89-.48.41-.7-4.86-2.27-9.68-4.3-14.4-6.91-4.11-2.27-8.37-4.49-12.24-7.16-.12-.08-.29.08-.2.2Z" transform="translate(-50.43 -18.59)" style="fill:#aa865b"/><path d="M69.07,57.74c2.45,2.26,4.92,4.47,7.5,6.6,2.9,2.39,6,4.5,8.91,6.84.3.24.71-.15.43-.42-1.42-1.33-3.15-2.25-4.67-3.44S78.41,65.05,77,63.9c-2.59-2.11-5.34-4.07-7.87-6.23,0,0-.12,0-.07.07Z" transform="translate(-50.43 -18.59)" style="fill:#aa865b"/><path d="M102.31,42.52c-4.44,3.15-7.9,8.25-10.84,12.76-2,3.06-5.67,8-5.12,12,0,.19.3.16.35,0,2.74-9.75,9.55-16.87,15.66-24.64,0,0,0-.1,0-.07Z" transform="translate(-50.43 -18.59)" style="fill:#aa865b"/><path d="M128.92,223.8c5.77-6.1,13.82-7.32,21.78-5.56.54.12.77-.71.23-.82-7.94-1.65-17.13-.82-22.4,6.08-.18.23.2.51.39.3Z" transform="translate(-50.43 -18.59)" style="fill:#aa865b"/><path d="M129.08,224a2.78,2.78,0,0,0-3.2-1,4.7,4.7,0,0,0-3.22,2.71,3.46,3.46,0,0,0,2.37,4.75A5.15,5.15,0,0,0,130,229c1.42-1.59.77-3.86-.75-5.14-.2-.17-.55,0-.39.3.78,1.26,1.82,2.74.77,4.16a4.15,4.15,0,0,1-3.4,1.45,3,3,0,0,1-3-2.09c-.72-3,3.51-5.59,5.83-3.59a.08.08,0,1,0,.11-.11Z" transform="translate(-50.43 -18.59)" style="fill:#aa865b"/><path d="M148.05,226.19c-1.05.8-1.91,1.78-1.3,3.18a3.6,3.6,0,0,0,2.85,2c3.22.4,4.21-3.92,1.79-5.63a2.54,2.54,0,0,0-3.92,1,.14.14,0,0,0,.23.13c.64-.59,1.15-1.26,2.11-1.27a2.59,2.59,0,0,1,2.05,1.12,2.76,2.76,0,0,1-.94,4,3.16,3.16,0,0,1-3.33-.85c-1.13-1.14-.67-2.75.48-3.7,0,0,0,0,0,0Z" transform="translate(-50.43 -18.59)" style="fill:#aa865b"/><path d="M121,172.67c-.8-.44-1.74-.28-2-1.38a2,2,0,0,1,1-2.24,2.7,2.7,0,0,1,3.59,1.22,2.07,2.07,0,0,1-1,2.42,7.67,7.67,0,0,1-2.19.36c-.1,0-.07.15,0,.18,1.77.67,4.12-.61,3.82-2.69-.24-1.72-2.47-2.63-4-2.13a2.64,2.64,0,0,0-1.77,2.77c.13,1.06,1.53,2.38,2.62,1.58a.06.06,0,0,0,0-.09Z" transform="translate(-50.43 -18.59)" style="fill:#aa865b"/><path d="M120.36,173c-.64,3.22-2.08,6.29-1.16,9.65.07.26.42.14.38-.1a14.55,14.55,0,0,1,.43-6.33c.3-.93,1-2.3.41-3.23a0,0,0,0,0-.06,0Z" transform="translate(-50.43 -18.59)" style="fill:#aa865b"/><path d="M98.55,125.32c-2.21,1.7-5.17,3.9-5.61,6.89,0,.28.32.48.48.2a23.85,23.85,0,0,1,2.32-4c.9-1.06,1.89-2.08,2.82-3.12,0,0,0,0,0,0Z" transform="translate(-50.43 -18.59)" style="fill:#aa865b"/><path d="M76.17,93.08c1.67.47,3.43.49,5.09,1,2,.64,3,2,4.69,3a.17.17,0,0,0,.25-.2c-1.06-3.31-7.08-4.5-10-3.89,0,0,0,0,0,0Z" transform="translate(-50.43 -18.59)" style="fill:#aa865b"/><path d="M75.92,92.62c.26-1.23.2-2.61-1.2-3a2.72,2.72,0,0,0-3.48,2.3A3.2,3.2,0,0,0,73,95.25a2.92,2.92,0,0,0,3-.42,2.46,2.46,0,0,0,.16-3.47.13.13,0,0,0-.22.13c.27,1.11.61,2.15-.56,2.85a2.24,2.24,0,0,1-2.64-.15,2.52,2.52,0,0,1,.3-3.87c.72-.41,2.1-.5,2.52.37a7,7,0,0,1,.3,1.93,0,0,0,0,0,0,0Z" transform="translate(-50.43 -18.59)" style="fill:#aa865b"/><path d="M68.94,79.89c-1.06-.36-1.77.71-1.89,1.62a1.68,1.68,0,0,0,1.51,2.1,2.19,2.19,0,0,0,2.61-2.12,1.78,1.78,0,0,0-2.32-1.67c-.14.06,0,.25.07.26,1,.09,2.1.68,1.79,1.87A1.83,1.83,0,0,1,68.07,83a1.37,1.37,0,0,1-.57-1.7c.18-.84.73-1,1.45-1.34C69,80,69,79.9,68.94,79.89Z" transform="translate(-50.43 -18.59)" style="fill:#aa865b"/><path d="M187.86,225.57c-2.46-.49-1.47-4.66.62-5a2.65,2.65,0,0,1,2.94,2.93c-.38,1.76-2.06,2.18-3.6,2-.28,0-.3.38-.06.46a3.31,3.31,0,0,0,4.12-2.53,3,3,0,0,0-3.19-3.2c-2.64.17-4.05,5.61-.87,5.65.16,0,.2-.25,0-.28Z" transform="translate(-50.43 -18.59)" style="fill:#aa865b"/><path d="M480.24,18.73c4.93,20.15,8.73,41,9,61.84.24,22.55-4.15,46.2-13.9,66.62A314.9,314.9,0,0,1,451,188.94c-1.89,2.76-3.84,5.52-6,8.09a85.37,85.37,0,0,1-8.39,8.08c-8.24,7.48-16.53,14.94-25.39,21.7-9.89,7.55-20.3,14.29-31.75,19.22-12.82,5.52-26.23,10.63-40,12.87-.8.13-.46,1.35.34,1.22,12.58-2,24.59-6.54,36.37-11.33a144.93,144.93,0,0,0,29.13-16.09,284.17,284.17,0,0,0,25.63-20.8c6.25-5.59,12.77-10.88,17.79-17.64,9.89-13.32,18.31-28.08,25.79-42.87,9.93-19.65,14.61-41.67,15.5-63.59a190.29,190.29,0,0,0-2.16-33.88c-1.65-11.86-3.77-23.81-7.37-35.25a.12.12,0,0,0-.23.06Z" transform="translate(-50.43 -18.59)" style="fill:#aa865b"/><path d="M367.1,244.6c5-4.66,8.59-12.56,9.47-19.24.68-5.18-.46-11.47-6.68-12-5.73-.51-7.79,4.85-8.35,9.66a34.17,34.17,0,0,0,5.17,21.63.3.3,0,0,0,.52-.31c-2.7-5.92-5.18-11.85-5-18.48.09-4.76,1.23-12.12,7.45-11.89,7.63.29,7.1,9.75,5.55,15-1.73,5.86-5.29,10.32-8.38,15.43a.19.19,0,0,0,.29.23Z" transform="translate(-50.43 -18.59)" style="fill:#aa865b"/><path d="M364.37,258.72c2.36,5.94,7.81,11.69,13.1,15.11,4.39,2.84,11.25,5.23,14.71-.21,3.34-5.26-1.05-9.54-5.53-11.95a34.8,34.8,0,0,0-22.18-3.29c-.33.06-.26.61.08.6,6.4-.28,12.76-.39,18.81,2.07,4.77,1.93,11.94,6.21,8.29,12.26-3.87,6.4-12.6,1.38-16.68-2.11-4.25-3.65-6.93-8.23-10.26-12.62-.11-.15-.42-.07-.34.14Z" transform="translate(-50.43 -18.59)" style="fill:#aa865b"/><path d="M405.52,237.47c1.05,6,4.93,12.34,9.06,16.69,3.68,3.88,10.15,8.27,14.95,3.62s.81-10.13-3.37-13.45a34.93,34.93,0,0,0-20.46-7.21c-.34,0-.43.54-.08.59,6.15,1,12.24,2.09,17.58,5.53,4.59,3,11.74,9.67,5.22,14.68-5.61,4.31-12.62-2.72-15.74-7.05s-4.61-8.91-6.83-13.54c-.09-.2-.36-.05-.33.14Z" transform="translate(-50.43 -18.59)" style="fill:#aa865b"/><path d="M445.07,205.71c3.36,5.71,10,10.8,16.08,13.26,5,2,12,2.72,14-3.54,1.8-5.59-3.3-8.74-7.89-10.32a34.83,34.83,0,0,0-22.08.21.3.3,0,0,0,.16.58c6.42-1.27,12.79-2.33,19.26-.7,4.56,1.14,11.56,3.83,10,9.81-1.94,7.45-11.19,4.75-16,2.08-5.35-3-8.93-7.46-13.25-11.61a.19.19,0,0,0-.29.23Z" transform="translate(-50.43 -18.59)" style="fill:#aa865b"/><path d="M475.4,166.61c5.73,3.74,14.29,5.42,21,4.73,5.16-.54,11.15-3.06,10.22-9.27-.89-5.95-7.12-6.41-12-5.74a34.83,34.83,0,0,0-19.38,9.91c-.23.23.09.69.37.47,5.08-3.9,10.2-7.61,16.56-9.07,4.75-1.09,12.7-1.9,13.82,4.52,1.29,7.42-8,8.94-13.44,8.66-6.12-.31-11.32-2.74-17-4.54-.21-.07-.31.22-.15.33Z" transform="translate(-50.43 -18.59)" style="fill:#aa865b"/><path d="M496.18,119.41c6,1.23,13.34,0,18.94-2.24,4.83-1.91,11.3-6.1,9-12.19s-8.41-5.06-13.08-2.62A34.26,34.26,0,0,0,496,119.08c-.15.35.31.65.52.3,3.4-5.7,6.95-11.2,12.63-14.89,4.49-2.93,12.87-6.12,14.73,1.54,1.59,6.55-7.2,10.31-12.17,11.6-5.17,1.34-10.21,1.05-15.45,1.42-.2,0-.27.31-.05.36Z" transform="translate(-50.43 -18.59)" style="fill:#aa865b"/><path d="M495.92,65.77c4.63.07,10.18-2.46,13.88-5.08,3.24-2.29,7.23-6.46,4.68-10.63s-7-2.78-10.19-.15a25.93,25.93,0,0,0-8.66,15.59.31.31,0,0,0,.59.17c1.57-4.68,3-9.25,6.41-13a17,17,0,0,1,4.74-3.87c2.88-1.45,6.4-.38,7.24,3,1.11,4.5-4.64,8.35-8,10s-7.15,2.24-10.72,3.55a.18.18,0,0,0,0,.36Z" transform="translate(-50.43 -18.59)" style="fill:#aa865b"/><path d="M465.39,154.82c3.09-5.68,4-13.79,3.12-20.12-.73-5.1-3.36-11.42-9.56-10.59s-6.67,6.68-5.7,11.65A34.23,34.23,0,0,0,465,155a.3.3,0,0,0,.43-.43c-4.43-4.79-8.65-9.65-10.62-16-1.55-5-2.54-13.3,4.73-13.86,6.91-.54,8.62,8.48,8.61,13.68,0,5.76-1.85,10.83-3.11,16.34a.19.19,0,0,0,.34.14Z" transform="translate(-50.43 -18.59)" style="fill:#aa865b"/><path d="M482.32,106.64c1-6-.48-13.32-2.9-18.8-2.12-4.79-6.6-11-12.6-8.49C460.59,81.94,462.25,88.4,465,93a34.69,34.69,0,0,0,17,13.88c.33.13.53-.39.24-.55-5.63-3.07-11.14-6.26-15-11.51-3.21-4.33-7.19-12.66.36-15.13,6.63-2.16,10.87,6.56,12.38,11.6s1.41,10.11,1.94,15.3c0,.19.32.27.36,0Z" transform="translate(-50.43 -18.59)" style="fill:#aa865b"/><path d="M482.32,53.17c-.25-4.7-3.21-10.11-6.12-13.66-2.63-3.21-7.35-6.94-11.38-3.73s-1.57,7.79,1.52,10.71a26.91,26.91,0,0,0,15.79,7c.35,0,.41-.51.08-.59-4.7-1.23-9.35-2.35-13.31-5.34C465.51,45,460.13,39,466,35.71c4.68-2.61,9.58,3.46,11.66,7s2.78,7.07,4.34,10.59c.07.17.35.08.34-.09Z" transform="translate(-50.43 -18.59)" style="fill:#aa865b"/><path d="M408.94,222c3.34-6.26,3.33-15,1-21.62-1.65-4.7-6.41-9.14-11.74-6.76-6,2.67-2.92,10.72-.65,14.87,2.38,4.37,6,11.11,11,13,.12,0,.2-.15.09-.2-4-1.9-6.86-6.77-9-10.45-2.37-4.07-7.39-13.31-1.28-16.5,2.62-1.37,6.25-.4,8.29,1.58s2.82,4.67,3.37,7.27a30.56,30.56,0,0,1,.56,9.54c-.32,3.14-1.46,6.1-1.86,9.21,0,.14.19.18.25.07Z" transform="translate(-50.43 -18.59)" style="fill:#aa865b"/><path d="M438.85,199.45c3.94-5.9,4.68-14.7,3-21.45-1.21-4.82-5.55-9.6-11-7.8-6.07,2-4,10-2.24,14.35a55.44,55.44,0,0,0,4.16,8.07c1.43,2.28,3.23,5.06,5.72,6.28a.11.11,0,0,0,.11-.19c-3.83-2.29-6.36-7.62-8.15-11.57-1.94-4.27-6-14.25.84-16.33s9.89,5.32,10.43,10.6a30.52,30.52,0,0,1-.48,9.39c-.62,2.93-2,5.65-2.6,8.55a.13.13,0,0,0,.24.1Z" transform="translate(-50.43 -18.59)" style="fill:#aa865b"/><path d="M368.41,227.16c-1,8.23-1.31,16.64-2.57,24.82-.08.52.71.74.79.22.67-4.35.84-8.84,1.23-13.23.33-3.69,1.28-8.13.66-11.83,0-.07-.11,0-.11,0Z" transform="translate(-50.43 -18.59)" style="fill:#aa865b"/><path d="M375.9,264.68c-2-2.27-6-3.58-8.67-4.89a62.65,62.65,0,0,1-8.56-4.47c-.3-.22-.68.27-.4.51,2.37,2,5.56,3.11,8.33,4.47,3,1.47,6,3.49,9.13,4.67.18.07.28-.17.17-.29Z" transform="translate(-50.43 -18.59)" style="fill:#aa865b"/><path d="M418.17,246.82c-2.17-3.21-6.71-5.53-9.95-7.48-2.53-1.52-5.4-3.36-8.49-3.08a.38.38,0,0,0,0,.75c7.17.16,12.45,6.78,18.34,9.9.06,0,.14,0,.1-.09Z" transform="translate(-50.43 -18.59)" style="fill:#aa865b"/><path d="M405.08,207.4c.71,3.64,1.41,7.27,2.05,10.92s1.73,7.64-.15,11.25c-.11.23.2.51.38.29,2.31-2.89,1.3-6.79.75-10.1-.69-4.08-1.19-8.62-2.89-12.42,0-.09-.16,0-.14.06Z" transform="translate(-50.43 -18.59)" style="fill:#aa865b"/><path d="M435.17,179.22a23.45,23.45,0,0,1,.9,4.78c.41,2.63.74,5.27,1.05,7.91.49,4.32,1.28,8.55-.06,12.82-.11.32.33.45.51.21,2.38-3.21.77-9.65.31-13.29-.34-2.62-.69-5.23-1.17-7.83-.28-1.49-.46-3.41-1.48-4.63,0,0-.07,0-.06,0Z" transform="translate(-50.43 -18.59)" style="fill:#aa865b"/><path d="M461.91,210.78c-4.14-2.49-9.89-3.26-14.55-4.27-3.88-.84-8.5-2.15-12.28-.33-.33.16-.09.72.25.59,4.12-1.52,8.86-.13,13,.79,4.53,1,9,2.56,13.53,3.45a.12.12,0,0,0,.09-.23Z" transform="translate(-50.43 -18.59)" style="fill:#aa865b"/><path d="M491.45,164.5c-9.81.83-20.37,2.06-29.28,6.46-.32.15-.09.65.24.56,3.91-1.08,7.59-3.22,11.6-4,1.69-.33,3.43-.5,5.13-.74,2.64-.38,5.27-.75,7.9-1.16a17.78,17.78,0,0,0,4.46-.92c.1,0,.05-.2-.05-.19Z" transform="translate(-50.43 -18.59)" style="fill:#aa865b"/><path d="M461.78,139.13c1.42,3.8,1.81,8.3,2.62,12.27a83.76,83.76,0,0,1,2.08,15.11.26.26,0,0,0,.51.07c.8-2.39.1-5.3-.33-7.77-.4-2.28-.89-4.55-1.37-6.82-.91-4.26-1.62-8.87-3.31-12.92-.05-.12-.25-.07-.2.06Z" transform="translate(-50.43 -18.59)" style="fill:#aa865b"/><path d="M472.85,90.93c2.44,3.18,4.24,7.2,6.21,10.68,1.16,2,2.32,4.1,3.45,6.17a66,66,0,0,1,2.84,6.78c.11.28.59.28.57-.07-.29-4.39-3.76-9.14-5.89-12.83-1.37-2.38-2.74-4.76-4.19-7.08a17.14,17.14,0,0,0-2.75-3.84c-.12-.11-.36,0-.24.19Z" transform="translate(-50.43 -18.59)" style="fill:#aa865b"/><path d="M510.9,110.81c-8.32,5.72-17.56,9.84-26.64,14.07-.48.22-.07.91.41.7,5.08-2.25,10-4.45,14.88-7.17,2.55-1.43,5.09-2.88,7.57-4.43,1.29-.81,3.05-1.7,4-3a.15.15,0,0,0-.2-.2Z" transform="translate(-50.43 -18.59)" style="fill:#aa865b"/><path d="M505.91,57.67c-2.53,2.16-5.28,4.12-7.87,6.23-1.4,1.15-2.8,2.3-4.23,3.42s-3.25,2.11-4.67,3.44c-.28.27.13.66.43.42,2.93-2.34,6-4.45,8.91-6.84,2.57-2.13,5-4.34,7.5-6.6,0,0,0-.11-.07-.07Z" transform="translate(-50.43 -18.59)" style="fill:#aa865b"/><path d="M472.68,42.59c6.12,7.77,12.93,14.89,15.67,24.64,0,.16.32.19.35,0,.55-3.93-3.13-8.9-5.12-12-2.94-4.51-6.4-9.61-10.84-12.76-.05,0-.08,0-.06.07Z" transform="translate(-50.43 -18.59)" style="fill:#aa865b"/><path d="M446.52,223.5c-5.27-6.9-14.46-7.73-22.4-6.08-.54.11-.31.94.23.82,7.95-1.76,16-.54,21.78,5.56.19.2.57-.07.39-.3Z" transform="translate(-50.43 -18.59)" style="fill:#aa865b"/><path d="M446.08,224.13c2.26-2,6.23.39,5.87,3.31a2.91,2.91,0,0,1-3.08,2.37,4.28,4.28,0,0,1-3.33-1.34c-1.16-1.43-.11-3,.7-4.27.15-.25-.19-.47-.39-.3-1.49,1.26-2.16,3.48-.81,5.08a5.14,5.14,0,0,0,5,1.46,3.45,3.45,0,0,0,2.38-4.71,4.66,4.66,0,0,0-3.06-2.7,2.82,2.82,0,0,0-3.37,1,.08.08,0,1,0,.11.11Z" transform="translate(-50.43 -18.59)" style="fill:#aa865b"/><path d="M427,226.21a2.47,2.47,0,0,1,.48,3.7,3.19,3.19,0,0,1-3.34.85,2.76,2.76,0,0,1-.93-4,2.63,2.63,0,0,1,2-1.12c1,0,1.54.65,2.2,1.27a.14.14,0,0,0,.23-.13,2.49,2.49,0,0,0-3.38-1.3,3.3,3.3,0,0,0-1.91,3.46c.47,3,4.32,3.22,5.82.85a2.45,2.45,0,0,0,.35-1.75,3.11,3.11,0,0,0-1.46-1.8s0,0,0,0Z" transform="translate(-50.43 -18.59)" style="fill:#aa865b"/><path d="M454,172.76c1.08.8,2.48-.52,2.62-1.58a2.65,2.65,0,0,0-1.77-2.77c-1.54-.5-3.77.41-4,2.13-.3,2.08,2.05,3.36,3.81,2.69.08,0,.1-.17,0-.18a10.48,10.48,0,0,1-2-.29,2,2,0,0,1-1.21-2.39,2.67,2.67,0,0,1,3.62-1.32,2.05,2.05,0,0,1,1,2.18c-.24,1.15-1.21,1-2,1.44a.05.05,0,0,0,0,.09Z" transform="translate(-50.43 -18.59)" style="fill:#aa865b"/><path d="M454.62,173c-.62.93.12,2.3.41,3.23a14.41,14.41,0,0,1,.44,6.33c0,.24.31.36.38.1.91-3.36-.52-6.43-1.16-9.65a0,0,0,0,0-.07,0Z" transform="translate(-50.43 -18.59)" style="fill:#aa865b"/><path d="M476.49,125.33c.93,1,1.92,2.06,2.82,3.12a23.85,23.85,0,0,1,2.32,4c.16.28.51.08.47-.2-.43-3-3.39-5.19-5.61-6.89,0,0,0,0,0,0Z" transform="translate(-50.43 -18.59)" style="fill:#aa865b"/><path d="M498.88,93c-2.95-.61-9,.57-10,3.89,0,.14.13.28.25.2,1.65-1.07,2.72-2.38,4.7-3,1.66-.54,3.42-.56,5.09-1,0,0,0,0,0,0Z" transform="translate(-50.43 -18.59)" style="fill:#aa865b"/><path d="M499.18,92.62a7.82,7.82,0,0,1,.25-1.81c.36-.94,1.7-.93,2.48-.54a2.51,2.51,0,0,1,.39,3.92,2.26,2.26,0,0,1-2.59.19c-1.22-.69-.89-1.75-.61-2.89a.13.13,0,0,0-.22-.13,2.46,2.46,0,0,0-.17,3.11,2.82,2.82,0,0,0,3,.93c3-.8,2.81-5.88-.56-5.86-1.9,0-2.31,1.45-2,3.08a0,0,0,0,0,.05,0Z" transform="translate(-50.43 -18.59)" style="fill:#aa865b"/><path d="M506.1,80c.71.31,1.27.5,1.45,1.34.14.65.11,1.38-.57,1.7A1.83,1.83,0,0,1,504.34,82c-.32-1.19.78-1.78,1.79-1.87.12,0,.21-.2.07-.26a1.81,1.81,0,0,0-2.33,1.58,2.2,2.2,0,0,0,2.62,2.21,1.67,1.67,0,0,0,1.51-2c-.1-.92-.8-2-1.89-1.67C506.08,79.9,506.06,80,506.1,80Z" transform="translate(-50.43 -18.59)" style="fill:#aa865b"/><path d="M387.23,225.85c3.17,0,1.77-5.48-.87-5.65a3,3,0,0,0-3.19,3.2,3.31,3.31,0,0,0,4.12,2.53c.23-.08.22-.49-.06-.46-1.52.18-3.14-.21-3.58-1.91a2.64,2.64,0,0,1,2.92-3c2.08.37,3.08,4.54.62,5-.16,0-.12.28,0,.28Z" transform="translate(-50.43 -18.59)" style="fill:#aa865b"/><path d="M277.87,252c-4.35-.29-8.73,1.85-12.51,3.77a97.1,97.1,0,0,0-13.35,8c-4.68,3.45-7.93,8.84-10.57,13.92-2.73,5.25-5.21,10.69-7.77,16-.09.16.06,1,.34.69,1.6-1.58,4.27-1.93,6.39-2.22a74,74,0,0,1,7.72-.55c7.35-.25,14.69-.43,22-.45,6.06,0,12.36-.06,18.12-2.18a23,23,0,0,0,12.13-10.69c2.2-3.95,4.41-9.78.1-13.11-.32-.24-.33.57-.09.75,3.92,3,1.43,8.51-.55,12a22.94,22.94,0,0,1-7.15,7.95c-5.81,3.86-13.06,4.38-19.83,4.49-8.06.12-16.1.18-24.16.44a76.08,76.08,0,0,0-8.8.62c-2.1.3-4.64.67-6.22,2.23l.35.7c2.39-5,4.78-9.95,7.2-14.9,2.53-5.17,5.84-10.87,10.42-14.46a86.25,86.25,0,0,1,12.18-7.51c4.12-2.25,9.2-5,14.05-4.67.37,0,.27-.78,0-.8Z" transform="translate(-50.43 -18.59)" style="fill:#aa865b"/><path d="M239,289.47c3.09-3.46,7.15-5.47,10.95-8a80.52,80.52,0,0,1,13.57-7.73c4.66-2,9.37-3.75,14-5.63s9.57-4.12,14.68-5.2c.41-.09.24-.76-.18-.65A140.73,140.73,0,0,0,277,267.81c-5,2-10,3.95-15,6.07s-9,5.08-13.43,7.94c-3.46,2.22-7.36,4.07-9.83,7.48-.1.13.11.29.22.17Z" transform="translate(-50.43 -18.59)" style="fill:#aa865b"/><path d="M244.89,276.92c3.32-1.45,8.84-1.41,12.25-.25.3.1.45-.4.13-.49-3.82-1-8.82-1.09-12.43.66-.06,0,0,.11,0,.08Z" transform="translate(-50.43 -18.59)" style="fill:#aa865b"/><path d="M252.87,267.83c6.79-1.8,13.53-1,20,1.66.4.16.58-.5.18-.66-5.67-2.27-14.57-4.43-20.23-1.06a0,0,0,0,0,0,.06Z" transform="translate(-50.43 -18.59)" style="fill:#aa865b"/><path d="M264.52,260.41c7.47.7,14.66.64,21.47,4.29.4.21.76-.4.36-.61-6.43-3.38-14.63-4.52-21.83-3.89a.11.11,0,0,0,0,.21Z" transform="translate(-50.43 -18.59)" style="fill:#aa865b"/><path d="M252.12,287.83c1-4,1.82-8.13,5.24-10.79.2-.16-.06-.5-.27-.35-3.27,2.41-5.06,7.13-5.32,11.09,0,.2.3.24.35.05Z" transform="translate(-50.43 -18.59)" style="fill:#aa865b"/><path d="M265.88,286.78c.1-6.33,2.11-13.44,7.31-17.5.34-.27-.19-.42-.42-.24-5.31,4.15-7.45,11.32-7.55,17.81,0,.3.65.18.66-.07Z" transform="translate(-50.43 -18.59)" style="fill:#aa865b"/><path d="M280.2,284.15c.1-4.29-.23-8,1.69-12.06a38,38,0,0,1,5.18-7.55.21.21,0,0,0-.26-.33c-2.76,1.21-4.44,5.64-5.59,8.19a20.89,20.89,0,0,0-1.29,11.78c0,.16.26.11.27,0Z" transform="translate(-50.43 -18.59)" style="fill:#aa865b"/><path d="M248,192c-2.15-3.78-6.38-6.29-10-8.38a95.82,95.82,0,0,0-14.19-6.81c-5.36-1.94-11.57-1.7-17.17-1.16-6,.58-12,1.53-18,2.32-.32,0-.14.75.11.81,2.43.52,4.32,2.88,5.85,4.69,1.85,2.21,3.49,4.58,5.15,6.93,4.34,6.15,8.5,12.39,12.72,18.63,3.07,4.54,6.43,9.11,11,12.29a23.14,23.14,0,0,0,15.13,3.89c4.34-.31,10.39-1.55,10.79-6.83,0-.34-.46-.85-.5-.32-.54,7.13-12.41,7-17.36,6-7.53-1.53-12.84-7.17-17.13-13.2-4.94-6.94-9.53-14.14-14.45-21.12a90.14,90.14,0,0,0-5.54-7.36c-1.49-1.73-3.34-3.88-5.68-4.38l.11.81c5.33-.71,10.66-1.37,16-2.09,5.57-.76,12-1.18,17.46.41,4.87,1.42,9.67,4.05,14.15,6.45,4,2.17,9,4.83,11.3,9,.26.46.49-.2.32-.5Z" transform="translate(-50.43 -18.59)" style="fill:#aa865b"/><path d="M195.34,180.16c4.74.72,8.82,3.1,13.19,4.92a76.16,76.16,0,0,1,13.52,6.9c4.19,2.81,8.29,5.74,12.43,8.61s8.67,5.68,12.36,9.32c.31.31.8-.19.47-.47a123.92,123.92,0,0,0-11.8-8.73c-4.56-3.11-9-6.32-13.62-9.38a73,73,0,0,0-12.83-6.51c-4.41-1.82-8.8-4.7-13.68-4.94-.16,0-.2.25,0,.28Z" transform="translate(-50.43 -18.59)" style="fill:#aa865b"/><path d="M209.13,178.18a16.72,16.72,0,0,1,4.23,4.75,17.26,17.26,0,0,1,2.68,5.29c.08.32.59.18.48-.13-1.22-3.7-3.92-8-7.34-10-.06,0-.1.05-.05.08Z" transform="translate(-50.43 -18.59)" style="fill:#aa865b"/><path d="M221.16,179.85a30.73,30.73,0,0,1,9.54,17.54c.09.43.74.25.65-.18-1.18-6-4.21-14.58-10.15-17.41,0,0-.08,0,0,0Z" transform="translate(-50.43 -18.59)" style="fill:#aa865b"/><path d="M233.78,185.48c3.52,6.56,7.47,12.55,8.13,20.19,0,.45.74.45.7,0-.67-7.25-4.21-14.61-8.67-20.31-.07-.1-.21,0-.16.12Z" transform="translate(-50.43 -18.59)" style="fill:#aa865b"/><path d="M203.89,190.16c3.89-1.35,7.81-2.91,12-1.54.27.09.39-.33.12-.43-3.87-1.38-8.7-.27-12.21,1.64a.18.18,0,0,0,.14.33Z" transform="translate(-50.43 -18.59)" style="fill:#aa865b"/><path d="M212.3,200.9c5.34-3.35,12.32-5.48,18.53-3.4.25.08.77-.27.39-.39-6.47-2.17-13.77.06-19.34,3.54-.38.24.18.4.42.25Z" transform="translate(-50.43 -18.59)" style="fill:#aa865b"/><path d="M222.34,211.51c3.4-2.08,6.18-4.4,10.25-5.06a37,37,0,0,1,10.08.06c.22,0,.26-.29.11-.39-2.58-1.68-7.19-.63-10-.18a21,21,0,0,0-10.58,5.36c-.11.1,0,.29.17.21Z" transform="translate(-50.43 -18.59)" style="fill:#aa865b"/><path d="M326.35,198.23c2.25-4,6.89-6.56,10.78-8.69a81.18,81.18,0,0,1,14.35-6.66c5.33-1.66,11.6-1.29,17.07-.63s11.19,1.45,16.77,2.19l-.1-.8c-2.36.5-4.17,2.64-5.67,4.37a90.94,90.94,0,0,0-5.49,7.3c-4.91,7-9.5,14.17-14.45,21.12-4.16,5.85-9.27,11.4-16.53,13.12-4.87,1.15-17.38,1.55-17.91-5.61,0-.41-.55-.66-.51-.11.33,4.37,4.39,6.08,8.23,6.73a24.36,24.36,0,0,0,15.34-2.07c5-2.64,8.76-7.14,12-11.71,4.56-6.46,8.73-13.18,13.37-19.6,1.64-2.27,3.19-4.59,4.92-6.78s4-5.34,6.89-6c.31-.06.16-.77-.11-.8-5.84-.77-11.72-1.67-17.58-2.28-5.57-.58-11.83-.87-17.19,1a90,90,0,0,0-14,6.61c-3.84,2.13-8.35,4.7-10.58,8.64-.15.26.19,1,.39.64Z" transform="translate(-50.43 -18.59)" style="fill:#aa865b"/><path d="M378.65,185.58c-4.75.24-9,3-13.27,4.78A75.28,75.28,0,0,0,352.15,197c-4.46,3-8.82,6.09-13.24,9.11a132.42,132.42,0,0,0-12.19,9c-.32.29.16.78.47.48,3.7-3.64,8.12-6.38,12.36-9.32s8.24-5.81,12.43-8.61a75.54,75.54,0,0,1,13.52-6.91c4.37-1.82,8.45-4.2,13.19-4.92.16,0,.12-.28,0-.28Z" transform="translate(-50.43 -18.59)" style="fill:#aa865b"/><path d="M364.85,183.8c-3.42,2-6.12,6.3-7.34,10-.1.3.4.44.48.13a17.15,17.15,0,0,1,2.68-5.29,16.44,16.44,0,0,1,4.23-4.75.05.05,0,1,0,0-.09Z" transform="translate(-50.43 -18.59)" style="fill:#aa865b"/><path d="M352.83,185.5c-5.94,2.83-9,11.44-10.15,17.42-.09.43.57.61.65.18a30.7,30.7,0,0,1,9.54-17.54s0-.07,0-.06Z" transform="translate(-50.43 -18.59)" style="fill:#aa865b"/><path d="M340.09,191.06c-4.46,5.7-8,13.07-8.67,20.32,0,.45.66.45.7,0,.66-7.65,4.61-13.63,8.13-20.19.05-.1-.09-.23-.16-.13Z" transform="translate(-50.43 -18.59)" style="fill:#aa865b"/><path d="M370.28,195.54c-3.51-1.92-8.34-3-12.21-1.64-.26.09-.15.52.12.42,4.15-1.36,8.06.2,11.95,1.55a.18.18,0,0,0,.14-.33Z" transform="translate(-50.43 -18.59)" style="fill:#aa865b"/><path d="M362.2,206.31c-5.55-3.47-12.81-5.65-19.25-3.49-.38.13-.29.51.1.38,6.25-2.09,13.27.09,18.64,3.45.21.14.8-.16.51-.34Z" transform="translate(-50.43 -18.59)" style="fill:#aa865b"/><path d="M351.86,217a21,21,0,0,0-10.58-5.36c-2.84-.44-7.45-1.49-10,.18-.16.1-.12.41.1.39a37.79,37.79,0,0,1,10.08-.06c4.07.67,6.85,3,10.25,5.06.13.08.28-.11.17-.21Z" transform="translate(-50.43 -18.59)" style="fill:#aa865b"/><path d="M324.34,260c3.12.1,6.09,1.87,8.67,3.48a81.9,81.9,0,0,1,7.8,5.52c6.33,5.1,7.8,13.63,11,20.66.65,1.43.81,1-.38.41a12.17,12.17,0,0,0-3-1,69.39,69.39,0,0,0-7.34-1.07c-7.23-.88-14.84-.81-21.95-2.52a16.74,16.74,0,0,1-9.59-5.73c-2.21-2.84-5.56-9.21-1.63-11.87.18-.12,0-.67-.21-.52-3.37,2.28-1.67,6.91-.19,9.85a16.57,16.57,0,0,0,11,8.66c6.49,1.74,13.47,1.58,20.11,2.37,2.29.28,4.6.52,6.89.86s5.43.6,7,2.37c.21.23.27-.2.22-.34-1.5-3.89-2.91-7.86-4.53-11.7-1.48-3.49-3.31-7.24-6.1-9.87a59,59,0,0,0-8.78-6.42c-2.66-1.69-5.8-3.6-9.05-3.7-.26,0-.18.56,0,.56Z" transform="translate(-50.43 -18.59)" style="fill:#aa865b"/><path d="M349.45,287.66c-1.7-2.72-4.6-4.33-7.07-6.27a53.3,53.3,0,0,0-8-5.67c-6.67-3.53-13.47-7.26-20.52-9.94-.28-.11-.41.36-.12.45,3.74,1.12,7.14,3.08,10.62,4.81,3.16,1.57,6.33,3.09,9.45,4.73a54.32,54.32,0,0,1,8.37,5.84c2.5,2,5.16,3.62,7.13,6.17.07.09.22,0,.16-.12Z" transform="translate(-50.43 -18.59)" style="fill:#aa865b"/><path d="M346,278.64a13.47,13.47,0,0,0-8.64-1.16c-.22,0-.13.39.09.34a13.52,13.52,0,0,1,8.51.88s.08,0,0-.06Z" transform="translate(-50.43 -18.59)" style="fill:#aa865b"/><path d="M340.9,271.86c-3.9-2.62-10-1.69-14.18-.4a.23.23,0,0,0,.13.45,21.81,21.81,0,0,1,14,0,0,0,0,0,0,0,0Z" transform="translate(-50.43 -18.59)" style="fill:#aa865b"/><path d="M333.21,265.92c-5.07-.75-10.64-.54-15.41,1.45a.25.25,0,1,0,.19.45c4.92-2.09,10-1.79,15.2-1.76a.07.07,0,0,0,0-.14Z" transform="translate(-50.43 -18.59)" style="fill:#aa865b"/><path d="M340.5,285.86c0-2.76-.92-6.14-3.05-8-.15-.13-.37.09-.22.22,2.23,2.06,2.55,5,3,7.83,0,.14.25.1.25,0Z" transform="translate(-50.43 -18.59)" style="fill:#aa865b"/><path d="M331.18,284.39c.27-4.55-.75-9.56-4.18-12.8-.13-.12-.57.06-.42.19,3.39,3.2,4.41,8.16,4.14,12.66,0,.21.45.13.46-.05Z" transform="translate(-50.43 -18.59)" style="fill:#aa865b"/><path d="M321.07,281.75a15.11,15.11,0,0,0-.44-8.88c-.7-1.86-1.49-4.28-3.21-5.43-.12-.08-.3.08-.21.2a21.61,21.61,0,0,1,3.21,5.62c1.08,2.83.7,5.53.47,8.47a.09.09,0,0,0,.18,0Z" transform="translate(-50.43 -18.59)" style="fill:#aa865b"/><path d="M259.1,221.4a3.48,3.48,0,0,0-1.18.27,1.28,1.28,0,0,1-.29.13,2.91,2.91,0,0,1-.51.22,9.51,9.51,0,0,1-2,.44c-.69.11-1.44.19-2.26.28a20,20,0,0,0-5.51,1.11c-.42.2-.78.42-1.1.6l-.68.45a1.06,1.06,0,0,0-.27.18,20.06,20.06,0,0,1,2.54,1.27,27.87,27.87,0,0,1,3.56,2.37,17.73,17.73,0,0,1,1.62,1.34c1.46,1.23,2.82,2.51,4,3.72,3.67,3.64,6.54,6.46,10.52,5.84,1.34-.22,2.79-.49,4.35-.77,2-.39,4.18-.78,6.4-1.11,4.3-.65,9.62-1.25,14.25-.47,1.21,0,2.42.09,3.61.2.84.08,1.64.15,2.44.26s1.54.16,2.26.27c1.32.18,2.6.4,3.84.62.16-.36.33-.81.56-1.24a1.46,1.46,0,0,0-.13-.52c-.34-.87-1.42-2.39-4.76-3-2.5-.46-4.67-.72-6.77-1a79.59,79.59,0,0,1-8.75-1.45,11,11,0,0,1-6.18-3.88l-.73-.72-.11-.14-.45,0c-.57-.07-1.07-.12-1.51-.22s-.67-.14-.94-.23c0,0-.06-.07-.08-.05l-.12-.06a6,6,0,0,1-2.36-1.69,4.69,4.69,0,0,1-.76-1.23C266.74,221.67,261.53,221.13,259.1,221.4Z" transform="translate(-50.43 -18.59)" style="fill:#fff"/><path d="M267.85,192.08a11.37,11.37,0,0,0-.48,2.22c0,.46-.07,1-.1,1.56a.09.09,0,0,1,0,.06s0,.09,0,.11a26.92,26.92,0,0,0,.45,4.59l0,0a41.6,41.6,0,0,0,1.5,5.28c.15.42.3.83.48,1.23s.31.79.47,1.21.38.88.56,1.27.28.62.41.91l.3.68c.23.47.47.89.66,1.35l0,0c.23.47.49.92.69,1.34s.44.8.65,1.2c.06.11.13.2.17.29a7.92,7.92,0,0,1,1.5-.78l.42-.15c.7-.27,1.34-.53,1.94-.8a16,16,0,0,0,3.82-2.15,8.38,8.38,0,0,1,1.84-1c-.24-.84-.55-1.87-.83-3-.16-.65-.35-1.3-.5-2l-.12-.61c-.06-.26-.12-.56-.18-.82-1.55-7.44-1.19-12.54,1-15.18a12.21,12.21,0,0,1,3.89-2.91c-3.34-1.74-10.86-4.43-16.8,2.69A9,9,0,0,0,267.85,192.08Z" transform="translate(-50.43 -18.59)" style="fill:#fff"/><path d="M283.93,205.07l.12.6c.08.28.12.56.2.8l1.09,3.21,1.4-.38c.05,0,.09,0,.16-.05.65-.19,1.35-.39,2.11-.55,2.53-.62,5.48-1.15,8.67-1.63,0,0,0,0,.09,0,1.93-.25,4-.49,6-.64,0,0,0,0,.06,0,1.93-.16,3.92-.26,5.87-.32,2.13-.06,4.26,0,6.32.05,1.86.08,3.7.23,5.43.47h0a32.16,32.16,0,0,1,4.19.8,6.31,6.31,0,0,1,.83.2s.08,0,.1,0a2.89,2.89,0,0,1,1.24.21,12.23,12.23,0,0,0,.34-6.44s0,0,0,0-.12-.33-.17-.48a51.22,51.22,0,0,0-4.76-9.68l-.44-.76a10.6,10.6,0,0,0-5-3.52h0a24.13,24.13,0,0,0-4.43-1.18l-.82-.14c-7.42-1.07-13.92-2.21-20-.18-.76.25-4.41,1.4-5.07,1.68-1.49.69-2.41,2.15-3.2,3.12C282.32,192.48,282.24,197.74,283.93,205.07Z" transform="translate(-50.43 -18.59)" style="fill:#fff"/><path d="M324.37,215.62c.28-.5.54-1,.8-1.47a.82.82,0,0,0,.11-.25c.35-.64.69-1.31,1-2s.64-1.42.87-2.12a2.51,2.51,0,0,0-.75-.11c-.58.2-2.29.81-4.58,1.77-.88.34-1.79.75-2.76,1.16-.38.16-.76.32-1.14.52-1.33.55-2.69,1.21-4.07,1.89a66.66,66.66,0,0,0-8.35,4.85c-6.22,4.46-17.47,6.63-24.71,6.8a8.41,8.41,0,0,0,4.55,2.68,83.08,83.08,0,0,0,8.58,1.39c2.11.27,4.3.56,6.83,1,3.44.65,5.09,2.11,5.89,3.39.27-.38.58-.75.91-1.15.08-.1.22-.21.31-.33a15.46,15.46,0,0,1,3.89-5.74,79,79,0,0,1,7-6.27C321.25,219.68,322.75,218.44,324.37,215.62Z" transform="translate(-50.43 -18.59)" style="fill:#fff"/><path d="M348.24,213.36a15.62,15.62,0,0,1-3,5.91,5,5,0,0,0-1,2.34,5.13,5.13,0,0,1-1.14,2.23,4,4,0,0,1-2.79,1.65,3.82,3.82,0,0,0-2.07,1,57.46,57.46,0,0,0-8.75,8.83c-2.57,3.32-6.66,4-11.6,2l-.36-.2a2.35,2.35,0,0,1-.43-.19c-1.92-.94-4.82,1.66-6.17,3.16,0,0-3.42-5.26-4-4.19-.41.74-3.09,8,1.63,8.21a37.61,37.61,0,0,0,10.76,2.22l0,0c4.94,1.14,10.28-.64,19-3.81s12.69-8.56,12.69-8.56c6.9-9.75,5.52-18.65,4.91-21.1,0-.11,0-.17,0-.24a1.36,1.36,0,0,1-.08-.32.48.48,0,0,1,0-.13,8.27,8.27,0,0,0-.35-1c-1.1-2.85-5-5-7.76-6.18A14,14,0,0,1,348.24,213.36Z" transform="translate(-50.43 -18.59)" style="fill:#fff"/><path d="M274,224.1c1.94,1.89,5.69,2.12,10.59,1.64s13.5-3.27,17.31-4.83,7.11-4.6,12.15-7.15,10.33-4.59,10.33-4.59l-1.72-.28h0c-.8-.11-1.58-.25-2.42-.32a94.41,94.41,0,0,0-21.91.6c-3.5.49-6.75,1.08-9.34,1.72a7.89,7.89,0,0,0-.87.21c-.46.11-.89.24-1.27.35s-.59.14-.85.24c0,0,0,0-.07,0a.08.08,0,0,1-.08,0s-.05,0-.07,0c-.35.14-.75.27-1,.39l-.88.34a4.58,4.58,0,0,0-1.12.66,20,20,0,0,1-4.45,2.52c-.6.27-1.24.52-2,.78-.11.05-.26.1-.4.17a4.24,4.24,0,0,0-1.16.62,2.88,2.88,0,0,0-.44.4.46.46,0,0,0-.14.07A4.29,4.29,0,0,0,274,224.1Z" transform="translate(-50.43 -18.59)" style="fill:#fff"/><path d="M330.26,201.32a0,0,0,0,1,0,0,8.83,8.83,0,0,1,.24,2.44l0,0a17.3,17.3,0,0,1-.95,5.48,33.81,33.81,0,0,1-1.56,3.86l0,0,0,0a.09.09,0,0,1,0,.06l-.08.14-.07.1-.18.34v0c-.49,1-1,1.92-1.49,2.78-.3.52-.6,1-.89,1.44a21.82,21.82,0,0,1-5.19,5.18,88.73,88.73,0,0,0-6.84,6.13,14.14,14.14,0,0,0-3.59,5.41,5.08,5.08,0,0,0-.13.78,3,3,0,0,0-.06.9,3.64,3.64,0,0,0,.22,1.33c.05.15.1.26.15.42.29-.32.64-.64,1-1l0,0a9.82,9.82,0,0,1,4.62-2.54,3.93,3.93,0,0,1,2.63.34l.66.31c2.78,1.18,6.66,1.9,9.12-1.31a59.91,59.91,0,0,1,9.09-9.19,5.87,5.87,0,0,1,3-1.4,2.09,2.09,0,0,0,1.58-.91,3.65,3.65,0,0,0,.69-1.27,6.65,6.65,0,0,1,1.39-3.28,13.58,13.58,0,0,0,2.57-5.12c.84-3.38.2-5.87-1.05-8.94-.18-.4-.37-.86-.56-1.32-.11-.22-.22-.45-.32-.71-.29-.62-.54-1.3-.8-2-1.13-3-2.28-6-4.57-7.55-1.67-1.1-2.11-1.12-3-1.14a12.78,12.78,0,0,1-3.72-.56l-.21-.07a11.17,11.17,0,0,0-6.42.31.1.1,0,0,0-.06,0,48.11,48.11,0,0,1,4.44,9.35C330.09,200.61,330.17,201,330.26,201.32Z" transform="translate(-50.43 -18.59)" style="fill:#fff"/><path d="M268.13,253.21a56.8,56.8,0,0,0,7-5.18,44.09,44.09,0,0,1,6.51-4.73c.22-.1.42-.23.69-.38,1.75-.94,3.71-1.9,5.82-2.83l.78-.38c.26-.1.51-.23.78-.33l.64-.3a51.34,51.34,0,0,0-11.69.72c-2.19.33-4.35.73-6.36,1.07a5.07,5.07,0,0,0-.61.12,3,3,0,0,0-.39,0,16.09,16.09,0,0,1-13-3.91,98.5,98.5,0,0,0-11.17-9.41c-5.49-4-13.08-3.95-13.08-3.95-12.69,1-14.36,9.83-14.47,10.54v0c-2.39,7.25,2.69,14.84,4.45,17.18,1.45-.74,4.58-1.58,10.28.06a17.48,17.48,0,0,0,12.42-.89.25.25,0,0,0,.09,0l.08,0a3.21,3.21,0,0,0,.3-.16l.29-.16.55.51a12.37,12.37,0,0,0,1.15,1C254,255.38,262.13,256.9,268.13,253.21Z" transform="translate(-50.43 -18.59)" style="fill:#fff"/><path d="M243.55,197.65a6.7,6.7,0,0,0-.11,1.68c0,6.9,6.53,15.47,12.35,20.92.24-.08.48-.12.66-.19a4.31,4.31,0,0,0,.46-.19,5.13,5.13,0,0,1,1.54-.46c2.92-.47,8.13.21,12.6,1.44a6.45,6.45,0,0,1,.34-2.34l-.06,0,.34-.7c.16-.29.31-.57.48-.83l-.93-1.67c-.23-.47-.47-.89-.69-1.33l-.23-.43-.09-.19s0-.07-.06-.11a6.8,6.8,0,0,0-.36-.71c-.12-.29-.28-.62-.44-.95l-.38-.82c-.17-.4-.35-.79-.56-1.24-.26-.63-.52-1.31-.8-2-.17-.49-.36-1-.56-1.52-.21-.71-.46-1.48-.67-2.24-.14-.54-.31-1.06-.43-1.62,0-.07,0-.17,0-.28a17,17,0,0,1-.37-1.75.22.22,0,0,0,0-.1,16.43,16.43,0,0,1-.23-1.95,18,18,0,0,1-.1-1.93V196l0-.21v-2.88c-2-1.22-4.45-3-6.33-3.25-2.28-.25-8.78-1.07-12.55,1.7-1.6,1.16-2.27,3.62-2.71,5.89A1.85,1.85,0,0,0,243.55,197.65Z" transform="translate(-50.43 -18.59)" style="fill:#fff"/><path d="M356.23,234.94c.1-1.56.23-3.36.57-5.66a9.48,9.48,0,0,0,.1-3.74v-.06a31.22,31.22,0,0,1-4.35,8.87c-5.56,7.67-20.92,12.12-25.85,13.37-.41,1-1.08,2.52-2,4.43a80.05,80.05,0,0,1-9.73,15.34c8.67-1.9,24.09-7.49,32.18-14.18a19.44,19.44,0,0,0,3.89-4.16C355.82,241.8,356,239.23,356.23,234.94Z" transform="translate(-50.43 -18.59)" style="fill:#fff"/><path d="M230.1,222.86c.61-.11,1.15-.21,1.71-.29a19.71,19.71,0,0,1,4,0l.84.12a39.29,39.29,0,0,1,6.21,1.49,4.51,4.51,0,0,0,.87-.45l.23-.19c.34-.24.75-.5,1.2-.8l.7-.42c.23-.11.41-.22.67-.33a22.23,22.23,0,0,1,6.15-1.28,1.92,1.92,0,0,0,.53-.06,52.57,52.57,0,0,1-3.7-4c-4.51-5.38-8.28-11.92-8.19-17.58a4.89,4.89,0,0,0-3.11,1c-3,2.29-3.61,3.57-3.07,6.5a20.88,20.88,0,0,1,.67,5.54c-.24,2.09-1.66,3.7-3.16,5.17a8.09,8.09,0,0,0-2.76,5.7Z" transform="translate(-50.43 -18.59)" style="fill:#fff"/><path d="M311.71,268.07a76.76,76.76,0,0,0,11.08-16.85c.58-1.14,1-2.15,1.43-3-.22,0-.46.06-.69.06a21.1,21.1,0,0,1-2.36.13l-.25,0a1,1,0,0,1-.3,0c-5.73-.14-13-1.9-14.79-3.62-.07-.1-.19-.19-.29-.31a5.49,5.49,0,0,1-1.08-2.12,6.84,6.84,0,0,1-.11-1.62c-.65-.12-1.32-.23-2-.33a76.1,76.1,0,0,0-7.59-.9l-.22.11c-.07,0-.26.1-.51.19s-.64.25-1.13.46l0,0c-.82.33-1.86.77-3.1,1.33-.4.18-.78.37-1.2.53-1.91.88-3.68,1.76-5.27,2.61a40.66,40.66,0,0,0-6.83,4.88,58.51,58.51,0,0,1-7.27,5.36c-5.66,3.44-12.75,2.95-18.13.34,6.57,9.15,23.31,29.43,40.46,25.43a36.23,36.23,0,0,0,14.69-7.43,40.39,40.39,0,0,0,3.42-3.09C310.36,269.54,311,268.82,311.71,268.07Z" transform="translate(-50.43 -18.59)" style="fill:#fff"/><path d="M359,225.44l-.23-.91a2.46,2.46,0,0,0-1.23-1.47,27.13,27.13,0,0,0,.62-9.93,14.43,14.43,0,0,0-.7-2.76c-1.67-4.27-7.84-7-10.75-8.09-.08-.17-.13-.3-.23-.5-.34-.83-.72-1.7-1-2.61-1.21-3.11-2.58-6.66-5.41-8.53-2.08-1.38-2.9-1.44-4.13-1.47a9.86,9.86,0,0,1-3.09-.47,2.1,2.1,0,0,0-.48-.13,12.76,12.76,0,0,0-8,.57,9.89,9.89,0,0,0-1.66-1.71,3.74,3.74,0,0,0-.61-.46,9.35,9.35,0,0,0-1.47-.94,15.7,15.7,0,0,0-1.88-.9s-.05,0-.05,0l-.19-.09a21.63,21.63,0,0,0-3.49-1,12.63,12.63,0,0,0-1.39-.26l-.82-.2c-6.46-.91-16.79-1-23.93,1.5-2.43-1.5-12.93-7.15-20.89,2.34a11.39,11.39,0,0,0-2,3.59v0c-.26-.17-.53-.29-.8-.44a18,18,0,0,0-6.18-2.35c-2.52-.25-9.13-1-13.53,2.26a9.81,9.81,0,0,0-3.95,6.48,7,7,0,0,0-4.59,1.43c-4,3-3.47,6.22-2.9,9.33a14,14,0,0,1,.35,4.52c-.12,1.33-1.3,2.48-2.67,3.83s-3.08,3-3.7,5.29a5.58,5.58,0,0,0-.16,2.15c-.41.15-.81.32-1.2.44a17.53,17.53,0,0,0-4.66,3c-12,11,.72,26.32,1,26.63l.73.77.77-.7c.09-.08,2.51-2,9.2-.05a20,20,0,0,0,13.22-.69,106.43,106.43,0,0,0,7.7,10.44c8.5,10.11,22.28,22.1,37.16,18.71,5.44-1.29,10.93-3.2,15.78-7.13a46,46,0,0,0,5.22-4.92c9.81-1.55,33.61-9.89,40-19.73,5.05-7.82,5.26-10.75,5.55-15.21a52.5,52.5,0,0,1,.55-5.46A12.84,12.84,0,0,0,359,225.44Zm-3.52-14.34a9.94,9.94,0,0,1,.36,1.05.38.38,0,0,0,0,.11,1.21,1.21,0,0,0,.09.34,1.93,1.93,0,0,0,0,.24c.61,2.43,2,11.33-4.93,21.08,0,0-3.93,5.39-12.69,8.57s-14,4.94-19,3.82l0,0a37.41,37.41,0,0,1-10.74-2.23c-4.74-1.6-.86-7.75-.86-7.75s-.46,2.18.59,3.32a2.4,2.4,0,0,0,2.59.45l0,0c1.36-1.52,4.25-4.12,6.18-3.16a1.85,1.85,0,0,0,.43.18l.35.21c5,2.08,9.05,1.36,11.59-2a58.8,58.8,0,0,1,8.78-8.86,4,4,0,0,1,2.07-1,3.89,3.89,0,0,0,2.77-1.65,4.59,4.59,0,0,0,1.14-2.21,5.37,5.37,0,0,1,1-2.36,15.53,15.53,0,0,0,3-5.89,14,14,0,0,0-.53-8.43C350.55,206.13,354.41,208.27,355.49,211.1Zm-80.72,15,.11.06s.08,0,.08.06c.27.09.6.14,1,.23a10.23,10.23,0,0,0,1.5.21l.47,0,.1.14c.24.23.5.49.74.74a11.06,11.06,0,0,0,6.16,3.88,80.45,80.45,0,0,0,8.75,1.43c2.1.28,4.29.54,6.76,1,3.35.64,4.44,2.13,4.78,3a1.08,1.08,0,0,1,.12.52c-.22.43-.4.89-.55,1.23-1.23-.21-2.51-.43-3.85-.6-.71-.12-1.5-.21-2.24-.27s-1.61-.21-2.46-.27c-1.17-.11-2.38-.16-3.58-.19-4.66-.78-10-.2-14.27.45-2.22.34-4.38.73-6.4,1.13-1.58.26-3,.55-4.34.77-4,.61-6.85-2.22-10.53-5.85-1.21-1.2-2.58-2.49-4-3.73a16.58,16.58,0,0,0-1.62-1.32,27.3,27.3,0,0,0-3.57-2.37,22.85,22.85,0,0,0-2.52-1.29,1.71,1.71,0,0,1,.25-.18l.68-.43a10.85,10.85,0,0,1,1.1-.61,20.52,20.52,0,0,1,5.52-1.11c.82-.1,1.57-.18,2.26-.28a11.4,11.4,0,0,0,2-.43l.53-.22c.11,0,.2-.11.28-.13a3.3,3.3,0,0,1,1.17-.27c2.43-.28,7.65.26,12.55,1.73a4.62,4.62,0,0,0,.77,1.24A5.93,5.93,0,0,0,274.77,226.06Zm-.61-8.34a.12.12,0,0,1,.12-.08,1.88,1.88,0,0,1,.46-.42,3.9,3.9,0,0,1,1.15-.6l.39-.17c.73-.27,1.37-.51,2-.79a21,21,0,0,0,4.45-2.52,4.52,4.52,0,0,1,1.1-.66c.28-.1.56-.22.89-.35s.7-.24,1-.39c0,0,.05,0,.08,0s.06,0,.08,0,0,0,.06,0c.28-.09.55-.14.86-.23s.81-.24,1.25-.36c.28-.06.59-.16.89-.2a86.65,86.65,0,0,1,9.33-1.71,92.79,92.79,0,0,1,21.91-.6c.85.06,1.61.21,2.4.32h.06l1.72.26a75.27,75.27,0,0,0-10.85,4.32c-5.06,2.53-8.34,5.14-12.14,6.71s-11.82,4.44-16.7,4.93-8.74.86-10.69-1A4.25,4.25,0,0,1,274.16,217.72Zm26.6,14.06c-2.53-.47-4.71-.73-6.82-1a82.39,82.39,0,0,1-8.58-1.4,8.43,8.43,0,0,1-4.55-2.65c7.23-.2,18.48-2.37,24.69-6.81a67.43,67.43,0,0,1,8.35-4.86c1.4-.68,2.75-1.33,4.09-1.89.37-.2.76-.35,1.13-.52,1-.42,1.87-.82,2.77-1.16,2.26-1,4-1.57,4.55-1.76a1.67,1.67,0,0,1,.77.11c-.23.7-.56,1.37-.87,2.12s-.66,1.31-1,1.94a2.3,2.3,0,0,1-.09.25c-.27.5-.52,1-.81,1.49-1.61,2.82-3.12,4.06-5.6,6.07a78.4,78.4,0,0,0-7,6.26,15.74,15.74,0,0,0-3.88,5.75c-.09.1-.23.23-.32.31-.32.4-.64.79-.9,1.16C305.86,233.89,304.19,232.43,300.76,231.78Zm24.84-40.86a10.9,10.9,0,0,1,6.41-.32l.22.07a13.18,13.18,0,0,0,3.7.57c.88,0,1.32,0,3,1.15,2.27,1.49,3.42,4.54,4.57,7.54.25.66.49,1.36.79,2a5.6,5.6,0,0,0,.33.7c.17.47.37.91.54,1.33,1.26,3.06,1.92,5.57,1,8.94a13.5,13.5,0,0,1-2.57,5.12,6.52,6.52,0,0,0-1.38,3.27,3.66,3.66,0,0,1-.69,1.27,2.17,2.17,0,0,1-1.58.92,5.71,5.71,0,0,0-3,1.39A60.37,60.37,0,0,0,327.9,234c-2.45,3.19-6.35,2.5-9.12,1.31l-.65-.3a3.91,3.91,0,0,0-2.64-.36,10.12,10.12,0,0,0-4.62,2.54l0,0c-.37.34-.72.68-1,1a3.93,3.93,0,0,0-.14-.41,3.94,3.94,0,0,1-.22-1.35,3.42,3.42,0,0,1,.07-.9,3.26,3.26,0,0,1,.12-.75,14.14,14.14,0,0,1,3.59-5.44c2.94-2.92,5.1-4.68,6.84-6.13a21.34,21.34,0,0,0,5.18-5.16l.92-1.44c.48-.88,1-1.81,1.47-2.79l0,0,.18-.35.09-.08c0-.08.06-.08.09-.16v-.11a28.73,28.73,0,0,0,1.58-3.85,17.11,17.11,0,0,0,1-5.47l0,0a8.48,8.48,0,0,0-.25-2.44v0a10.73,10.73,0,0,0-.28-1.05,47.47,47.47,0,0,0-4.47-9.34A.12.12,0,0,1,325.6,190.92Zm-33.14-5.47c6.1-2,12.61-.91,20,.16l.82.15a23.57,23.57,0,0,1,4.42,1.18h.06a10.8,10.8,0,0,1,5,3.52l.46.76A52.88,52.88,0,0,1,328,200.9c.05.16.12.33.17.5,0,0,0,0,0,0a12.27,12.27,0,0,1-.35,6.45,3.09,3.09,0,0,0-1.22-.22s-.06,0-.11,0a4.13,4.13,0,0,0-.84-.2,27.58,27.58,0,0,0-4.17-.79l-.05,0c-1.72-.24-3.56-.37-5.42-.46-2.08-.06-4.19-.1-6.34,0-1.92.06-3.93.16-5.86.32,0,0,0,0-.06,0-2,.16-4.05.39-6,.63-.06,0-.06,0-.09,0-3.2.48-6.14,1-8.67,1.63a17.38,17.38,0,0,0-2.11.56c-.08,0-.11,0-.16.05l-1.39.37-1.09-3.21c-.1-.25-.12-.53-.21-.8l-.11-.61c-1.7-7.33-1.63-12.59.26-14.82.78-1,1.7-2.44,3.18-3.11C288.06,186.84,291.71,185.69,292.46,185.45Zm-25.09,8.86a9.4,9.4,0,0,1,.49-2.21,8.72,8.72,0,0,1,1.83-3.39c5.92-7.12,13.43-4.44,16.78-2.68a12,12,0,0,0-3.89,2.91c-2.21,2.63-2.57,7.74-1,15.17a8.21,8.21,0,0,1,.18.83l.14.6c.14.69.33,1.33.49,2,.28,1.13.59,2.15.82,3a8.91,8.91,0,0,0-1.83,1,16.47,16.47,0,0,1-3.83,2.14c-.59.28-1.23.52-1.93.79a1.76,1.76,0,0,1-.42.17,6.22,6.22,0,0,0-1.49.78c-.05-.11-.13-.19-.18-.31-.23-.39-.43-.81-.66-1.2s-.45-.86-.68-1.34h0c-.2-.47-.43-.89-.66-1.37l-.3-.66a7.37,7.37,0,0,0-.42-.92c-.18-.39-.35-.84-.55-1.28s-.32-.78-.46-1.19-.35-.81-.5-1.23a41.89,41.89,0,0,1-1.49-5.27l0,0a28.3,28.3,0,0,1-.45-4.6.09.09,0,0,1,0-.11.1.1,0,0,0,0-.06C267.3,195.29,267.32,194.77,267.37,194.31Zm-23.82,3.35a2.14,2.14,0,0,1,.07-.38c.44-2.27,1.12-4.72,2.72-5.9,3.77-2.75,10.27-1.94,12.54-1.7,1.88.24,4.3,2,6.33,3.25v2.89l0,.22,0,.06a15.88,15.88,0,0,0,.11,1.94,19.13,19.13,0,0,0,.21,1.94.3.3,0,0,1,0,.11,16.24,16.24,0,0,0,.36,1.74,2.2,2.2,0,0,1,0,.27c.11.58.28,1.11.42,1.63.21.77.48,1.52.67,2.24a14.28,14.28,0,0,1,.56,1.52c.3.7.54,1.37.81,2,.2.44.38.83.55,1.25l.38.8c.17.34.32.67.45.95s.25.5.38.73c0,0,0,.08.05.11l.07.19c.08.12.18.28.26.42.19.45.45.87.68,1.32s.61,1.12.94,1.68c-.18.26-.33.55-.51.82l-.33.72.05,0a6.15,6.15,0,0,0-.32,2.33c-4.48-1.24-9.69-1.91-12.62-1.44a5.05,5.05,0,0,0-1.53.45,2.74,2.74,0,0,1-.45.2c-.2.07-.42.12-.67.19-5.82-5.44-12.35-14-12.34-20.93A5.74,5.74,0,0,1,243.55,197.66Zm-10.91,19.56c1.5-1.46,2.92-3.06,3.15-5.18a21.45,21.45,0,0,0-.66-5.53c-.55-2.92.06-4.2,3.07-6.5a4.89,4.89,0,0,1,3.12-1c-.09,5.67,3.68,12.19,8.18,17.57q1.8,2.13,3.69,4a3.07,3.07,0,0,1-.52.06,20.87,20.87,0,0,0-6.16,1.28,5.21,5.21,0,0,0-.67.33l-.68.4c-.45.31-.87.56-1.21.82l-.23.18a4.25,4.25,0,0,1-.87.45,44.07,44.07,0,0,0-6.22-1.5l-.82-.12a19.91,19.91,0,0,0-4,0c-.56.08-1.08.19-1.69.3a1.77,1.77,0,0,0-.22.08A8.13,8.13,0,0,1,232.64,217.22ZM248,250.83l-.56-.51-.28.15a2.5,2.5,0,0,0-.28.17l-.11,0s0,0-.09,0a17.24,17.24,0,0,1-12.39.89A12.78,12.78,0,0,0,223.71,253c-1.76-2.34-6.56-11.44-4.17-18.7v0c.11-.7,1.78-9.58,14.48-10.53,0,0,7.58-.1,13.08,3.94a96.54,96.54,0,0,1,11.16,9.41,16.23,16.23,0,0,0,13.06,3.92,1.78,1.78,0,0,1,.39-.07,5.12,5.12,0,0,1,.61-.11c2-.34,4.18-.74,6.33-1.08a52.1,52.1,0,0,1,11.7-.7,4,4,0,0,0-.64.3c-.25.1-.5.22-.78.32s-.54.25-.76.37c-2.13.94-4.07,1.89-5.84,2.85-.25.13-.45.28-.68.38a43.09,43.09,0,0,0-6.5,4.73,56.46,56.46,0,0,1-7,5.16c-6,3.69-14.15,2.18-19-1.42C248.75,251.46,248.35,251.15,248,250.83Zm63.71,17.23c-.67.76-1.36,1.46-2.07,2.17a33.36,33.36,0,0,1-3.41,3.09,36.29,36.29,0,0,1-14.7,7.44c-17.15,4-33.88-16.3-40.44-25.43,5.37,2.62,12.46,3.1,18.13-.36a56.24,56.24,0,0,0,7.25-5.35,41.71,41.71,0,0,1,6.84-4.87c1.6-.86,3.37-1.73,5.28-2.6.42-.18.78-.38,1.2-.55,1.23-.54,2.27-1,3.08-1.31l0,0c.5-.23.87-.37,1.15-.47s.42-.17.5-.2l.22-.09a75.75,75.75,0,0,1,7.57.88l2,.34a5.55,5.55,0,0,0,.09,1.61,5.42,5.42,0,0,0,1.08,2.12l.29.31c1.76,1.72,9.07,3.49,14.8,3.64a1.43,1.43,0,0,0,.3,0h.25a18.75,18.75,0,0,0,2.34-.11,2.51,2.51,0,0,0,.69-.08c-.37.83-.86,1.85-1.4,3A77.88,77.88,0,0,1,311.72,268.06Zm45.09-38.79a55.12,55.12,0,0,0-.56,5.68c-.28,4.29-.42,6.85-5.23,14.19a19.09,19.09,0,0,1-3.9,4.16c-8.1,6.71-23.51,12.29-32.19,14.19a77.65,77.65,0,0,0,9.73-15.36c.94-1.89,1.61-3.41,2-4.4,4.92-1.26,20.28-5.72,25.84-13.39a31.93,31.93,0,0,0,4.35-8.8A9.48,9.48,0,0,1,356.81,229.27Z" transform="translate(-50.43 -18.59)" style="fill:#aa865b"/><path d="M269.84,265.51a11.14,11.14,0,0,0,3.87,13.2c.27.18.28-.48.07-.62a10.21,10.21,0,0,1-3.56-12.17c.09-.24-.24-.78-.38-.41Z" transform="translate(-50.43 -18.59)" style="fill:#aa865b"/><path d="M304.67,263.89c.91,3.49,3.5,6.65,1.6,10.3-.14.26.21,1,.39.64,2.1-4-.5-7.13-1.52-11-.12-.48-.6-.39-.47.1Z" transform="translate(-50.43 -18.59)" style="fill:#aa865b"/><path d="M329.47,207c2.74-1.28,6-.16,8.27,1.55.32.24.33-.56.08-.74-2.42-1.82-5.77-2.9-8.65-1.56-.27.13,0,.91.3.75Z" transform="translate(-50.43 -18.59)" style="fill:#aa865b"/><path d="M326.18,215c2.73,0,6.77,1.5,8.42,3.74.32.44.53-.21.32-.49-1.8-2.45-5.94-4-8.91-4.06-.31,0-.17.81.17.81Z" transform="translate(-50.43 -18.59)" style="fill:#aa865b"/><path d="M259,212.7c1.39,2.67,2.28,6.13,4.54,8.23.36.33.45-.43.22-.65-2.22-2.05-3.08-5.46-4.44-8.08-.25-.47-.48.2-.32.5Z" transform="translate(-50.43 -18.59)" style="fill:#aa865b"/><path d="M263.53,213.27a25.35,25.35,0,0,0,4,7.28c.3.37.41-.41.22-.65a24.26,24.26,0,0,1-3.76-7c-.18-.52-.55-.08-.41.32Z" transform="translate(-50.43 -18.59)" style="fill:#aa865b"/><path d="M249.35,228c-4.64-.58-10.4.57-13.33,4.54-.18.24.14,1,.39.64,2.83-3.83,8.52-4.94,13-4.38.37,0,.27-.77,0-.8Z" transform="translate(-50.43 -18.59)" style="fill:#aa865b"/><path d="M255.56,233.52c-3.13,0-7.39.79-9.75,3-.23.22.05,1,.3.75,2.31-2.18,6.54-3,9.63-3,.3,0,.17-.81-.18-.81Z" transform="translate(-50.43 -18.59)" style="fill:#aa865b"/><path d="M296.89,207.5c-2.24,1.76-3,5.09-2.88,7.81,0,.42.52.66.5.11-.07-2.49.63-5.56,2.68-7.17.24-.2,0-1-.3-.75Z" transform="translate(-50.43 -18.59)" style="fill:#aa865b"/><path d="M301.73,207.63a13,13,0,0,0-.63,6.05c.07.5.55.38.48-.11a11.71,11.71,0,0,1,.6-5.44c.11-.29-.3-.95-.45-.5Z" transform="translate(-50.43 -18.59)" style="fill:#aa865b"/><path d="M286.77,210.31c-1.73,2.44-3.55,5.69-3.23,8.81,0,.41.56.66.5.12-.3-2.93,1.5-6,3.12-8.29.18-.24-.15-1-.39-.64Z" transform="translate(-50.43 -18.59)" style="fill:#aa865b"/><path d="M309.18,198.4c1.85,1.89,1.21,5.42,1,7.82,0,.34.45.85.5.31.28-2.73.89-6.59-1.25-8.77-.33-.35-.43.42-.21.64Z" transform="translate(-50.43 -18.59)" style="fill:#aa865b"/><path d="M335.74,244.88c1.34,1.07,2.6,2.39,2.7,4.2,0,.41.53.66.5.11-.12-2.16-1.49-3.75-3.11-5.06-.31-.24-.32.56-.09.75Z" transform="translate(-50.43 -18.59)" style="fill:#aa865b"/><path d="M341.67,242.64a9.78,9.78,0,0,1,3.29,5.28c.12.48.6.39.47-.1a10.93,10.93,0,0,0-3.67-5.93c-.31-.25-.32.56-.09.75Z" transform="translate(-50.43 -18.59)" style="fill:#aa865b"/><path d="M347.09,216.18a4.76,4.76,0,0,1,3.61,2.88c.22.5.58.07.42-.32-.66-1.52-2.31-3.29-4.07-3.37-.38,0-.27.79,0,.81Z" transform="translate(-50.43 -18.59)" style="fill:#aa865b"/><path d="M338.55,225.83a7,7,0,0,1,3.05,3.07c.27.46.5-.2.32-.5a7.68,7.68,0,0,0-3.28-3.32c-.39-.18-.37.62-.09.75Z" transform="translate(-50.43 -18.59)" style="fill:#aa865b"/><path d="M343.66,221.68a3.85,3.85,0,0,1,2.6,2.26c.2.51.57.08.41-.31a4.55,4.55,0,0,0-3.06-2.75c-.33-.09-.26.72.05.8Z" transform="translate(-50.43 -18.59)" style="fill:#aa865b"/><path d="M274.75,211.3A1.65,1.65,0,1,1,275,209,1.64,1.64,0,0,1,274.75,211.3Z" transform="translate(-50.43 -18.59)" style="fill:#aa865b"/><path d="M276,206.29a1.66,1.66,0,0,1-2.33-.21,1.64,1.64,0,0,1,.21-2.32,1.66,1.66,0,0,1,2.33.21A1.64,1.64,0,0,1,276,206.29Z" transform="translate(-50.43 -18.59)" style="fill:#aa865b"/><path d="M287,205a2.4,2.4,0,0,1-3.36-.3,2.36,2.36,0,0,1,.31-3.34,2.39,2.39,0,0,1,3.36.3A2.36,2.36,0,0,1,287,205Z" transform="translate(-50.43 -18.59)" style="fill:#aa865b"/><path d="M292.54,207.82a2.4,2.4,0,0,1-3.37-.3,2.37,2.37,0,0,1,.31-3.34,2.4,2.4,0,0,1,3.36.3A2.36,2.36,0,0,1,292.54,207.82Z" transform="translate(-50.43 -18.59)" style="fill:#aa865b"/><path d="M300.1,208.48a2.41,2.41,0,0,1-3.37-.3,2.37,2.37,0,0,1,.31-3.34,2.4,2.4,0,0,1,3.36.3A2.36,2.36,0,0,1,300.1,208.48Z" transform="translate(-50.43 -18.59)" style="fill:#aa865b"/><path d="M289.65,199.73a2.39,2.39,0,0,1-3.36-.3,2.36,2.36,0,0,1,.31-3.34,2.4,2.4,0,0,1,3.36.3A2.36,2.36,0,0,1,289.65,199.73Z" transform="translate(-50.43 -18.59)" style="fill:#aa865b"/><path d="M281.49,202.06a2.39,2.39,0,0,1-3.36-.3,2.36,2.36,0,0,1,.3-3.34,2.41,2.41,0,0,1,3.37.3A2.37,2.37,0,0,1,281.49,202.06Z" transform="translate(-50.43 -18.59)" style="fill:#aa865b"/><path d="M282.45,208.78a1.29,1.29,0,1,1,.16-1.8A1.27,1.27,0,0,1,282.45,208.78Z" transform="translate(-50.43 -18.59)" style="fill:#aa865b"/><path d="M270.43,203.57a1.3,1.3,0,0,1-1.82-.17,1.27,1.27,0,0,1,.16-1.8,1.29,1.29,0,1,1,1.66,2Z" transform="translate(-50.43 -18.59)" style="fill:#aa865b"/><path d="M293.1,201.18a1.31,1.31,0,0,1-1.82-.16,1.28,1.28,0,0,1,.17-1.81,1.31,1.31,0,0,1,1.82.16A1.28,1.28,0,0,1,293.1,201.18Z" transform="translate(-50.43 -18.59)" style="fill:#aa865b"/><path d="M298.16,202.46a1.3,1.3,0,0,1-1.82-.16,1.28,1.28,0,0,1,.16-1.81,1.3,1.3,0,0,1,1.82.17A1.27,1.27,0,0,1,298.16,202.46Z" transform="translate(-50.43 -18.59)" style="fill:#aa865b"/></svg>